<?xml version="1.0" encoding="utf-8"?>
<!-- Generator: Adobe Illustrator 27.0.0, SVG Export Plug-In . SVG Version: 6.00 Build 0)  -->
<svg version="1.1" id="Layer_1" xmlns="http://www.w3.org/2000/svg" xmlns:xlink="http://www.w3.org/1999/xlink" x="0px" y="0px"
	 viewBox="0 0 1366 768" style="enable-background:new 0 0 1366 768;" xml:space="preserve">
<style type="text/css">
	.st0{opacity:0.29;fill:none;stroke:#000000;stroke-linecap:round;stroke-linejoin:round;stroke-miterlimit:10;}
	.st1{fill:none;}
	.st2{fill:#B3B3B3;}
</style>
<line class="st0" x1="551.26" y1="281.43" x2="610.7" y2="340.64"/>
<line class="st0" x1="812.61" y1="278.46" x2="751.02" y2="340.33"/>
<line class="st0" x1="815.41" y1="544.45" x2="751.37" y2="480.74"/>
<line class="st0" x1="550.45" y1="541.75" x2="610.93" y2="481.01"/>
<path id="SVGID_x5F_1_x5F_" class="st1" d="M842.47,399.05c7.2,87.79-58.13,164.8-145.93,172c-87.79,7.2-164.8-58.13-172-145.93
	c-7.2-87.79,58.13-164.8,145.93-172C758.26,245.93,835.27,311.26,842.47,399.05z"/>
<text><textPath  xlink:href="#SVGID_x5F_1_x5F_" startOffset="98.5027%">
<tspan  style="font-family:'Geologica-Thin'; font-size:12px;">ΒΟΡΡΑΣ                              ΒΑ                             ΑΝΑΤΟΛΗ                            ΝΑ                                 ΝΟΤΟΣ                                 ΝΔ                                 ΔΥΣΗ                                  ΒΔ</tspan></textPath>
</text>
<path id="SVGID_x5F_00000093137092218273109340000009841990733056168844_x5F_" class="st1" d="M855.27,379.34
	c18,95.03-44.43,186.66-139.46,204.66c-95.03,18-186.66-44.43-204.66-139.46s44.43-186.66,139.46-204.66
	S837.27,284.31,855.27,379.34z"/>
<text><textPath  xlink:href="#SVGID_x5F_00000093137092218273109340000009841990733056168844_x5F_" startOffset="98.5027%">
<tspan  style="font-family:'Geologica-Thin'; font-size:12px;">ΤΡΑΜΟΥΝΤΑΝΑ                       ΓΡΕΓΟΣ                            ΛΕΒΑΝΤΕΣ                         ΣΟΡΟΚΟΣ                              ΟΣΤΡΙΑ                               ΓΑΡΜΠΗΣ                       ΠΟΥΝΕΝΤΕΣ                         ΜΑΪΣΤΡΟΣ</tspan></textPath>
</text>
<path id="SVGID_x5F_00000045594859302274751950000004647678995385339304_x5F_" class="st1" d="M876.34,422.25
	c-5.57,106.46-96.39,188.24-202.85,182.66s-188.24-96.39-182.66-202.85s96.39-188.24,202.85-182.66
	C800.13,224.97,881.91,315.79,876.34,422.25z"/>
<text><textPath  xlink:href="#SVGID_x5F_00000045594859302274751950000004647678995385339304_x5F_" startOffset="98.5027%">
<tspan  style="font-family:'Geologica-Thin'; font-size:12.2051px;">0                                            45                                           90                                            135                                           180                                          225                                         270                                         315</tspan></textPath>
</text>
<path class="st2" d="M763.46,322.82c-21.15-18.98-49.11-30.53-79.76-30.53c-32.21,0-61.44,12.75-82.92,33.47
	c0,0-22.17-22.09-22.17-22.09c27.15-26.41,64.22-42.67,105.09-42.67c39.27,0,75.03,15.01,101.86,39.62
	C785.56,300.63,763.46,322.82,763.46,322.82z"/>
<path class="st2" d="M595.83,330.82c-19.61,21.28-31.59,49.71-31.59,80.94c0,30.84,11.68,58.94,30.86,80.14c0,0-22.1,22.2-22.1,22.2
	c-24.86-26.88-40.05-62.83-40.05-102.33c0-39.84,15.46-76.08,40.7-103.03C573.65,308.73,595.83,330.82,595.83,330.82z"/>
<path class="st2" d="M600.5,497.49c21.51,20.88,50.85,33.73,83.2,33.73c31.41,0,59.98-12.12,81.3-31.93c0,0,22.19,22.08,22.19,22.08
	c-27,25.51-63.42,41.14-103.5,41.14c-40.96,0-78.1-16.33-105.27-42.85C578.43,519.66,600.5,497.49,600.5,497.49z"/>
<path class="st2" d="M770.04,494.32c20.52-21.45,33.12-50.53,33.12-82.56c0-32.78-13.2-62.47-34.58-84.06
	c0,0,22.07-22.17,22.07-22.17c27.07,27.25,43.79,64.79,43.79,106.23c0,40.64-16.08,77.52-42.22,104.63
	C792.22,516.39,770.04,494.32,770.04,494.32z"/>
<path d="M820.62,410.19l-94.82-18.65l53.87-80.22l-80.23,53.86L680.8,258.01l-18.65,107.17l-80.22-53.86l53.82,80.22l-94.82,18.65
	l94.82,18.64l-53.82,80.23l80.22-53.82l18.65,94.81l18.64-94.81l80.23,53.82l-53.87-80.23L820.62,410.19z M680.91,442.26
	c-17.77,0-32.18-14.41-32.18-32.19c0-17.77,14.41-32.18,32.18-32.18c17.78,0,32.19,14.41,32.19,32.18
	C713.1,427.85,698.69,442.26,680.91,442.26z"/>
</svg>
