<svg width="410" height="470" xmlns="http://www.w3.org/2000/svg" xml:space="preserve" version="1.1">

 <g>
  <title>Layer 1</title>
  <line id="svg_1" stroke-miterlimit="10" stroke-linejoin="round" stroke-linecap="round" stroke="#000000" fill="none" opacity="0.29" y2="130.27002" x2="128.82071" y1="71.05002" x1="69.39071" class="st0"/>
  <line id="svg_2" stroke-miterlimit="10" stroke-linejoin="round" stroke-linecap="round" stroke="#000000" fill="none" opacity="0.29" y2="129.95002" x2="269.15071" y1="68.08002" x1="330.74071" class="st0"/>
  <line id="svg_3" stroke-miterlimit="10" stroke-linejoin="round" stroke-linecap="round" stroke="#000000" fill="none" opacity="0.29" y2="270.36002" x2="269.50071" y1="334.07002" x1="333.54071" class="st0"/>
  <line id="svg_4" stroke-miterlimit="10" stroke-linejoin="round" stroke-linecap="round" stroke="#000000" fill="none" opacity="0.29" y2="270.63002" x2="129.06071" y1="331.37002" x1="68.58071" class="st0"/>
  <g id="svg_5">
   <path id="svg_6" d="m178.05072,43.90002l-1.10999,-8.32999l2.48999,-0.33002c0.75,-0.10001 1.38,0 1.90997,0.29001c0.52002,0.29001 0.83002,0.78 0.92004,1.47c0.03998,0.26999 0,0.54999 -0.11005,0.82999s-0.25995,0.52002 -0.45996,0.74002c-0.19,0.22 -0.39001,0.37997 -0.60004,0.47c0.48004,0.06 0.91003,0.25 1.28003,0.57999c0.38,0.32001 0.59998,0.76999 0.67999,1.34c0.06,0.42001 0,0.81 -0.16998,1.17999c-0.17004,0.36002 -0.42999,0.67001 -0.80005,0.92001c-0.37,0.25 -0.81995,0.41 -1.34998,0.48001l-2.67999,0.35999zm0.07001,-4.72l1.65002,-0.22c0.59998,-0.07999 1.06995,-0.28 1.38995,-0.60999c0.33002,-0.33002 0.46002,-0.75 0.39001,-1.24002c-0.06,-0.47998 -0.28998,-0.81998 -0.66998,-1.01999c-0.38,-0.20001 -0.89001,-0.26001 -1.54004,-0.17999l-1.63995,0.22l0.41998,3.04999zm0.52997,3.98999l1.82001,-0.23999c0.71002,-0.09 1.21997,-0.30002 1.52997,-0.61002c0.31,-0.31 0.42004,-0.75 0.35004,-1.31998c-0.07001,-0.56003 -0.31,-0.95001 -0.70001,-1.19s-0.96997,-0.31 -1.71997,-0.21002l-1.71002,0.23001l0.42999,3.34z"/>
   <path id="svg_7" d="m188.98071,42.85001c-0.62,0.04001 -1.19,-0.03 -1.73999,-0.22c-0.54004,-0.19 -1.02002,-0.45999 -1.44,-0.82999c-0.41998,-0.37003 -0.76001,-0.81 -1.01001,-1.33002c-0.25,-0.51999 -0.40002,-1.07999 -0.44,-1.69998c-0.03998,-0.62003 0.03003,-1.21002 0.21002,-1.75c0.17999,-0.55002 0.45996,-1.03 0.82996,-1.45001c0.37,-0.42001 0.81,-0.76001 1.32001,-1.01001c0.51001,-0.25 1.08002,-0.39999 1.69,-0.44c0.61005,-0.03998 1.19,0.03 1.73004,0.22c0.53998,0.19 1.01996,0.47 1.44,0.84s0.75995,0.82001 1.01996,1.33002c0.26001,0.51001 0.41003,1.07999 0.45001,1.69c0.03998,0.62 -0.02997,1.19998 -0.21997,1.75c-0.19,0.54999 -0.47003,1.03 -0.83002,1.44998c-0.37,0.42001 -0.81,0.76001 -1.32001,1.02002c-0.52002,0.25 -1.08002,0.39001 -1.69,0.42999zm-0.03998,-0.66998c0.66998,-0.04001 1.27002,-0.23999 1.79999,-0.57999c0.53003,-0.34 0.94,-0.80002 1.23004,-1.38c0.28998,-0.58002 0.40997,-1.23999 0.35999,-1.98001c-0.04999,-0.73999 -0.25,-1.38 -0.62,-1.91c-0.36005,-0.53 -0.83002,-0.94 -1.40002,-1.20999c-0.57001,-0.26999 -1.19,-0.38 -1.85999,-0.34c-0.66998,0.04001 -1.27002,0.23999 -1.79999,0.57999c-0.53003,0.34 -0.94,0.80002 -1.23004,1.38s-0.40997,1.24002 -0.35999,1.98001c0.04999,0.73999 0.25,1.38 0.60999,1.91c0.36005,0.53 0.83002,0.94 1.40002,1.20999c0.57996,0.28 1.19995,0.38998 1.87,0.34z"/>
   <path id="svg_8" d="m195.12073,42.28003l-0.21997,-8.39999l2.70996,-0.07001c0.57001,-0.01999 1.07001,0.07001 1.5,0.25c0.42999,0.17999 0.78003,0.45001 1.03003,0.79999c0.25,0.35001 0.38,0.78 0.39996,1.28c0.02002,0.77002 -0.20996,1.37003 -0.70001,1.79001c-0.48999,0.42001 -1.18994,0.64001 -2.12,0.66l-2,0.04999l0.10004,3.62003l-0.70001,0.01999zm0.57996,-4.28l2.09003,-0.05002c0.66998,-0.01999 1.17999,-0.17999 1.53998,-0.47998c0.35999,-0.30002 0.53003,-0.73001 0.51001,-1.28c-0.01001,-0.54001 -0.21002,-0.97 -0.59003,-1.28c-0.38,-0.31 -0.88995,-0.46002 -1.53998,-0.44l-2.09998,0.06l0.08997,3.47z"/>
   <path id="svg_9" d="m202.35071,42.15002l0.15997,-8.39999l2.71002,0.04999c0.57001,0.01001 1.07001,0.12 1.48999,0.32001c0.42999,0.20001 0.76001,0.48001 0.98999,0.84c0.24005,0.36002 0.35004,0.79001 0.34003,1.29001c-0.01001,0.76999 -0.27002,1.35999 -0.78003,1.75c-0.50995,0.39999 -1.21997,0.59 -2.14996,0.57001l-2,-0.04001l-0.07001,3.62l-0.69,0zm0.78003,-4.26001l2.09003,0.04001c0.66998,0.00998 1.19,-0.12 1.56,-0.41c0.37,-0.28 0.56,-0.70001 0.56995,-1.26001c0.01001,-0.53998 -0.16998,-0.97 -0.52997,-1.29999c-0.37,-0.33002 -0.87,-0.5 -1.52002,-0.51001l-2.09998,-0.04001l-0.07001,3.48001z"/>
   <path id="svg_10" d="m208.57068,42.26001l3.92999,-8.16l0.60004,0.04001l2.96997,8.60999l-0.78003,-0.04999l-0.81,-2.36002l-4.09998,-0.26999l-1.06,2.23999l-0.75,-0.04999zm2.11005,-2.82001l3.58002,0.23999l-1.54999,-4.53l-2.03003,4.29001z"/>
   <path id="svg_11" d="m216.76068,42.84003l0.06,-0.57999l3.03998,-3.40002l-2.17999,-3.76999l0.07001,-0.57999l5.26001,0.59l-0.07001,0.63998l-4.39001,-0.48999l2.13,3.66998l-3.01001,3.38l4.63,0.52002l-0.07001,0.63998l-5.46997,-0.62z"/>
   <path id="svg_12" d="m306.81067,81.75003l5.63,-6.23001l1.85999,1.67999c0.56006,0.51001 0.90002,1.05002 1.01001,1.64001c0.10999,0.59 -0.06006,1.14001 -0.53003,1.64999c-0.17993,0.20001 -0.41992,0.35001 -0.69995,0.45001c-0.28003,0.09 -0.57007,0.13998 -0.85999,0.13s-0.54004,-0.06 -0.75,-0.15002c0.26001,0.41 0.39001,0.86002 0.39001,1.35001c0,0.5 -0.20007,0.96002 -0.58008,1.38c-0.28992,0.31 -0.62,0.53 -1.01001,0.64001c-0.39001,0.10999 -0.78992,0.09998 -1.21997,-0.01001c-0.42993,-0.12 -0.83997,-0.36002 -1.23999,-0.72l-2,-1.81zm0.95007,-0.02002l1.35999,1.23001c0.53003,0.47998 1.02002,0.72998 1.44995,0.76999c0.44006,0.03 0.8501,-0.17001 1.2301,-0.59c0.38,-0.42001 0.52991,-0.85001 0.44995,-1.30002c-0.06995,-0.44998 -0.39001,-0.94 -0.95996,-1.44998l-1.28003,-1.16l-2.25,2.5zm2.68994,-2.97998l1.23999,1.12c0.45007,0.41 0.91003,0.63 1.37,0.67001c0.45996,0.03998 0.85999,-0.13 1.20007,-0.51001c0.31995,-0.36002 0.43994,-0.75 0.33997,-1.17001c-0.08997,-0.41998 -0.38,-0.84998 -0.85999,-1.28998l-1.22998,-1.11002l-2.06006,2.29001z"/>
   <path id="svg_13" d="m311.44067,85.93002l8.31995,-3.57001l0.43005,0.42001l-3.42004,8.45001l-0.54993,-0.55002l0.93994,-2.31l-2.90991,-2.88998l-2.27002,0.98999l-0.54004,-0.54001zm3.44006,-0.74002l2.54004,2.53l1.79993,-4.44l-4.33997,1.91z"/>
   <path id="svg_14" d="m357.92065,169.59003l8.87,1.84998l0.10999,0.59003l-7.64001,4.96002l-0.14001,-0.77002l2.1001,-1.34998l-0.7301,-4.04004l-2.42993,-0.48999l-0.14001,-0.75zm3.25,1.37l0.63,3.52997l4.02002,-2.59998l-4.65002,-0.92999z"/>
   <path id="svg_15" d="m359.44067,178.29004l8.32996,-1.06l0.08008,0.59998l-6.37,5.87l7,-0.88995l0.08997,0.69l-8.32996,1.06l-0.08008,-0.60004l6.44006,-5.88l-7.07007,0.90002l-0.08997,-0.69z"/>
   <path id="svg_16" d="m360.42065,185.82001l8.60999,2.83002l0.04004,0.59998l-8.15002,4.07001l-0.05005,-0.78003l2.24011,-1.10999l-0.27002,-4.08997l-2.35999,-0.76001l-0.06006,-0.76001zm3.07007,1.72003l0.23999,3.58002l4.28003,-2.13l-4.52002,-1.45001z"/>
   <path id="svg_17" d="m361.04065,196.39001l7.75,-0.25l-0.07996,-2.47998l0.6499,-0.02002l0.18005,5.65997l-0.65002,0.02002l-0.07996,-2.47998l-7.75,0.25l-0.02002,-0.70001z"/>
   <path id="svg_18" d="m360.92065,204.89001c0.01001,-0.62 0.13,-1.19 0.37,-1.71002c0.22998,-0.52997 0.55005,-0.97998 0.94995,-1.37c0.40002,-0.38995 0.87012,-0.67999 1.41003,-0.88995c0.54004,-0.21002 1.10999,-0.31 1.72998,-0.30005c0.62,0.01001 1.20007,0.13 1.7301,0.36005c0.52991,0.22998 0.98999,0.54999 1.37,0.94995s0.68994,0.87 0.8999,1.40002c0.21008,0.53003 0.31006,1.10999 0.30005,1.72998c-0.01001,0.61005 -0.13,1.17999 -0.37,1.70001c-0.22998,0.52002 -0.56006,0.97998 -0.95996,1.37c-0.41003,0.39001 -0.88,0.69 -1.41003,0.90002s-1.10999,0.31 -1.71997,0.29999c-0.62,-0.01001 -1.19006,-0.13 -1.72009,-0.37c-0.52991,-0.22998 -0.98999,-0.54999 -1.37,-0.95001c-0.39001,-0.39996 -0.68994,-0.87 -0.8999,-1.39996c-0.21997,-0.54004 -0.31995,-1.11005 -0.31006,-1.72003zm0.68005,0.01001c-0.01001,0.66998 0.13,1.28998 0.43005,1.84003c0.29993,0.56 0.71997,1 1.2699,1.33997c0.55005,0.34003 1.20007,0.51001 1.94006,0.53003c0.75,0.01001 1.40002,-0.14001 1.95996,-0.45001c0.56006,-0.32001 1,-0.75 1.32007,-1.28998c0.31995,-0.54004 0.47998,-1.15002 0.5,-1.82001c0.01001,-0.67004 -0.13,-1.29004 -0.43005,-1.84003c-0.30005,-0.56 -0.71997,-1 -1.27002,-1.33997c-0.54993,-0.34003 -1.19995,-0.51001 -1.93994,-0.53003c-0.73999,-0.01001 -1.40002,0.14001 -1.96008,0.45001c-0.55994,0.32001 -1,0.75 -1.31995,1.28998c-0.32996,0.53998 -0.48999,1.15002 -0.5,1.82001z"/>
   <path id="svg_19" d="m360.96069,210.07001l8.14001,3.83002l-0.04004,0.59998l-8.62,2.72998l0.06006,-0.79999l7.5,-2.32001l-7.09009,-3.25995l0.05005,-0.78003z"/>
   <path id="svg_20" d="m360.29065,218.56l8.32996,1.03998l-0.08997,0.69l-3.54004,-0.44l-0.59998,4.79004l3.54004,0.44l-0.08997,0.69l-8.33008,-1.04004l0.09009,-0.69l4.15991,0.52002l0.59998,-4.78998l-4.15991,-0.52002l0.08997,-0.69z"/>
   <path id="svg_21" d="m323.61072,304.48004l6.31995,5.53998l-0.3999,0.45001l-8.60999,-0.88l5.29993,4.65002l-0.45996,0.51996l-6.32007,-5.53998l0.40002,-0.45001l8.67004,0.92999l-5.35999,-4.69995l0.45996,-0.52002z"/>
   <path id="svg_22" d="m318.57068,310.20001l3.67004,8.27997l-0.42004,0.43005l-8.47998,-3.32001l0.54004,-0.56l2.31995,0.91998l2.85999,-2.94l-1.02002,-2.26001l0.53003,-0.54999zm0.78003,3.42999l-2.5,2.57001l4.44995,1.75l-1.94995,-4.32001z"/>
   <path id="svg_23" d="m222.31073,359.86005l0.91998,8.34998l-0.59998,0.07001l-5.76001,-6.45996l0.77002,7.00995l-0.69,0.08002l-0.92004,-8.34998l0.60004,-0.07001l5.77002,6.53998l-0.78003,-7.07996l0.69,-0.09003z"/>
   <path id="svg_24" d="m209.94073,360.78003c0.62,-0.03003 1.19,0.04999 1.72998,0.23999c0.54004,0.19 1.02002,0.47998 1.42999,0.85004c0.41003,0.37 0.75,0.81995 0.99005,1.33997s0.38995,1.09003 0.41998,1.71002c0.02997,0.62 -0.04999,1.20996 -0.23999,1.75s-0.47003,1.01996 -0.85004,1.44c-0.37,0.41998 -0.82001,0.75 -1.33997,1s-1.08002,0.38995 -1.70001,0.41998c-0.60999,0.02997 -1.19,-0.04999 -1.71997,-0.23999c-0.54004,-0.20001 -1.02002,-0.48004 -1.43005,-0.85999c-0.41998,-0.38 -0.75,-0.83002 -1,-1.34003c-0.25,-0.52002 -0.38995,-1.08002 -0.41998,-1.69c-0.02997,-0.62 0.04999,-1.20001 0.23999,-1.73999c0.19,-0.53998 0.48004,-1.02002 0.85004,-1.44s0.82001,-0.75 1.33997,-1s1.08997,-0.41003 1.70001,-0.44zm0.02997,0.66998c-0.66998,0.03998 -1.27002,0.22003 -1.81,0.56c-0.52997,0.34003 -0.95001,0.78998 -1.23999,1.35999c-0.29999,0.57001 -0.41998,1.23004 -0.38,1.97003c0.03998,0.73999 0.23999,1.38 0.59003,1.91998c0.35999,0.53998 0.81995,0.95001 1.37994,1.22003c0.56,0.27997 1.18005,0.39996 1.85004,0.37s1.27002,-0.22003 1.81,-0.56c0.52997,-0.34003 0.95001,-0.79004 1.25,-1.36005c0.29999,-0.56995 0.41998,-1.22998 0.38,-1.96997c-0.04004,-0.73999 -0.23999,-1.38 -0.59003,-1.91998c-0.34998,-0.54004 -0.81,-0.95001 -1.38,-1.23004s-1.19,-0.39996 -1.85999,-0.35999z"/>
   <path id="svg_25" d="m202.11072,361.17999l0.01001,7.75l2.48999,0l0,0.65002l-5.66998,0.01001l0,-0.65002l2.47998,0l-0.02002,-7.75l0.71002,-0.01001z"/>
   <path id="svg_26" d="m193.60071,360.81c0.62,0.03003 1.17999,0.16998 1.70001,0.41998c0.51996,0.25 0.95996,0.58002 1.33997,0.98999c0.37,0.42004 0.66003,0.89001 0.85004,1.44c0.19,0.54004 0.27997,1.12 0.25,1.74005c-0.03003,0.62 -0.17004,1.19995 -0.41003,1.70996c-0.25,0.52002 -0.57996,0.97003 -0.98999,1.35004c-0.40997,0.38 -0.89001,0.65997 -1.42999,0.84998c-0.53998,0.19 -1.12,0.28003 -1.72998,0.25c-0.61005,-0.03003 -1.17004,-0.16998 -1.69,-0.41998c-0.52002,-0.25 -0.96002,-0.58002 -1.34003,-1c-0.38,-0.42004 -0.65997,-0.90002 -0.85999,-1.44c-0.20001,-0.54004 -0.28003,-1.12 -0.25,-1.73004c0.02997,-0.62 0.16998,-1.19 0.41998,-1.70996c0.25,-0.52002 0.58002,-0.97003 0.98999,-1.34003c0.41003,-0.38 0.89001,-0.65997 1.43005,-0.85999c0.52997,-0.19995 1.10999,-0.27997 1.71997,-0.25zm-0.03003,0.67004c-0.66998,-0.03003 -1.28998,0.08997 -1.84998,0.37c-0.56,0.28003 -1.02002,0.69 -1.38,1.22998c-0.35004,0.54004 -0.55005,1.17999 -0.58002,1.92004c-0.03998,0.73999 0.09003,1.39996 0.39001,1.96997c0.29999,0.57001 0.70996,1.02002 1.25,1.35999c0.52997,0.33002 1.13995,0.52002 1.81,0.55005c0.66998,0.02997 1.28998,-0.09003 1.84998,-0.37006c0.56,-0.27997 1.02002,-0.69 1.38,-1.22998c0.34998,-0.53998 0.54999,-1.17999 0.58002,-1.91998c0.03998,-0.73999 -0.09003,-1.40002 -0.39001,-1.97003c-0.29999,-0.57001 -0.71002,-1.01996 -1.25,-1.35999c-0.53998,-0.33002 -1.13995,-0.52002 -1.81,-0.54999z"/>
   <path id="svg_27" d="m188.11072,360.65002l-0.06,0.58002l-3,3.42999l2.21002,3.75l-0.06,0.58002l-5.27002,-0.53003l0.07001,-0.64001l4.39001,0.44l-2.16003,-3.63995l2.97998,-3.41003l-4.63,-0.46997l0.07001,-0.65002l5.46002,0.56z"/>
   <path id="svg_28" d="m90.85071,316.47003l-5.95001,5.92999l-0.41998,-0.42999l1.46002,-8.52997l-5,4.97998l-0.49005,-0.48999l5.95001,-5.93005l0.41998,0.42004l-1.50995,8.57996l5.04999,-5.02997l0.48999,0.5z"/>
   <path id="svg_29" d="m85.44073,311.03003l-0.44,0.39001l-8.04999,2.73999l-0.40002,-0.45001l3.47003,-7.82001l0.44,-0.39001l4.97998,5.53003zm-0.99005,-0.14001l-3.91998,-4.34998l-2.98999,6.71997l6.90997,-2.37z"/>
   <path id="svg_30" d="m42.46069,212.62l-0.58997,0.03003l-7.96002,-2.99005l-0.03003,-0.59998l7.64001,-3.84998l0.59003,-0.03003l0.34998,7.44zm-0.69,-0.72998l-0.27002,-5.84998l-6.57001,3.29999l6.84003,2.54999z"/>
   <path id="svg_31" d="m42.11072,201.84003l-3.73999,0l-4.66003,2.98999l0,-0.83997l3.97003,-2.52002l-3.97003,-2.5l0,-0.82001l4.66003,2.98999l3.73999,0l0,0.70001z"/>
   <path id="svg_32" d="m42.14069,197.46002l-0.59003,-0.03003l-3.59998,-2.78998l-3.60999,2.42999l-0.59003,-0.02002l0.23004,-5.28998l0.64996,0.03003l-0.19,4.40997l3.51001,-2.37l3.58002,2.77002l0.20001,-4.65002l0.64996,0.03003l-0.23999,5.47998z"/>
   <path id="svg_33" d="m42.48071,190.23999l-8.37,-0.75l0.06,-0.69l3.54999,0.32001l0.42999,-4.79999l-3.54999,-0.32001l0.06,-0.69l8.37,0.75l-0.06,0.69l-4.16998,-0.38l-0.42999,4.79999l4.16998,0.38l-0.06,0.69z"/>
   <path id="svg_34" d="m88.43073,89.27002l-5.87,-6.01001l1.78998,-1.75c0.54004,-0.53 1.11005,-0.82999 1.70001,-0.91c0.59003,-0.07999 1.13,0.13 1.60999,0.62003c0.19,0.19998 0.33002,0.43997 0.41003,0.72998s0.09998,0.58002 0.08002,0.87c-0.02002,0.29001 -0.09003,0.54001 -0.20001,0.74002c0.41998,-0.24002 0.88,-0.34 1.38,-0.31c0.48999,0.03 0.94,0.25998 1.33997,0.66998c0.29999,0.30002 0.48999,0.64999 0.57001,1.04001c0.08002,0.38998 0.06,0.79999 -0.08997,1.22c-0.14001,0.41998 -0.41003,0.82001 -0.79004,1.19998l-1.92999,1.89001zm-2.77002,-3.82001l1.19,-1.16998c0.44,-0.42001 0.69,-0.87003 0.75,-1.33002c0.07001,-0.45999 -0.08002,-0.87 -0.42999,-1.22998c-0.33002,-0.34003 -0.72003,-0.48001 -1.14001,-0.42001s-0.87,0.32999 -1.33997,0.78l-1.18005,1.16l2.15002,2.20999zm2.81,2.87l1.31,-1.28c0.51001,-0.5 0.79999,-0.97 0.85004,-1.41c0.06,-0.44 -0.11005,-0.85999 -0.51001,-1.26001c-0.39001,-0.39999 -0.82001,-0.57999 -1.27002,-0.53c-0.46002,0.04001 -0.96002,0.33002 -1.5,0.87003l-1.23999,1.20999l2.35999,2.39999z"/>
   <path id="svg_35" d="m92.92072,84.88l-0.39001,-0.44l-2.69,-8.06l0.45001,-0.39999l7.79999,3.51999l0.39001,0.44l-5.56,4.94zm0.14996,-0.98999l4.38,-3.88998l-6.71002,-3.03l2.33002,6.91998z"/>
  </g>
  <g id="svg_36">
   <path id="svg_37" d="m158.92072,31.66l-1.85999,-7.53l-2.41003,0.60001l-0.14996,-0.63l5.5,-1.35999l0.15997,0.62997l-2.40997,0.60001l1.85999,7.53l-0.69,0.16z"/>
   <path id="svg_38" d="m163.5307,30.56003l-1.70001,-8.23001l2.66003,-0.54999c0.56,-0.12 1.06,-0.12 1.51996,-0.01999s0.84003,0.29999 1.15002,0.59998c0.31,0.30002 0.51001,0.70001 0.62,1.19c0.15997,0.76001 0.02997,1.38 -0.38,1.88c-0.40997,0.5 -1.06,0.84 -1.96002,1.03l-1.95996,0.41l0.72998,3.54999l-0.67999,0.14001zm-0.17999,-4.32001l2.03998,-0.42001c0.65002,-0.13 1.13,-0.38 1.42999,-0.73999c0.30005,-0.35999 0.39001,-0.81 0.28003,-1.35001c-0.10999,-0.53 -0.38,-0.91 -0.81,-1.14999c-0.42999,-0.23999 -0.96002,-0.29999 -1.59998,-0.16l-2.06,0.42001l0.71997,3.39999z"/>
   <path id="svg_39" d="m169.63074,29.30002l1.98999,-8.82999l0.59003,-0.10001l4.82996,7.72998l-0.76996,0.12003l-1.32001,-2.12003l-4.04999,0.66l-0.53003,2.42001l-0.73999,0.12zm1.41998,-3.22l3.53998,-0.57001l-2.52997,-4.06l-1.01001,4.63z"/>
   <path id="svg_40" d="m178.35071,27.91l-0.90997,-8.35001l0.67999,-0.07999l4.13,5.23001l2.79999,-5.99002l0.64001,-0.07001l0.90997,8.35001l-0.69,0.08002l-0.77002,-7.03l-2.57001,5.34l-0.62994,0.07001l-3.74005,-4.75l0.78003,7.12l-0.63,0.07999z"/>
   <path id="svg_41" d="m192.7207,26.82001c-0.62,0.03 -1.19,-0.04999 -1.72998,-0.25c-0.54004,-0.20001 -1.02002,-0.48001 -1.42999,-0.85001c-0.41003,-0.38 -0.74005,-0.82001 -0.99005,-1.34c-0.25,-0.51999 -0.38995,-1.09 -0.41998,-1.70999c-0.02997,-0.62 0.04999,-1.20999 0.23999,-1.75c0.19,-0.54001 0.48004,-1.02002 0.85004,-1.44c0.37,-0.41 0.81995,-0.75 1.33997,-0.98999c0.52002,-0.25 1.08002,-0.38 1.70001,-0.42001c0.60999,-0.03 1.19,0.04999 1.72003,0.25c0.53998,0.20001 1.01996,0.48999 1.42999,0.87c0.41998,0.38 0.75,0.83002 1,1.35001c0.25,0.51999 0.38995,1.07999 0.41998,1.69c0.03003,0.62 -0.04999,1.19998 -0.25,1.73999c-0.19,0.54001 -0.47998,1.02002 -0.84998,1.44c-0.38,0.42001 -0.82001,0.75 -1.34003,1c-0.52002,0.24002 -1.08002,0.38 -1.69,0.41zm-0.02997,-0.66998c0.66998,-0.03 1.27002,-0.22 1.81,-0.54999c0.53003,-0.33002 0.95001,-0.79001 1.25,-1.36002c0.29999,-0.57001 0.42999,-1.22998 0.39001,-1.97c-0.04004,-0.73999 -0.22998,-1.38 -0.59003,-1.91998c-0.34998,-0.54001 -0.81,-0.95001 -1.38,-1.23001c-0.57001,-0.28 -1.17999,-0.39999 -1.84998,-0.37c-0.66998,0.03 -1.27002,0.22 -1.81,0.54999c-0.53003,0.34 -0.95001,0.79001 -1.25,1.36002c-0.29999,0.57001 -0.42999,1.22998 -0.39001,1.97c0.04004,0.73999 0.22998,1.38 0.59003,1.91998c0.34998,0.54001 0.81,0.95001 1.38,1.23001c0.55994,0.28 1.17993,0.39999 1.84998,0.37z"/>
   <path id="svg_42" d="m200.83069,26.41l-0.01001,-3.73999l-3,-4.64999l0.84003,0l2.52997,3.97l2.48999,-3.98001l0.82001,0l-2.97998,4.66l0.01001,3.73999l-0.70001,0z"/>
   <path id="svg_43" d="m205.83069,26.44l0.35999,-8.38998l0.60004,0.03l4.70996,7.25998l0.29999,-7.04999l0.70001,0.03l-0.35999,8.39001l-0.59998,-0.02002l-4.71002,-7.34l-0.29999,7.12l-0.70001,-0.03z"/>
   <path id="svg_44" d="m216.13074,27.02002l0.66998,-7.72l-2.47998,-0.20999l0.06,-0.65002l5.64001,0.49002l-0.06,0.64999l-2.47003,-0.20999l-0.66998,7.72l-0.69,-0.07001z"/>
   <path id="svg_45" d="m219.85071,27.34003l4.41998,-7.89999l0.59003,0.07999l2.44,8.78l-0.77002,-0.10001l-0.65997,-2.40997l-4.07001,-0.52002l-1.20001,2.17001l-0.75,-0.10001zm2.28003,-2.69l3.56,0.45001l-1.27002,-4.61002l-2.28998,4.16z"/>
   <path id="svg_46" d="m228.62073,28.51001l1.46002,-8.26999l0.58997,0.10999l3.71002,7.82001l1.21997,-6.95001l0.69,0.12l-1.45996,8.27002l-0.59003,-0.10001l-3.70001,-7.89001l-1.23999,7.02002l-0.67999,-0.13z"/>
   <path id="svg_47" d="m236.14069,29.85001l5.15002,-7.45001l0.57996,0.13l1.59003,8.97l-0.76001,-0.16998l-0.42999,-2.46002l-4,-0.89999l-1.40002,2.05002l-0.72998,-0.17001zm2.53003,-2.45999l3.5,0.79001l-0.83002,-4.70999l-2.66998,3.91998z"/>
   <path id="svg_48" d="m308.11072,62.74002l5.18994,-6.61002l3.44006,2.70001l-0.40002,0.51001l-2.89001,-2.27002l-4.78992,6.10001l-0.55005,-0.42999z"/>
   <path id="svg_49" d="m312.73071,66.41l5.43005,-6.41l2.06995,1.75c0.43005,0.37 0.75,0.76001 0.95996,1.19c0.20007,0.42001 0.28003,0.85001 0.23999,1.28c-0.04993,0.42999 -0.22998,0.83002 -0.54993,1.22c-0.5,0.59 -1.07007,0.88 -1.71008,0.86002c-0.63989,-0.01001 -1.31995,-0.32001 -2.0199,-0.91l-1.53003,-1.29001l-2.33997,2.76999l-0.55005,-0.45999zm3.30005,-2.81l1.58997,1.35001c0.51001,0.42999 1,0.64999 1.46008,0.66998s0.88,-0.19 1.23999,-0.60999c0.34998,-0.41 0.48999,-0.86002 0.40991,-1.35001c-0.07996,-0.48999 -0.35999,-0.94 -0.85999,-1.35999l-1.59998,-1.36002l-2.23999,2.66z"/>
   <path id="svg_50" d="m318.21069,71.11002l5.68005,-6.19l3.63989,3.35001l-0.43994,0.48001l-3.13,-2.87003l-2.01001,2.19l2.77002,2.55002l-0.44006,0.47998l-2.7699,-2.54999l-2.3501,2.56l3.15002,2.89999l-0.43994,0.48001l-3.66003,-3.38z"/>
   <path id="svg_51" d="m323.35071,75.91l5.91003,-5.97l3.10999,3.07001l-0.45996,0.45999l-2.61011,-2.57999l-5.44995,5.50998l-0.5,-0.48999z"/>
   <path id="svg_52" d="m329.99072,82.98001c-0.42004,-0.45001 -0.71997,-0.95001 -0.92004,-1.48999c-0.19995,-0.54001 -0.27991,-1.09003 -0.26001,-1.65002c0.02002,-0.56 0.16003,-1.09998 0.40002,-1.62c0.23999,-0.51999 0.58997,-0.98999 1.04004,-1.41c0.45996,-0.41998 0.95996,-0.73999 1.5,-0.92999c0.54004,-0.20001 1.08997,-0.29001 1.65002,-0.26999c0.55994,0.01999 1.09998,0.14999 1.62,0.38998c0.52002,0.24002 0.98999,0.59 1.40991,1.04001c0.42004,0.45001 0.72009,0.94 0.91003,1.48001s0.28003,1.09 0.25,1.64999c-0.03003,0.56 -0.16003,1.10001 -0.40002,1.63c-0.23999,0.51999 -0.57996,0.98999 -1.02991,1.41c-0.46008,0.41998 -0.95007,0.72998 -1.5,0.92999c-0.54004,0.19998 -1.09009,0.28998 -1.65002,0.25998c-0.56006,-0.01999 -1.09998,-0.14999 -1.62,-0.38998c-0.52002,-0.23999 -0.97998,-0.57999 -1.40002,-1.03zm0.48999,-0.45999c0.45996,0.48999 0.97998,0.84 1.57996,1.03c0.6001,0.19 1.21008,0.22 1.84009,0.09c0.63,-0.13998 1.21997,-0.45999 1.76001,-0.95999c0.54993,-0.5 0.90991,-1.07001 1.09998,-1.67999c0.18994,-0.62003 0.20996,-1.23001 0.05994,-1.85001c-0.15002,-0.61002 -0.44995,-1.17001 -0.90002,-1.66c-0.45996,-0.48999 -0.97998,-0.84 -1.57996,-1.03c-0.59998,-0.20001 -1.20996,-0.22 -1.83997,-0.09c-0.63,0.13998 -1.21997,0.45999 -1.76001,0.95999c-0.55005,0.5 -0.91003,1.07001 -1.09998,1.67999c-0.19006,0.62 -0.21008,1.23001 -0.06006,1.84c0.15002,0.63 0.45007,1.18002 0.90002,1.67001z"/>
   <path id="svg_53" d="m333.81067,86.95001l0.44995,-0.38l4.55005,-0.37l1.03003,-4.22998l0.44995,-0.38l3.40002,4.04999l-0.5,0.42001l-2.83997,-3.38l-0.98999,4.12l-4.51001,0.37l2.98999,3.57001l-0.5,0.41998l-3.53003,-4.20999z"/>
   <path id="svg_54" d="m373.54065,169.5l8.81006,1.79999l0.09998,0.59003l-7.73999,4.69l-0.13,-0.79004l6.73999,-4.01996l-7.66003,-1.49005l-0.12,-0.77997z"/>
   <path id="svg_55" d="m374.88074,177.92004l8.33997,-1.02997l0.60999,4.90997l-0.63989,0.08002l-0.52002,-4.22003l-2.95007,0.37l0.46008,3.73999l-0.64001,0.08002l-0.46008,-3.73999l-3.45996,0.42999l0.53003,4.25l-0.64001,0.08002l-0.63,-4.95001z"/>
   <path id="svg_56" d="m375.70068,184.86005l8.37,-0.69l0.20996,2.5c0.06006,0.75 -0.06995,1.38 -0.38,1.89001c-0.31995,0.5 -0.81995,0.78998 -1.50989,0.83997c-0.28003,0.02002 -0.55005,-0.02997 -0.82007,-0.14996c-0.27002,-0.12 -0.51001,-0.29004 -0.71997,-0.48999c-0.20996,-0.20001 -0.35999,-0.41003 -0.44006,-0.62c-0.07996,0.47998 -0.29993,0.88995 -0.64001,1.25c-0.33997,0.35999 -0.79993,0.56 -1.37,0.60999c-0.41992,0.03998 -0.80994,-0.04004 -1.16992,-0.23004c-0.35999,-0.17999 -0.65002,-0.46997 -0.88,-0.83997s-0.37,-0.84003 -0.42004,-1.37l-0.22998,-2.70001zm0.70007,0.63995l0.15002,1.83002c0.05994,0.70996 0.23999,1.22998 0.53992,1.54999c0.30005,0.32001 0.7301,0.46002 1.30005,0.40997c0.56006,-0.04999 0.96997,-0.26001 1.21997,-0.63995c0.26001,-0.38 0.3501,-0.95001 0.29004,-1.71002l-0.14001,-1.72003l-3.35999,0.28003zm4.01001,-0.32996l0.14001,1.65997c0.04993,0.61005 0.22998,1.08002 0.54993,1.42004c0.31006,0.33997 0.72009,0.5 1.22009,0.45001c0.47998,-0.04004 0.82996,-0.24005 1.04993,-0.62006c0.22009,-0.37 0.31006,-0.87994 0.25,-1.52997l-0.14001,-1.65002l-3.06995,0.27002z"/>
   <path id="svg_57" d="m376.21069,191.11005l8.53003,3.04999l0.02002,0.60004l-8.25,3.85999l-0.03003,-0.78003l2.26001,-1.04999l-0.16003,-4.09998l-2.33997,-0.82001l-0.03003,-0.76001zm3.03003,1.79999l0.14001,3.58002l4.33997,-2.02002l-4.47998,-1.56z"/>
   <path id="svg_58" d="m376.52075,199.92004l8.40002,0.06l0,0.59998l-7.09009,4.96002l7.06006,0.04999l0,0.69l-8.40002,-0.06l0,-0.59998l7.17004,-4.96002l-7.13,-0.04999l-0.01001,-0.69z"/>
   <path id="svg_59" d="m376.29065,210.23999l7.73999,0.39001l0.13,-2.48004l0.65002,0.03003l-0.29004,5.65997l-0.65002,-0.02997l0.12,-2.47998l-7.73999,-0.39001l0.04004,-0.70001z"/>
   <path id="svg_60" d="m376.01074,214.97003l8.37,0.75l-0.43994,4.91998l-0.65002,-0.06l0.38,-4.22998l-2.96008,-0.26001l-0.33997,3.75l-0.65002,-0.06l0.34009,-3.75l-3.47009,-0.31l-0.38,4.27002l-0.64001,-0.06l0.44006,-4.96002z"/>
   <path id="svg_61" d="m375.42065,221.31l0.57996,0.08002l3.3501,3.09998l3.80994,-2.10999l0.57996,0.08002l-0.67993,5.25l-0.64001,-0.08002l0.56995,-4.38l-3.69995,2.06l-3.32996,-3.07001l-0.59998,4.62l-0.64001,-0.08002l0.69995,-5.46997z"/>
   <path id="svg_62" d="m346.77075,299.16003l0.47998,0.33002l1.55005,4.28998l4.34998,-0.12l0.47998,0.33002l-3.02002,4.34998l-0.53003,-0.37l2.52002,-3.63l-4.23999,0.13l-1.53992,-4.26001l-2.65002,3.83002l-0.53003,-0.37l3.13,-4.51001z"/>
   <path id="svg_63" d="m340.17065,308.02002c0.37,-0.48999 0.81006,-0.88 1.31006,-1.15997c0.5,-0.29004 1.0199,-0.46002 1.57996,-0.54004c0.55005,-0.07001 1.10999,-0.02997 1.66003,0.12c0.55994,0.15002 1.07996,0.41003 1.56995,0.79004c0.5,0.38 0.89001,0.81995 1.18005,1.31995s0.46997,1.02002 0.53992,1.58002c0.08008,0.54999 0.04004,1.10999 -0.10999,1.66003c-0.15002,0.54999 -0.41003,1.07996 -0.78003,1.56c-0.37,0.48999 -0.80994,0.87 -1.30994,1.14996s-1.03003,0.46002 -1.57996,0.53003c-0.56006,0.07001 -1.12,0.02997 -1.67004,-0.10999c-0.56006,-0.15002 -1.07996,-0.41003 -1.56006,-0.78003c-0.48999,-0.38 -0.88,-0.82001 -1.16992,-1.32001c-0.29004,-0.5 -0.46997,-1.02997 -0.54004,-1.58002c-0.06995,-0.54999 -0.04004,-1.10999 0.10999,-1.65997c0.14001,-0.54999 0.40002,-1.07001 0.77002,-1.56zm0.53003,0.40997c-0.41003,0.53003 -0.66003,1.10999 -0.75,1.73999s-0.01001,1.23004 0.22998,1.83002s0.66003,1.12 1.25,1.57001c0.58997,0.45001 1.21008,0.71997 1.84998,0.79999s1.25,-0.01001 1.83008,-0.25c0.57996,-0.25 1.06995,-0.64001 1.47998,-1.16998c0.41003,-0.53003 0.66003,-1.10999 0.75,-1.73999c0.08997,-0.62 0.01001,-1.23004 -0.22998,-1.83002c-0.23999,-0.60004 -0.66003,-1.12 -1.25,-1.57001c-0.59009,-0.45001 -1.21008,-0.71997 -1.84998,-0.79999c-0.64001,-0.08002 -1.25,0.01001 -1.83008,0.25c-0.57996,0.25 -1.06995,0.64001 -1.47998,1.16998z"/>
   <path id="svg_64" d="m336.50073,312.96002l6.41003,5.42999l-1.75,2.07001c-0.37,0.42999 -0.76001,0.75 -1.19006,0.96002c-0.41992,0.19995 -0.84998,0.27997 -1.28003,0.23999c-0.42993,-0.04999 -0.82996,-0.23004 -1.21997,-0.56c-0.58997,-0.5 -0.88,-1.07001 -0.87,-1.71002c0.01001,-0.64001 0.32007,-1.32001 0.91003,-2.02002l1.29004,-1.52997l-2.77002,-2.34003l0.46997,-0.53998zm2.80994,3.28998l-1.34998,1.59003c-0.43005,0.50995 -0.66003,1 -0.67004,1.45996s0.19006,0.88 0.60999,1.23999c0.41003,0.35004 0.85999,0.48004 1.34998,0.41003c0.49011,-0.08002 0.94006,-0.35999 1.36011,-0.85999l1.35999,-1.60004l-2.66003,-2.23999z"/>
   <path id="svg_65" d="m329.08069,321.12c0.42004,-0.45001 0.89001,-0.78998 1.42004,-1.02997c0.52991,-0.24005 1.06995,-0.36005 1.62,-0.38c0.55994,-0.02002 1.10999,0.06995 1.6499,0.27997c0.54004,0.20001 1.03003,0.51001 1.49011,0.94c0.45996,0.42999 0.79993,0.90002 1.03992,1.41998c0.23999,0.52002 0.37,1.07001 0.39001,1.62c0.02002,0.56 -0.06995,1.11005 -0.27002,1.64001c-0.19995,0.54004 -0.51001,1.03003 -0.92993,1.48004c-0.42004,0.44995 -0.89001,0.78998 -1.41003,1.01996s-1.06995,0.35999 -1.63,0.37s-1.10999,-0.07996 -1.65002,-0.27997s-1.03003,-0.51001 -1.47998,-0.92999c-0.44995,-0.42004 -0.80005,-0.90002 -1.04004,-1.42004c-0.23999,-0.52997 -0.37,-1.07001 -0.38,-1.63s0.07007,-1.10999 0.27002,-1.64996c0.18005,-0.51001 0.49011,-1 0.91003,-1.45001zm0.48999,0.46002c-0.45996,0.48999 -0.76001,1.03998 -0.91003,1.65997c-0.15002,0.61005 -0.13,1.23004 0.05005,1.84003c0.17993,0.62 0.54993,1.17999 1.08997,1.69c0.54004,0.51001 1.13,0.83002 1.76001,0.96997c0.63,0.14001 1.23999,0.12006 1.83997,-0.07996c0.6001,-0.19 1.13,-0.53003 1.59009,-1.02002s0.76001,-1.03998 0.90991,-1.65002c0.15002,-0.60999 0.13,-1.22998 -0.04993,-1.83997c-0.18005,-0.62 -0.55005,-1.17999 -1.09009,-1.69c-0.53992,-0.51001 -1.12988,-0.83002 -1.75989,-0.97003s-1.24011,-0.12 -1.84009,0.08002c-0.59998,0.17999 -1.12988,0.52002 -1.58997,1.01001z"/>
   <path id="svg_66" d="m324.9707,325.65002l5.83997,6.03998l-0.5,0.48004l-3.48999,-3.61005l0.55005,6.45001l-0.59998,0.58002l-0.42004,-4.79999l-5.80005,-0.87l0.66003,-0.63l5.08997,0.78998l-0.17993,-2.23999l-1.64001,-1.70001l0.48999,-0.48999z"/>
   <path id="svg_67" d="m316.35071,333.42999c0.45996,-0.40997 0.96997,-0.70001 1.51001,-0.88c0.54004,-0.17999 1.09998,-0.25 1.65002,-0.20996c0.55994,0.03998 1.08997,0.18994 1.60999,0.43994c0.52002,0.26001 0.97998,0.62006 1.39001,1.08002c0.40991,0.47003 0.70996,0.98004 0.89001,1.52002c0.17993,0.54999 0.26001,1.09998 0.21997,1.64996c-0.04004,0.56006 -0.18005,1.09003 -0.44006,1.61005c-0.25,0.51001 -0.60999,0.96997 -1.07996,1.38c-0.45996,0.39996 -0.95996,0.69 -1.51001,0.87c-0.54004,0.17999 -1.09998,0.25 -1.66003,0.20996c-0.55994,-0.03998 -1.09998,-0.19 -1.62,-0.44c-0.52002,-0.25 -0.96997,-0.60999 -1.38,-1.06995c-0.40991,-0.47003 -0.69995,-0.97003 -0.89001,-1.52002c-0.17993,-0.54999 -0.25989,-1.10004 -0.21997,-1.66003c0.04004,-0.56 0.18005,-1.09998 0.43005,-1.60999c0.28003,-0.50995 0.64001,-0.96997 1.09998,-1.37zm0.43994,0.5c-0.51001,0.44 -0.87,0.96002 -1.07996,1.56c-0.21008,0.59003 -0.26001,1.21002 -0.14001,1.84003c0.12,0.63 0.41992,1.22998 0.91992,1.78998c0.48999,0.56 1.04004,0.94 1.65002,1.15002s1.21997,0.23999 1.83997,0.10999c0.62012,-0.13 1.18005,-0.41998 1.68005,-0.85999c0.51001,-0.44 0.87,-0.96002 1.07996,-1.55005c0.21008,-0.59998 0.26001,-1.20996 0.14001,-1.83997c-0.12,-0.63 -0.42993,-1.22998 -0.91992,-1.78998c-0.48999,-0.56006 -1.04004,-0.94 -1.65002,-1.15002c-0.60999,-0.21002 -1.22998,-0.23999 -1.83997,-0.10999c-0.60999,0.13 -1.17004,0.40997 -1.68005,0.84998z"/>
   <path id="svg_68" d="m312.30066,337.13l0.37,0.46002l0.25,4.54999l4.19995,1.14001l0.37,0.45996l-4.1499,3.29004l-0.40002,-0.51001l3.45996,-2.75l-4.08997,-1.10004l-0.25,-4.51996l-3.65002,2.88995l-0.40002,-0.50995l4.29004,-3.40002z"/>
   <path id="svg_69" d="m217.83069,375.73999c0.60999,-0.06 1.19,0 1.73999,0.16998c0.54999,0.17004 1.04004,0.42999 1.47003,0.79004c0.42999,0.35999 0.77997,0.78998 1.04999,1.29999c0.27002,0.51001 0.42999,1.07001 0.48999,1.69c0.06,0.62 0,1.20996 -0.15997,1.76001s-0.43005,1.03998 -0.78003,1.46997c-0.34998,0.42999 -0.78998,0.78003 -1.28998,1.04999c-0.51001,0.27002 -1.07001,0.42999 -1.67999,0.48999c-0.61005,0.06 -1.19,0 -1.73004,-0.16998c-0.54999,-0.16998 -1.03998,-0.44 -1.46997,-0.79999c-0.42999,-0.35999 -0.78003,-0.78998 -1.06,-1.29999c-0.27002,-0.51001 -0.44,-1.06 -0.5,-1.67004c-0.06,-0.62 0,-1.19995 0.16998,-1.75c0.16998,-0.54999 0.42999,-1.03998 0.78998,-1.46997s0.79004,-0.78003 1.29004,-1.04999c0.5,-0.28998 1.06,-0.45001 1.66998,-0.51001zm0.06,0.67004c-0.66998,0.06 -1.26001,0.28003 -1.77997,0.63c-0.52002,0.35999 -0.91003,0.83002 -1.18005,1.41998c-0.26996,0.58002 -0.37,1.25 -0.29999,1.98999c0.07001,0.74005 0.29999,1.37 0.66998,1.89001c0.38,0.52002 0.85004,0.91003 1.43005,1.16998s1.19995,0.35004 1.87,0.29004c0.66998,-0.06 1.26001,-0.28003 1.77997,-0.63c0.52002,-0.35999 0.91003,-0.83002 1.17999,-1.41998c0.27002,-0.59003 0.37,-1.25 0.30005,-1.99005s-0.30005,-1.37 -0.67004,-1.88995c-0.38,-0.52002 -0.84998,-0.91003 -1.42999,-1.16003c-0.57996,-0.27002 -1.19995,-0.35999 -1.87,-0.29999z"/>
   <path id="svg_70" d="m212.35071,376.38l0.03003,0.59003l-2.46002,3.83997l2.75,3.38l0.02997,0.59003l-5.28998,0.25l-0.02997,-0.65002l4.40997,-0.21002l-2.67999,-3.27997l2.42999,-3.82001l-4.65002,0.21997l-0.02997,-0.64996l5.48999,-0.26001z"/>
   <path id="svg_71" d="m203.39069,376.70001l0.08002,7.75l2.47998,-0.02997l0.01001,0.64996l-5.66003,0.06l-0.00995,-0.64996l2.47998,-0.03003l-0.08002,-7.75l0.70001,0z"/>
   <path id="svg_72" d="m198.68073,376.72003l-0.23999,8.40002l-2.71002,-0.08002c-0.57001,-0.02002 -1.06,-0.13 -1.48999,-0.33002c-0.41998,-0.20001 -0.75,-0.48999 -0.97998,-0.84998c-0.23004,-0.37 -0.34003,-0.80005 -0.33002,-1.30005c0.02002,-0.76996 0.28998,-1.34998 0.79999,-1.75c0.51001,-0.38995 1.23004,-0.56995 2.15002,-0.54999l2,0.06l0.09998,-3.62l0.70001,0.02002zm-0.81,4.25l-2.09003,-0.06c-0.66998,-0.02002 -1.19,0.10999 -1.56,0.39001c-0.37,0.27997 -0.56995,0.69995 -0.57996,1.25c-0.01001,0.53998 0.15997,0.97998 0.51996,1.31c0.36005,0.32996 0.87,0.51001 1.52002,0.52997l2.09998,0.06l0.09003,-3.47998z"/>
   <path id="svg_73" d="m191.42072,376.45001l-0.48999,8.39001l-0.70001,-0.04004l0.48999,-8.38995l0.70001,0.03998z"/>
   <path id="svg_74" d="m189.38074,376.36005l-4.12,8.06l-0.59998,-0.04999l-2.77002,-8.67999l0.77997,0.07001l0.75,2.38l4.09003,0.37l1.10999,-2.21002l0.76001,0.06zm-2.18005,2.76996l-3.57001,-0.32001l1.45001,4.56l2.12,-4.23999z"/>
   <path id="svg_75" d="m93.2807,339.39001l-5.25,6.56l-3.40997,-2.72998l0.40997,-0.51001l2.87,2.28998l4.84003,-6.04999l0.53998,0.44z"/>
   <path id="svg_76" d="m89.45068,336.33002l-8.06,4.13l-0.45001,-0.39001l2.83002,-8.65997l0.59003,0.51001l-0.78003,2.37l3.09998,2.69l2.20001,-1.14001l0.57001,0.48999zm-3.38995,0.97998l-2.71002,-2.34998l-1.48999,4.54999l4.20001,-2.20001z"/>
   <path id="svg_77" d="m82.79071,330.48999l-5.77002,6.10999l-1.96997,-1.85999c-0.41003,-0.39001 -0.71002,-0.79999 -0.89001,-1.23999s-0.23999,-0.87 -0.16998,-1.29004c0.07001,-0.42999 0.27997,-0.81995 0.62,-1.17999c0.52997,-0.56 1.12,-0.82001 1.76001,-0.76996c0.63995,0.04999 1.29999,0.38995 1.96997,1.01996l1.46002,1.38l2.48999,-2.63l0.5,0.46002zm-3.44,2.63l-1.52002,-1.42999c-0.48999,-0.46002 -0.95996,-0.71002 -1.42999,-0.75c-0.46997,-0.03998 -0.89001,0.14001 -1.26996,0.53998c-0.37006,0.39001 -0.53003,0.83002 -0.48004,1.32001s0.31,0.96002 0.78003,1.40002l1.52997,1.44l2.39001,-2.52002z"/>
   <path id="svg_78" d="m77.56073,325.53003l-6.07001,5.81l-0.46997,-0.48999l1.63995,-6.46002l-6.45996,1.41998l-0.45001,-0.46997l6.07001,-5.81l0.47998,0.5l-5.10999,4.89001l5.79999,-1.21002l0.44,0.46002l-1.48999,5.85999l5.17999,-4.95001l0.44,0.45001z"/>
   <path id="svg_79" d="m70.29071,317.79999l-6.38,5.46997l-4.04999,-4.71997l6.38,-5.46997l0.45001,0.52997l-5.89001,5.04999l3.14001,3.66003l5.88995,-5.04004l0.46002,0.52002z"/>
   <path id="svg_80" d="m64.79071,311.31l-6.64001,5.15002l-0.42999,-0.55005l2.82001,-2.19l-2.96002,-3.81l-2.82001,2.18005l-0.42999,-0.55005l6.64001,-5.14996l0.42999,0.54999l-3.31,2.57001l2.96002,3.81l3.31,-2.57001l0.42999,0.56z"/>
   <path id="svg_81" d="m59.99072,305.04999l-0.47998,0.34003l-4.56,0l-1.37006,4.12994l-0.47998,0.34003l-3.06,-4.32001l0.53003,-0.38l2.54999,3.60004l1.32001,-4.03003l4.52997,0l-2.69,-3.79999l0.53003,-0.37l3.17999,4.48999z"/>
   <path id="svg_82" d="m29.20068,233.86005l-8.27997,1.40997l-1.04004,-6.12994l8.28003,-1.41003l0.12,0.69l-7.64001,1.29999l0.81,4.76001l7.64001,-1.29999l0.10999,0.67999z"/>
   <path id="svg_83" d="m27.55072,221.64001c0.07001,0.60999 0.02997,1.19 -0.13,1.75c-0.15997,0.54999 -0.40997,1.04999 -0.76001,1.47998c-0.34998,0.44 -0.76996,0.80005 -1.27997,1.08002c-0.5,0.28003 -1.06,0.46002 -1.67999,0.53003c-0.62006,0.06995 -1.21002,0.02997 -1.76001,-0.13c-0.54999,-0.16003 -1.04999,-0.41003 -1.48999,-0.75c-0.44,-0.34003 -0.80005,-0.77002 -1.08002,-1.27002c-0.28003,-0.5 -0.46002,-1.06 -0.53003,-1.66998c-0.07001,-0.61005 -0.02997,-1.19 0.14001,-1.73999c0.16003,-0.55005 0.41998,-1.04004 0.77002,-1.48004c0.34998,-0.44 0.77997,-0.79999 1.27997,-1.07996c0.5,-0.28003 1.04999,-0.46002 1.66003,-0.53003c0.62,-0.07001 1.20001,-0.03003 1.75,0.13c0.54999,0.15997 1.04999,0.40997 1.48999,0.76001s0.79999,0.76996 1.08002,1.26996c0.29999,0.49005 0.46997,1.05005 0.53998,1.65002zm-0.66998,0.08002c-0.08002,-0.66998 -0.29999,-1.26001 -0.66998,-1.77002c-0.37,-0.51001 -0.85004,-0.89996 -1.44,-1.15997c-0.59003,-0.26001 -1.25,-0.34003 -1.98999,-0.26001c-0.74005,0.08002 -1.37,0.32001 -1.88,0.71002c-0.51001,0.38995 -0.89001,0.87 -1.13,1.45996s-0.32001,1.21002 -0.25,1.87c0.07996,0.67004 0.29999,1.26001 0.66998,1.77002c0.37,0.51001 0.84998,0.89001 1.44,1.15997c0.59003,0.26001 1.25,0.35004 1.98999,0.26001c0.73999,-0.08997 1.37,-0.32001 1.88,-0.70996c0.51001,-0.39001 0.89001,-0.88 1.14001,-1.46002c0.23999,-0.58002 0.31995,-1.20001 0.23999,-1.87z"/>
   <path id="svg_84" d="m26.62073,213.58002l-3.73999,0.25l-4.44,3.29999l-0.06,-0.83997l3.78998,-2.78003l-4.13,-2.21997l-0.06,-0.81l4.85004,2.66998l3.73999,-0.25l0.04999,0.67999z"/>
   <path id="svg_85" d="m26.31073,208.58002l-8.40002,0.19l-0.00995,-0.59998l6.93994,-5.18005l-7.04999,0.17004l-0.01996,-0.70001l8.39996,-0.20001l0.01001,0.60004l-7.01001,5.17999l7.13,-0.17004l0.01001,0.71002z"/>
   <path id="svg_86" d="m26.18073,199.98004l-8.40002,-0.17999l0.11005,-4.94l0.64996,0.01001l-0.08997,4.25l2.97998,0.06l0.08002,-3.77002l0.64996,0.01001l-0.07996,3.77002l3.47998,0.06995l0.09003,-4.27997l0.64996,0.01001l-0.12,4.98999z"/>
   <path id="svg_87" d="m26.37073,192.98004l-8.38,-0.56l0.03998,-0.60004l7.37006,-4.53998l-7.04004,-0.46997l0.04999,-0.69l8.38,0.56l-0.03998,0.59998l-7.44,4.53003l7.10999,0.46997l-0.04999,0.70001z"/>
   <path id="svg_88" d="m27.20068,182.67999l-7.71002,-0.84998l-0.26996,2.46997l-0.64001,-0.07001l0.62,-5.63l0.64001,0.07001l-0.27002,2.47003l7.71002,0.84998l-0.08002,0.69z"/>
   <path id="svg_89" d="m27.75073,177.98999l-8.31,-1.23999l0.72998,-4.89001l0.64001,0.09998l-0.63,4.20001l2.94,0.44l0.56,-3.72998l0.64001,0.09998l-0.56,3.73004l3.44,0.50995l0.63,-4.23999l0.63995,0.10004l-0.71997,4.91998z"/>
   <path id="svg_90" d="m28.7207,171.67999l-0.58002,-0.10999l-3.15997,-3.29004l-3.92004,1.88l-0.57996,-0.10999l0.98999,-5.20001l0.64001,0.12l-0.82001,4.34003l3.82001,-1.84003l3.14001,3.26001l0.87,-4.57001l0.63995,0.12l-1.03998,5.40002z"/>
   <path id="svg_91" d="m62.21069,95.14001l-6.54999,-5.26001l0.42999,-0.53l6.62,0.78l-2.26001,-6.22l0.41003,-0.50998l6.54999,5.25998l-0.44,0.54001l-5.51001,-4.41998l1.96002,5.59l-0.40002,0.5l-6,-0.71002l5.59003,4.48001l-0.40002,0.5z"/>
   <path id="svg_92" d="m68.25073,87.68002l-4.01001,-8.12l0.40002,-0.45001l8.62,2.96002l-0.52002,0.57999l-2.35999,-0.82001l-2.72998,3.06l1.10999,2.21002l-0.51001,0.57999zm-0.92004,-3.39999l2.39001,-2.67999l-4.53003,-1.56l2.14001,4.23999z"/>
   <path id="svg_93" d="m66.94073,74.82001c-0.10999,0.10999 -0.23999,0.17001 -0.39001,0.17001c-0.15997,0.00998 -0.28998,-0.05002 -0.39996,-0.16c-0.11005,-0.11002 -0.17004,-0.24002 -0.17999,-0.39001s0.04999,-0.29001 0.15997,-0.39999c0.10999,-0.11002 0.23999,-0.17001 0.39001,-0.17001c0.15997,0 0.28998,0.05002 0.39996,0.16c0.11005,0.11002 0.17004,0.24002 0.17999,0.39999c0,0.14001 -0.06,0.27002 -0.15997,0.39001zm1.08997,-1.14999c-0.10999,0.11002 -0.23999,0.17001 -0.39001,0.17999c-0.15997,0 -0.28998,-0.04999 -0.39996,-0.16c-0.11005,-0.10999 -0.17004,-0.23999 -0.18005,-0.39999c0,-0.16 0.05005,-0.28998 0.16003,-0.39999c0.10999,-0.10999 0.23999,-0.16998 0.39001,-0.17999c0.15997,0 0.28998,0.04999 0.39996,0.16c0.11005,0.10999 0.17004,0.23999 0.17999,0.38998c0.00006,0.16 -0.05994,0.29001 -0.15997,0.41zm6.17999,7.44l-6.08997,-5.78l0.47998,-0.5l6.08997,5.78l-0.47998,0.5z"/>
   <path id="svg_94" d="m75.86072,79.36002l-0.41998,-0.42001l-0.75,-4.5l-4.29999,-0.65997l-0.42004,-0.42001l3.75,-3.73001l0.46002,0.46002l-3.13,3.12l4.19,0.63l0.76001,4.45999l3.29999,-3.29001l0.46002,0.46002l-3.90002,3.88998z"/>
   <path id="svg_95" d="m82.2807,73.11002l-5.26001,-5.69l-1.82001,1.69l-0.44,-0.48001l4.16003,-3.84998l0.44,0.47998l-1.82001,1.69l5.26001,5.69l-0.52002,0.47z"/>
   <path id="svg_96" d="m85.7807,69.93002l-5.46002,-6.38l2.06,-1.75998c0.42999,-0.37003 0.87,-0.62003 1.33002,-0.75c0.45001,-0.13 0.89001,-0.14001 1.29999,-0.03c0.42004,0.10999 0.79004,0.35999 1.11005,0.73999c0.5,0.59 0.69995,1.19998 0.57996,1.82999c-0.12,0.63 -0.51996,1.25 -1.22998,1.85001l-1.52002,1.30002l2.35004,2.75l-0.52002,0.44998zm-2.25,-3.70001l1.59003,-1.36002c0.50995,-0.42999 0.81,-0.87997 0.89996,-1.34s-0.04999,-0.89999 -0.40997,-1.31998c-0.35004,-0.41 -0.77002,-0.62003 -1.26001,-0.62003c-0.48999,0 -0.97998,0.21002 -1.47998,0.63l-1.60004,1.37l2.26001,2.64001z"/>
   <path id="svg_97" d="m94.43073,63.05002c-0.48999,0.38 -1.01001,0.63998 -1.56,0.79001c-0.56,0.14999 -1.10999,0.19 -1.65997,0.10999c-0.55005,-0.07001 -1.08002,-0.25 -1.58002,-0.54001c-0.5,-0.28998 -0.94,-0.66998 -1.32001,-1.16998c-0.38,-0.48999 -0.65002,-1.01999 -0.79999,-1.57001c-0.15002,-0.56 -0.19,-1.10999 -0.12,-1.66c0.07001,-0.54999 0.25,-1.07999 0.52997,-1.57999c0.29004,-0.5 0.66998,-0.94 1.16003,-1.31c0.47998,-0.37 1,-0.63 1.56,-0.78c0.54999,-0.15002 1.10999,-0.18002 1.66998,-0.11002c0.56,0.07001 1.09003,0.25 1.59003,0.54001c0.5,0.28 0.93994,0.66998 1.31,1.14999c0.37994,0.48999 0.63995,1.01001 0.78998,1.57001c0.15002,0.56 0.19,1.10999 0.12,1.66998s-0.25,1.08002 -0.53003,1.58002c-0.28998,0.5 -0.66998,0.92999 -1.15997,1.31zm-0.41003,-0.53c0.52997,-0.41 0.91998,-0.91 1.16998,-1.48999c0.25,-0.58002 0.33002,-1.19 0.25,-1.83002c-0.07996,-0.63998 -0.34998,-1.25 -0.81,-1.84c-0.45996,-0.59 -0.97998,-1 -1.58002,-1.23999c-0.59998,-0.24002 -1.20996,-0.31 -1.82996,-0.22c-0.62,0.09 -1.20001,0.34 -1.73004,0.75s-0.91998,0.91 -1.16998,1.48999c-0.25,0.58002 -0.33002,1.19 -0.25,1.83002c0.08002,0.63998 0.35004,1.25 0.81,1.84c0.46002,0.59 0.98004,1 1.58002,1.23999c0.59998,0.23999 1.21002,0.31 1.83002,0.22s1.20001,-0.34 1.72998,-0.75z"/>
   <path id="svg_98" d="m98.70068,59.60001l-0.33997,-0.48001l0.02997,-4.56l-4.12,-1.38998l-0.34003,-0.48001l4.33002,-3.04001l0.37,0.53l-3.62,2.53003l4.02002,1.34998l-0.02002,4.53l3.82001,-2.66998l0.37,0.53l-4.5,3.14999z"/>
  </g>
  <g id="svg_99">
   <path id="svg_100" d="m201.63074,8.91c-0.52002,0 -0.97998,-0.12 -1.40002,-0.35001c-0.41998,-0.22998 -0.76996,-0.54999 -1.06995,-0.95999s-0.52002,-0.88 -0.68005,-1.42001c-0.15997,-0.53998 -0.23999,-1.10999 -0.22998,-1.71997c0,-0.61002 0.08002,-1.19 0.23999,-1.73001c0.16003,-0.54001 0.38,-1.01001 0.67999,-1.42001c0.29004,-0.41 0.65002,-0.72998 1.07001,-0.95999c0.42004,-0.23001 0.88,-0.35001 1.40002,-0.35001c0.51001,0 0.97998,0.12 1.39001,0.35001c0.41998,0.23001 0.76996,0.54999 1.06995,0.95999c0.30005,0.41 0.52002,0.88 0.68005,1.42001s0.23999,1.10999 0.23999,1.73001c0,0.60999 -0.08002,1.17999 -0.23999,1.71997c-0.16003,0.54001 -0.39001,1.01001 -0.68005,1.42001c-0.29999,0.41 -0.64996,0.73001 -1.06995,0.95999c-0.43005,0.23001 -0.89008,0.35001 -1.40002,0.35001zm0,-0.68997c0.52002,0 0.97998,-0.14999 1.37,-0.45999c0.39001,-0.31003 0.70001,-0.75 0.91998,-1.31003c0.22003,-0.56998 0.33002,-1.22998 0.33002,-2s-0.10999,-1.42999 -0.33002,-2c-0.21997,-0.56 -0.52997,-1 -0.91998,-1.31c-0.39001,-0.31 -0.84998,-0.45999 -1.37,-0.45999c-0.52002,0 -0.97998,0.14999 -1.37,0.45999c-0.39001,0.31 -0.70001,0.75 -0.91998,1.31c-0.22003,0.56003 -0.33002,1.23001 -0.33002,2c0,0.77002 0.10999,1.43002 0.33002,2c0.21997,0.57001 0.52997,1 0.91998,1.31003c0.38995,0.30997 0.84998,0.45999 1.37,0.45999z"/>
   <path id="svg_101" d="m334.77075,61.92001l1.30994,-1.38998l-3.22998,-3.05002l0.42004,-0.44l6.62,-2.03998l0.57996,0.53998l-6.58997,2.01001l2.66003,2.5l1.45996,-1.54999l0.5,0.47l-1.45996,1.54999l1.06995,1.01001l-0.44995,0.47998l-1.07007,-1.00998l-1.30994,1.38998l-0.51001,-0.47z"/>
   <path id="svg_102" d="m338.73071,66.07001c-0.33997,-0.35001 -0.63,-0.73999 -0.85999,-1.17001c-0.22998,-0.42999 -0.37,-0.82999 -0.41003,-1.20999l0.67004,-0.22998c0.04993,0.35999 0.16992,0.72998 0.35999,1.10999c0.18994,0.38 0.42993,0.70999 0.69995,0.98999c0.51001,0.52002 1.06006,0.80002 1.63,0.84c0.57007,0.04001 1.09009,-0.16998 1.55005,-0.62997c0.29993,-0.29001 0.47998,-0.62003 0.54004,-0.97c0.06995,-0.36002 0.02991,-0.72 -0.11011,-1.08002c-0.13989,-0.37 -0.35999,-0.70999 -0.66992,-1.01999c-0.39001,-0.39001 -0.88,-0.70999 -1.5,-0.95999l-0.01001,-0.42001l3.17004,-2.51001l3.16992,3.18002l-0.46997,0.45999l-2.77002,-2.81l-2.33997,1.85001c0.54004,0.25 1,0.56 1.35999,0.91998c0.37,0.38 0.64001,0.80002 0.80005,1.25c0.15991,0.45999 0.18994,0.91 0.08997,1.37c-0.09998,0.46002 -0.33997,0.88 -0.72998,1.27002c-0.40002,0.39999 -0.8501,0.64999 -1.33008,0.75c-0.47998,0.10999 -0.96997,0.06998 -1.45996,-0.10001s-0.94995,-0.44 -1.38,-0.88z"/>
   <path id="svg_103" d="m394.29065,191.54999l0.59998,-0.28998c0.09998,0.71997 0.29004,1.35999 0.57007,1.88995c0.27991,0.54004 0.62,0.99005 1.02991,1.35004c0.41003,0.35999 0.8501,0.64001 1.33008,0.83997s0.97998,0.32001 1.47998,0.36005c-0.44006,-0.23004 -0.80005,-0.56 -1.07007,-0.98004c-0.2699,-0.41998 -0.41992,-0.89996 -0.43994,-1.42999c-0.02002,-0.52997 0.07996,-1.01001 0.29004,-1.45996c0.20996,-0.44 0.52002,-0.80005 0.91992,-1.07001c0.40002,-0.27002 0.87,-0.42004 1.40002,-0.44c0.52002,-0.02002 0.98999,0.08997 1.42004,0.32996c0.42993,0.24005 0.77002,0.58002 1.03003,1.03003s0.40991,0.95001 0.42993,1.52997c0.02002,0.61005 -0.08997,1.15002 -0.32996,1.63c-0.25,0.48004 -0.62,0.87 -1.12,1.15002c-0.5,0.28998 -1.12,0.45001 -1.87,0.47998c-0.7301,0.03003 -1.41003,-0.07001 -2.03003,-0.29999s-1.19006,-0.57001 -1.68005,-1.01001c-0.48999,-0.44 -0.90991,-0.96997 -1.23999,-1.58997c-0.33997,-0.59998 -0.57996,-1.27997 -0.71997,-2.02002zm4.21008,1.86005c0.02002,0.41998 0.12,0.79999 0.30994,1.13s0.45007,0.59003 0.77002,0.77997c0.32007,0.19 0.67004,0.27002 1.06006,0.26001c0.40002,-0.01996 0.75,-0.12 1.04004,-0.32996c0.29993,-0.20001 0.52991,-0.48004 0.68994,-0.82001c0.16003,-0.34003 0.22998,-0.73999 0.20996,-1.17004c-0.02002,-0.44 -0.12,-0.81995 -0.30994,-1.14996c-0.19006,-0.33002 -0.44006,-0.59003 -0.75,-0.77002c-0.31006,-0.17999 -0.67004,-0.26001 -1.07007,-0.23999c-0.39001,0.02002 -0.72998,0.13 -1.02991,0.34003c-0.30005,0.20996 -0.54004,0.48999 -0.70007,0.83997c-0.16003,0.33002 -0.23999,0.70996 -0.21997,1.13z"/>
   <path id="svg_104" d="m394.54065,201.56c0,-0.52002 0.12,-0.97998 0.34998,-1.40002s0.55005,-0.76996 0.96008,-1.06995c0.40991,-0.29004 0.88989,-0.52002 1.41992,-0.68005c0.54004,-0.15997 1.10999,-0.22998 1.71997,-0.23999c0.61011,0 1.19006,0.08002 1.7301,0.23999c0.53992,0.16003 1.00989,0.38 1.41992,0.68005s0.72998,0.64996 0.96008,1.06995c0.22998,0.42004 0.34998,0.88 0.34998,1.40002c0,0.51001 -0.12,0.97998 -0.34998,1.39001c-0.2301,0.41998 -0.55005,0.76996 -0.96008,1.07001c-0.41003,0.29999 -0.88,0.51996 -1.41992,0.67999c-0.54004,0.15997 -1.11011,0.23999 -1.7301,0.23999c-0.60999,0 -1.17993,-0.08002 -1.71997,-0.23999c-0.54004,-0.16003 -1.01001,-0.39001 -1.41992,-0.67999c-0.41003,-0.30005 -0.7301,-0.65002 -0.96008,-1.07001c-0.22986,-0.40997 -0.34998,-0.87 -0.34998,-1.39001zm0.68005,0c0,0.52002 0.16003,0.97998 0.45996,1.37c0.31006,0.40002 0.75,0.70001 1.31006,0.91998c0.56995,0.22003 1.22998,0.33002 2,0.33002s1.42993,-0.10999 2,-0.33002c0.55994,-0.21997 1,-0.52997 1.30994,-0.91998c0.31006,-0.39001 0.46008,-0.84998 0.46008,-1.37c0,-0.52002 -0.16003,-0.97998 -0.46008,-1.37s-0.75,-0.70001 -1.30994,-0.91998s-1.22998,-0.33002 -2,-0.33002c-0.76001,0 -1.43005,0.10999 -2,0.33002c-0.56006,0.21997 -1,0.52997 -1.31006,0.91998c-0.29993,0.39001 -0.45996,0.85004 -0.45996,1.37z"/>
   <path id="svg_105" d="m342.88074,333.38l5.75,5.34998l1.01001,-2.45996l0.52002,0.22998l-1.31006,3.28003l-0.03992,0.03998l-6.39001,-5.94l0.45996,-0.5z"/>
   <path id="svg_106" d="m339.10071,337.06c0.34998,-0.34998 0.72998,-0.64001 1.16003,-0.88c0.42993,-0.22998 0.82996,-0.38 1.18994,-0.42999l0.25,0.66998c-0.35999,0.04999 -0.72998,0.17999 -1.10999,0.38s-0.70996,0.44 -0.97998,0.71002c-0.5,0.5 -0.76001,1.02997 -0.80005,1.58002s0.16003,1.03998 0.59009,1.45996c0.42993,0.42999 0.91992,0.60004 1.46997,0.53003c0.54993,-0.07001 1.08997,-0.38 1.60999,-0.91003c0.22998,-0.22998 0.44995,-0.5 0.64001,-0.81l0.54993,0.19l-0.0199,4.35999l2.95996,-3l0.46997,0.46002l-3.65002,3.69l-0.42993,-0.42999l0.03992,-4.22998c-0.3999,0.45996 -0.84998,0.81995 -1.32996,1.07996c-0.48999,0.25 -0.97998,0.35004 -1.46997,0.31c-0.48999,-0.04999 -0.95996,-0.27997 -1.38,-0.69995c-0.38,-0.38 -0.63,-0.80005 -0.72998,-1.27002c-0.09998,-0.47003 -0.07007,-0.94 0.08997,-1.41998c0.17004,-0.47003 0.45996,-0.91998 0.88,-1.34003z"/>
   <path id="svg_107" d="m334.11072,341.94c0.35999,-0.33997 0.76001,-0.62 1.18994,-0.83002c0.44006,-0.21997 0.84009,-0.34998 1.21008,-0.38l0.21997,0.68005c-0.35999,0.03998 -0.72998,0.14996 -1.12,0.32996c-0.39001,0.19 -0.71997,0.41003 -1.01001,0.67999c-0.53003,0.5 -0.82996,1.04004 -0.88,1.61005s0.15002,1.08997 0.58997,1.56c0.28003,0.29999 0.6001,0.48999 0.96008,0.56c0.34998,0.07001 0.70996,0.04999 1.07996,-0.08002c0.37,-0.13 0.70996,-0.34003 1.04004,-0.65002c0.40002,-0.38 0.72998,-0.87 0.98999,-1.46997l0.41992,0l2.43005,3.22998l-3.25,3.10004l-0.44995,-0.48004l2.87,-2.69995l-1.79004,-2.39001c-0.26001,0.53998 -0.57996,0.97998 -0.95996,1.33997c-0.39001,0.36005 -0.81006,0.62 -1.27002,0.77002c-0.45996,0.14996 -0.92004,0.16998 -1.38,0.06c-0.45996,-0.10999 -0.87,-0.35999 -1.25,-0.76001c-0.39001,-0.40997 -0.63,-0.85999 -0.71997,-1.34998s-0.05005,-0.97003 0.13,-1.46002c0.19995,-0.51001 0.50989,-0.95996 0.94995,-1.37z"/>
   <path id="svg_108" d="m206.13074,394.73004l0.19,7.85999l2.46997,-1l0.20001,0.53003l-3.26001,1.34998l-0.06,0l-0.20996,-8.71997l0.66998,-0.02002z"/>
   <path id="svg_109" d="m200.32068,394.58002c0.59003,0 1.10999,0.12 1.54999,0.35999c0.44,0.23004 0.78003,0.54004 1.02002,0.92999c0.23999,0.39001 0.35999,0.82001 0.34998,1.30005c0,0.51996 -0.14996,0.94995 -0.44,1.29999s-0.69,0.60999 -1.20996,0.79999c0.35999,0.14001 0.67999,0.37 0.94,0.70001c0.25995,0.32996 0.38995,0.73999 0.38995,1.22998c0,0.45001 -0.12,0.84003 -0.34998,1.19c-0.22998,0.34998 -0.54999,0.62 -0.95001,0.82001c-0.39996,0.20001 -0.85999,0.28998 -1.38,0.28998c-0.51996,0 -0.98999,-0.10999 -1.38995,-0.31c-0.40002,-0.20001 -0.72003,-0.47998 -0.94,-0.82996c-0.23004,-0.35004 -0.34003,-0.75 -0.33002,-1.19c0,-0.49005 0.14001,-0.90002 0.40997,-1.22003s0.58002,-0.54999 0.95001,-0.69c-0.48999,-0.20001 -0.87,-0.46997 -1.15997,-0.82001c-0.29004,-0.34998 -0.42999,-0.77997 -0.42004,-1.29999c0,-0.47998 0.13,-0.90997 0.37,-1.28998c0.24005,-0.39001 0.58002,-0.69 1.03003,-0.92004c0.44,-0.23999 0.96002,-0.34998 1.56,-0.34998zm0,0.69c-0.39001,0 -0.75,0.06 -1.08002,0.20001c-0.32996,0.13 -0.59998,0.32996 -0.79999,0.59998c-0.20001,0.27002 -0.31,0.60004 -0.31,1c0,0.39001 0.09003,0.72998 0.28003,1c0.19,0.27002 0.44995,0.47998 0.77997,0.62c0.33002,0.14001 0.70001,0.22003 1.10999,0.22003c0.63,0 1.16003,-0.15002 1.57001,-0.46002c0.41003,-0.31 0.62,-0.76001 0.63,-1.35999c0,-0.40002 -0.08997,-0.72998 -0.28998,-1.01001c-0.19,-0.27002 -0.46002,-0.47998 -0.79004,-0.62c-0.33997,-0.12 -0.69995,-0.19 -1.09998,-0.19zm-0.04999,4.33002c-0.57001,0 -1.03998,0.13 -1.40002,0.40002c-0.37,0.26996 -0.54999,0.64996 -0.54999,1.12c0,0.47998 0.16998,0.88 0.53003,1.19995c0.34998,0.32001 0.82001,0.49005 1.39996,0.49005c0.58002,0 1.04999,-0.15002 1.41003,-0.47003c0.35999,-0.32001 0.53998,-0.70996 0.54999,-1.19c0,-0.47998 -0.17999,-0.84998 -0.53998,-1.13c-0.37,-0.27002 -0.83002,-0.40997 -1.40002,-0.41998z"/>
   <path id="svg_110" d="m192.55072,394.37c0.52002,0.02002 0.97998,0.15002 1.39001,0.40002c0.40997,0.25 0.75,0.57996 1.02997,1c0.28003,0.41998 0.48999,0.89996 0.63,1.44995c0.14001,0.54004 0.20001,1.12006 0.16998,1.73004c-0.01996,0.60999 -0.12,1.19 -0.29999,1.71997c-0.16998,0.53003 -0.41998,1 -0.72998,1.39001c-0.31,0.40002 -0.67999,0.71002 -1.09998,0.91998s-0.90002,0.32001 -1.41003,0.29999c-0.51001,-0.01996 -0.96997,-0.14996 -1.38,-0.39996c-0.40997,-0.25 -0.75,-0.58002 -1.02997,-1c-0.28003,-0.41998 -0.49005,-0.90002 -0.63,-1.44c-0.14001,-0.53998 -0.20001,-1.12 -0.17999,-1.72998c0.01996,-0.61005 0.12,-1.18005 0.29999,-1.71002c0.17999,-0.53003 0.41998,-1 0.72998,-1.40002c0.31,-0.39996 0.67999,-0.70996 1.10004,-0.91998c0.42993,-0.22998 0.89996,-0.32996 1.40997,-0.31zm-0.03003,0.67999c-0.52002,-0.02002 -0.97998,0.12 -1.39001,0.41998c-0.40997,0.29004 -0.72998,0.72003 -0.96997,1.28003c-0.23999,0.56 -0.37,1.21997 -0.40002,1.97998c-0.02997,0.76001 0.06,1.42999 0.26001,2.01001c0.20001,0.57001 0.48999,1.02002 0.88,1.34003c0.38,0.31995 0.83002,0.48999 1.34998,0.50995c0.52002,0.02002 0.98004,-0.12 1.39001,-0.40997s0.72998,-0.72003 0.97003,-1.28003c0.23999,-0.56 0.37,-1.21997 0.39996,-1.97998c0.03003,-0.76001 -0.06,-1.42999 -0.26001,-2.01001c-0.20001,-0.57001 -0.48999,-1.01996 -0.87,-1.33997c-0.37994,-0.33002 -0.83997,-0.5 -1.35999,-0.52002z"/>
   <path id="svg_111" d="m69.27069,342.20001l-0.42999,0.45001l-2.57001,-0.04999c-0.83002,-0.02002 -1.54999,-0.01001 -2.14001,0.02997c-0.58997,0.04004 -1.08997,0.12 -1.48999,0.26001c-0.40002,0.13 -0.73999,0.34003 -1.01001,0.60999c-0.39001,0.40002 -0.54999,0.85004 -0.5,1.35004c0.04999,0.5 0.32001,0.98999 0.81,1.45996c0.27002,0.26001 0.57001,0.48004 0.91003,0.64001c0.32996,0.16003 0.64996,0.23999 0.95996,0.23999l-0.14996,0.59003c-0.81,-0.04004 -1.56,-0.39001 -2.25,-1.06c-0.39001,-0.38 -0.67004,-0.79004 -0.83002,-1.22003c-0.15997,-0.42999 -0.20001,-0.87 -0.10999,-1.28998c0.07996,-0.42999 0.29999,-0.82001 0.65997,-1.17999c0.25,-0.26001 0.54999,-0.47003 0.91003,-0.63c0.35999,-0.16998 0.82996,-0.28003 1.41998,-0.35999c0.58997,-0.07001 1.34998,-0.10004 2.28998,-0.07001l2.42004,0.07001l-3.28003,-3.17999l0.46002,-0.47003l3.91998,3.81z"/>
   <path id="svg_112" d="m64.2207,337.27002l-0.45001,0.42999l-2.57001,-0.14001c-0.82996,-0.04999 -1.54999,-0.06 -2.13995,-0.04999c-0.59003,0.02002 -1.09003,0.08002 -1.5,0.21002s-0.75,0.31 -1.03003,0.57996c-0.39996,0.38 -0.58997,0.83002 -0.54999,1.33002c0.03998,0.5 0.28998,1 0.76001,1.48999c0.26001,0.27002 0.54999,0.5 0.88,0.67004c0.32001,0.17999 0.63995,0.26996 0.94995,0.26996l-0.16998,0.58002c-0.81,-0.07001 -1.54999,-0.45001 -2.20996,-1.14001c-0.38,-0.38995 -0.64001,-0.81 -0.78003,-1.25c-0.15002,-0.44 -0.16998,-0.87 -0.07001,-1.29999s0.33002,-0.81 0.70001,-1.15997c0.26001,-0.25 0.57001,-0.45001 0.92999,-0.60004c0.37,-0.14996 0.84003,-0.25 1.42999,-0.29999c0.59003,-0.04999 1.35004,-0.04999 2.29004,0.01001l2.40997,0.15997l-3.15997,-3.29999l0.47998,-0.46002l3.79999,3.97003z"/>
   <path id="svg_113" d="m57.95068,330.29004c0.33002,0.37 0.59003,0.77002 0.79999,1.21002c0.21002,0.44 0.32001,0.84998 0.35004,1.21997l-0.67999,0.20001c-0.03003,-0.35999 -0.13,-0.73999 -0.30005,-1.13c-0.16998,-0.39001 -0.38995,-0.72998 -0.64996,-1.02002c-0.48999,-0.54999 -1.02002,-0.84998 -1.58002,-0.91998c-0.57001,-0.07001 -1.09003,0.12 -1.58002,0.54999c-0.31,0.28003 -0.51001,0.59003 -0.58997,0.94c-0.08002,0.35004 -0.07001,0.71002 0.04999,1.09003c0.12,0.37 0.32001,0.71997 0.62,1.04999c0.37,0.40997 0.84998,0.75 1.45001,1.02997l-0.02002,0.42004l-3.28998,2.33997l-3.01001,-3.33997l0.48999,-0.44l2.62,2.94l2.42999,-1.73004c-0.52997,-0.27997 -0.96997,-0.60999 -1.31,-0.98999c-0.34998,-0.39996 -0.59998,-0.82996 -0.72998,-1.28998s-0.14001,-0.91998 -0.02002,-1.38c0.12,-0.45001 0.39001,-0.85999 0.79999,-1.22998c0.42004,-0.38 0.88,-0.61005 1.37006,-0.69c0.48999,-0.08002 0.96997,-0.02002 1.45996,0.16998c0.47003,0.21997 0.92004,0.54999 1.32001,1z"/>
   <path id="svg_114" d="m8.79071,209.19l-0.62,0.01001l-1.79999,-1.84003c-0.58002,-0.59998 -1.10004,-1.08997 -1.55005,-1.47998c-0.44995,-0.39001 -0.85999,-0.67999 -1.25,-0.85999c-0.37994,-0.19 -0.76996,-0.27002 -1.14996,-0.27002c-0.56,0.01001 -0.98999,0.22003 -1.31,0.60999c-0.31,0.40002 -0.46002,0.92999 -0.45001,1.61005c0.01001,0.38 0.07001,0.73999 0.20001,1.08997c0.12,0.35004 0.29999,0.63 0.52002,0.85004l-0.52002,0.31995c-0.54999,-0.59998 -0.84003,-1.37994 -0.85999,-2.33997c-0.01001,-0.53998 0.07996,-1.03003 0.26996,-1.45001s0.46002,-0.76001 0.83002,-1c0.35999,-0.23999 0.78998,-0.37 1.29999,-0.38c0.35999,-0.01001 0.72003,0.04999 1.09003,0.19c0.37,0.13 0.78998,0.38 1.26001,0.73999c0.46997,0.36005 1.02997,0.88 1.67999,1.54999l1.67999,1.74005l-0.10999,-4.56l0.65997,-0.02002l0.13,5.48999z"/>
   <path id="svg_115" d="m8.66071,201.87l-7.84003,-3.97998l-0.04999,4.41998l-0.65997,-0.01001l0.06,-5.20996l0.60999,0.00995l7.89001,3.98004l-0.01001,0.78998z"/>
   <path id="svg_116" d="m9.08069,192.60004c-0.02002,0.52002 -0.15002,0.97998 -0.40002,1.39001c-0.25,0.40997 -0.57996,0.75 -1,1.02997c-0.41998,0.28003 -0.89996,0.48999 -1.44995,0.62c-0.54004,0.14001 -1.12,0.19 -1.73004,0.17004c-0.60999,-0.02002 -1.19,-0.12 -1.71997,-0.30005c-0.53003,-0.17999 -0.98999,-0.41998 -1.39001,-0.72998c-0.40002,-0.31 -0.71002,-0.67999 -0.91998,-1.09998c-0.22003,-0.42999 -0.32001,-0.90002 -0.29999,-1.41003c0.01996,-0.51001 0.14996,-0.96997 0.39996,-1.38c0.25,-0.40997 0.58002,-0.75 1,-1.02997c0.41998,-0.28003 0.90002,-0.48999 1.44,-0.63c0.53998,-0.14001 1.12,-0.20001 1.72998,-0.17999c0.61005,0.01996 1.18005,0.12 1.71002,0.29999c0.53003,0.17999 1,0.41998 1.40002,0.72998s0.70996,0.67999 0.91998,1.10004c0.23004,0.43994 0.33002,0.90997 0.31,1.41998zm-0.67999,-0.03003c0.02002,-0.52002 -0.12,-0.97998 -0.40997,-1.39001c-0.29004,-0.40997 -0.72003,-0.72998 -1.28003,-0.96997c-0.56,-0.23999 -1.21997,-0.37 -1.97998,-0.40002c-0.76001,-0.02997 -1.42999,0.06 -2,0.26001c-0.57001,0.20001 -1.02002,0.48999 -1.34003,0.87c-0.32001,0.38 -0.5,0.83002 -0.51001,1.34998c-0.01996,0.52002 0.12,0.98004 0.41003,1.39001c0.28998,0.41003 0.71997,0.73004 1.27997,0.97003c0.56,0.23999 1.22003,0.37 1.98004,0.39996c0.75995,0.03003 1.42999,-0.06 2.00995,-0.26001c0.57001,-0.19995 1.02002,-0.48999 1.34003,-0.87c0.31,-0.37 0.48004,-0.82996 0.5,-1.34998z"/>
   <path id="svg_117" d="m60.83069,70.05002c-0.34003,0.35999 -0.71997,0.66 -1.14001,0.91c-0.41998,0.25 -0.82001,0.39999 -1.17999,0.45999l-0.26001,-0.66998c0.36005,-0.06003 0.72003,-0.19 1.10004,-0.40002c0.38,-0.20999 0.69995,-0.45999 0.95996,-0.73999c0.48004,-0.51999 0.73999,-1.04999 0.76001,-1.60001c0.02002,-0.54999 -0.19,-1.03 -0.63,-1.44998c-0.44,-0.41 -0.94,-0.58002 -1.48999,-0.49002c-0.54999,0.09 -1.08002,0.40002 -1.58997,0.95001c-0.22003,0.23999 -0.43005,0.51001 -0.62006,0.82001l-0.56,-0.17001l-0.08997,-4.35999l-2.88,3.06998l-0.47998,-0.44998l3.54999,-3.78l0.45001,0.41998l0.06,4.23001c0.38995,-0.48001 0.82996,-0.85001 1.31,-1.11002c0.47998,-0.25998 0.96997,-0.37997 1.45996,-0.34998c0.5,0.03 0.96002,0.25998 1.40002,0.66998c0.39001,0.37 0.65002,0.79001 0.76001,1.25c0.12,0.46002 0.09998,0.94 -0.04999,1.42001c-0.16003,0.48999 -0.42999,0.94 -0.84003,1.37z"/>
   <path id="svg_118" d="m65.2207,65.25003l-5.56,-5.55002l-1.09003,2.43002l-0.50995,-0.25l1.42999,-3.23001l0.03998,-0.04001l6.17999,6.16l-0.48999,0.48001z"/>
   <path id="svg_119" d="m69.11072,61.72003c-0.35999,0.34 -0.75,0.62 -1.19,0.84c-0.44,0.22 -0.84003,0.35001 -1.21002,0.38998l-0.21997,-0.67999c0.35999,-0.03998 0.72998,-0.14999 1.12,-0.34c0.39001,-0.19 0.71997,-0.41 1.01001,-0.67999c0.52997,-0.5 0.82001,-1.04001 0.87,-1.61002c0.04999,-0.56998 -0.15002,-1.09 -0.59003,-1.56c-0.27997,-0.29999 -0.59998,-0.48999 -0.95996,-0.56c-0.35004,-0.07001 -0.72003,-0.04999 -1.08002,0.08002c-0.37,0.13 -0.71002,0.34998 -1.03998,0.64999c-0.40002,0.38 -0.73004,0.87 -0.99005,1.47l-0.41998,0l-2.42999,-3.22l3.25,-3.10001l0.45001,0.48001l-2.87,2.70999l1.79999,2.38c0.26001,-0.54001 0.58002,-0.97998 0.95001,-1.34c0.39001,-0.37 0.81,-0.62 1.26996,-0.76999c0.46002,-0.15002 0.92004,-0.17001 1.37006,-0.06s0.87994,0.35999 1.25,0.75998c0.38995,0.41 0.62994,0.86002 0.71997,1.35001c0.09003,0.48999 0.04999,0.97 -0.13,1.45999c-0.16998,0.47998 -0.47998,0.92999 -0.92999,1.35001z"/>
  </g>
  <path id="svg_120" fill="#B3B3B3" d="m281.5907,112.45001c-21.15002,-18.97998 -49.10999,-30.53 -79.76001,-30.53c-32.20996,0 -61.44,12.75 -82.91998,33.47c0,0 -22.16998,-22.09 -22.16998,-22.09c27.14996,-26.41 64.21997,-42.67001 105.08997,-42.67001c39.27002,0 75.03003,15.01001 101.85999,39.62003c-0.01001,0 -22.09998,22.19998 -22.09998,22.19998z" class="st1"/>
  <path id="svg_121" fill="#B3B3B3" d="m113.96069,120.45001c-19.60999,21.28 -31.58997,49.71002 -31.58997,80.94c0,30.84003 11.67999,58.94 30.85999,80.14001c0,0 -22.10004,22.20001 -22.10004,22.20001c-24.85999,-26.88 -40.04999,-62.83002 -40.04999,-102.33002c0,-39.84003 15.46002,-76.08002 40.70001,-103.03c0,-0.02002 22.17999,22.07999 22.17999,22.07999z" class="st1"/>
  <path id="svg_122" fill="#B3B3B3" d="m118.63074,287.11005c21.51001,20.88 50.84998,33.72998 83.20001,33.72998c31.40997,0 59.97998,-12.12 81.29999,-31.92999c0,0 22.18994,22.08002 22.18994,22.08002c-27,25.51001 -63.41992,41.14001 -103.49994,41.14001c-40.96002,0 -78.09998,-16.33002 -105.27002,-42.85004c0,0.01001 22.08002,-22.16998 22.08002,-22.16998z" class="st1"/>
  <path id="svg_123" fill="#B3B3B3" d="m288.17065,283.94c20.52002,-21.45001 33.12,-50.52997 33.12,-82.56c0,-32.77997 -13.19995,-62.47 -34.57996,-84.06c0,0 22.06995,-22.17001 22.06995,-22.17001c27.07007,27.25 43.79004,64.79001 43.79004,106.23001c0,40.64001 -16.08008,77.52002 -42.21997,104.63c0,0 -22.18005,-22.07001 -22.18005,-22.07001z" class="st1"/>
  <path id="svg_124" d="m338.75073,199.81l-94.82001,-18.65002l53.87006,-80.21997l-80.23004,53.85999l-18.64001,-107.16998l-18.65002,107.16998l-80.21997,-53.85999l53.82001,80.21997l-94.82001,18.65002l94.82001,18.64001l-53.82001,80.22998l80.21997,-53.82001l18.65002,94.81l18.64001,-94.81l80.23004,53.82001l-53.87006,-80.22998l94.82001,-18.64001zm-139.71002,32.07001c-17.77002,0 -32.17999,-14.40997 -32.17999,-32.19c0,-17.77002 14.40997,-32.17999 32.17999,-32.17999c17.77997,0 32.19,14.40997 32.19,32.17999c0,17.78003 -14.41003,32.19 -32.19,32.19z"/>
 </g>
</svg>