<?xml version="1.0" encoding="utf-8"?>
<!-- Generator: Adobe Illustrator 27.0.0, SVG Export Plug-In . SVG Version: 6.00 Build 0)  -->
<svg version="1.1" id="Layer_1" xmlns="http://www.w3.org/2000/svg" xmlns:xlink="http://www.w3.org/1999/xlink" x="0px" y="0px"
	 viewBox="0 0 1366 768" style="enable-background:new 0 0 1366 768;" xml:space="preserve">
<style type="text/css">
	.st0{fill:none;stroke:#000000;stroke-linecap:round;stroke-linejoin:round;stroke-miterlimit:10;}
	.st1{fill:none;}
	.st2{fill:none;stroke:#000000;stroke-miterlimit:10;}
	.st3{fill:none;stroke:#000000;stroke-width:2;stroke-miterlimit:10;}
	.st4{opacity:0.7;}
	.st5{opacity:0.5;}
	.st6{opacity:0.15;}
	.st7{fill:none;stroke:#000000;stroke-width:6;stroke-linecap:round;stroke-linejoin:round;stroke-miterlimit:10;}
	.st8{fill:none;stroke:#000000;stroke-width:11;stroke-miterlimit:10;stroke-dasharray:0,2;}
	.st9{opacity:0.3;}
</style>
<line class="st0" x1="495.24" y1="385.68" x2="582.47" y2="385.53"/>
<line class="st0" x1="552.02" y1="256.06" x2="611.46" y2="315.28"/>
<path class="st0" d="M609.46,317.28"/>
<line class="st0" x1="681.4" y1="200.35" x2="681.57" y2="286.06"/>
<path class="st0" d="M678.57,286.06"/>
<line class="st0" x1="813.37" y1="253.09" x2="751.79" y2="314.96"/>
<path class="st0" d="M750.29,313.46"/>
<line class="st0" x1="870.36" y1="384.86" x2="781.01" y2="385.08"/>
<path class="st0" d="M781.01,387.08"/>
<line class="st0" x1="816.18" y1="519.08" x2="752.13" y2="455.37"/>
<path class="st0" d="M750.63,456.87"/>
<line class="st0" x1="682.22" y1="574.91" x2="682.02" y2="484.59"/>
<path class="st0" d="M680.02,484.59"/>
<line class="st0" x1="551.21" y1="516.38" x2="611.69" y2="455.64"/>
<path id="SVGID_x5F_1_x5F_" class="st1" d="M876.66,395.22c-4.25,106.52-94.05,189.42-200.57,185.16
	c-106.52-4.25-189.42-94.05-185.16-200.57c4.25-106.52,94.05-189.42,200.57-185.16S880.92,288.7,876.66,395.22z"/>
<text><textPath  xlink:href="#SVGID_x5F_1_x5F_" startOffset="98.5027%">
<tspan  style="font-family:'Geologica-Thin'; font-size:16px;">0                2               4                  6               8               10               12               14               16               18              20              22             26              28             30              32</tspan></textPath>
</text>
<circle class="st2" cx="683.22" cy="384.96" r="212.5"/>
<circle class="st2" cx="683.72" cy="384.46" r="228"/>
<circle class="st3" cx="682.72" cy="385.46" r="131"/>
<circle class="st2" cx="682.72" cy="385.46" r="126"/>
<path class="st4" d="M678.4,207.18c-46.92,0.98-89.38,20.07-120.69,50.55c0,0,30.67,30.55,30.67,30.55
	c23.39-22.78,55.35-37.17,90.34-38.14l-0.21,0.01l-0.09-42.97"/>
<path class="st5" d="M684.12,519.13c35.45-0.49,67.59-14.7,91.34-37.56c0,0,31.7,31.54,31.7,31.54
	c-31.76,31.14-75.1,50.5-122.97,51.02l-0.1-45"/>
<path class="st5" d="M680.1,519.13l0.1,45c-47.8-0.53-91.09-19.85-122.84-50.92c0,0,31.73-31.86,31.73-31.86
	c23.77,22.83,55.85,37.09,91.11,37.78"/>
<path class="st4" d="M503.72,387.68c0.53,47.65,19.74,90.82,50.64,122.53c0,0,31.71-31.85,31.71-31.85
	c-23.06-23.57-37.56-55.51-38.33-90.78l-44.02,0.08"/>
<path class="st4" d="M584.4,292.31c-22.39,23.71-36.26,56.18-36.69,91.28l-0.01-0.07l-44,0.13v0.48
	c0.55-47.29,19.5-90.77,50.01-122.4C553.72,261.74,584.4,292.31,584.4,292.31z"/>
<path class="st6" d="M684.57,250.16c35.39,0.61,67.44,14.89,91.12,37.78c0,0,30.54-30.68,30.54-30.68
	c-31.63-30.56-74.51-49.54-121.83-50.11l0.01,0l0.09,43.01"/>
<rect x="517.22" y="218.96" width="19" height="19"/>
<rect x="829.22" y="530.96" width="19" height="19"/>
<path d="M848.17,237.96h-18.89c-0.03,0-0.05-0.02-0.05-0.05v-18.89c0-0.03,0.02-0.05,0.05-0.05h18.89c0.03,0,0.05,0.02,0.05,0.05
	v18.89C848.22,237.93,848.2,237.96,848.17,237.96z"/>
<path d="M696.12,604.5l-13.36,13.36c-0.02,0.02-0.05,0.02-0.08,0l-13.36-13.36c-0.02-0.02-0.02-0.05,0-0.08l13.36-13.36
	c0.02-0.02,0.05-0.02,0.08,0l13.36,13.36C696.14,604.44,696.14,604.48,696.12,604.5z"/>
<path d="M696.12,163.5l-13.36,13.36c-0.02,0.02-0.05,0.02-0.08,0l-13.36-13.36c-0.02-0.02-0.02-0.05,0-0.08l13.36-13.36
	c0.02-0.02,0.05-0.02,0.08,0l13.36,13.36C696.14,163.44,696.14,163.48,696.12,163.5z"/>
<path d="M536.17,549.96h-18.89c-0.03,0-0.05-0.02-0.05-0.05v-18.89c0-0.03,0.02-0.05,0.05-0.05h18.89c0.03,0,0.05,0.02,0.05,0.05
	v18.89C536.22,549.93,536.2,549.96,536.17,549.96z"/>
<rect x="893.22" y="375.96" transform="matrix(0.7071 0.7071 -0.7071 0.7071 536.9614 -525.4229)" width="19" height="19"/>
<rect x="454.22" y="375.96" transform="matrix(0.7071 0.7071 -0.7071 0.7071 408.3813 -215.003)" width="19" height="19"/>
<circle class="st7" cx="683.21" cy="384.64" r="95.5"/>
<path class="st8" d="M593.36,564.28c-15.66-7.9-30.14-17.8-43.11-29.36"/>
<path class="st8" d="M669.31,585.15c-17.38-1.21-34.15-4.64-50.03-10.01"/>
<path class="st8" d="M746.8,575.42c-15.81,5.27-32.5,8.62-49.79,9.77"/>
<path class="st8" d="M814.3,536.99c-13.12,11.34-27.73,21-43.5,28.65"/>
<path class="st8" d="M863.03,474.11c-7.94,16.04-17.97,30.87-29.73,44.13"/>
<path class="st8" d="M883.25,399.1c-1.24,18.35-4.95,36.03-10.81,52.69"/>
<path class="st8" d="M872.83,320.12c5.63,16.33,9.2,33.62,10.42,51.56"/>
<path class="st8" d="M830.8,249.78c13.6,14.77,25,31.58,33.7,49.93"/>
<path class="st8" d="M767.43,203.55c15.92,7.37,30.72,16.76,44.05,27.86"/>
<path class="st8" d="M692.23,185.33c20.35,0.88,39.91,4.79,58.24,11.3"/>
<path class="st8" d="M616.46,196.63c17.87-6.34,36.9-10.22,56.69-11.22"/>
<path class="st8" d="M549.57,236.48c13.14-11.82,27.86-21.93,43.8-29.98"/>
<path class="st8" d="M504.15,296.15c7.36-14.77,16.5-28.5,27.13-40.91"/>
<path class="st8" d="M483.73,370.86c1.26-17.58,4.79-34.53,10.3-50.57"/>
<path class="st8" d="M493.17,447.95c-4.81-14.62-7.97-29.99-9.28-45.89"/>
<path class="st8" d="M532.05,516.46c-11.61-13.4-21.47-28.35-29.23-44.51"/>
<path class="st9" d="M860.69,382.86c-0.53-34.73-10.98-67.06-28.65-94.28l0,0l-36.26,23.96l0,0.01
	c12.98,20.4,20.61,44.54,20.92,70.44l43.99-0.11"/>
<path class="st6" d="M829.71,285.14l-36.22,23.93l0,0c-4.4-6.47-9.35-12.53-14.79-18.13c0,0,30.55-30.69,30.55-30.69
	c7.55,7.65,14.41,15.97,20.49,24.88"/>
<line class="st0" x1="799.84" y1="432" x2="857.41" y2="455.37"/>
<path class="st9" d="M816.69,386.88c-0.26,16.17-3.38,31.65-8.87,45.95c0,0,41.12,16.7,41.12,16.7
	c7.47-19.47,11.62-40.58,11.77-62.65l0,0l-44.02,0.11"/>
<path class="st0" d="M856.41,457.37"/>
<path class="st5" d="M810.16,510.11l-31.69-31.53c11.65-11.93,21.09-26.02,27.68-41.61c0,0,41.14,16.7,41.14,16.7
	C838.56,474.83,825.87,493.95,810.16,510.11z"/>
</svg>
