<svg width="480" height="470" xmlns="http://www.w3.org/2000/svg" xml:space="preserve" version="1.1">

 <g>
  <title>Layer 1</title>
  <line id="svg_1" stroke-miterlimit="10" stroke-linejoin="round" stroke-linecap="round" stroke="#000000" fill="none" y2="235.48498" x2="128.25" y1="235.63498" x1="41.01" class="st0"/>
  <line id="svg_2" stroke-miterlimit="10" stroke-linejoin="round" stroke-linecap="round" stroke="#000000" fill="none" y2="165.23498" x2="157.24" y1="106.01498" x1="97.8" class="st0"/>
  <path id="svg_3" stroke-miterlimit="10" stroke-linejoin="round" stroke-linecap="round" stroke="#000000" fill="none" d="m155.23999,167.23499" class="st0"/>
  <line id="svg_4" stroke-miterlimit="10" stroke-linejoin="round" stroke-linecap="round" stroke="#000000" fill="none" y2="136.01498" x2="227.35" y1="50.30498" x1="227.17" class="st0"/>
  <path id="svg_5" stroke-miterlimit="10" stroke-linejoin="round" stroke-linecap="round" stroke="#000000" fill="none" d="m224.34998,136.01498" class="st0"/>
  <line id="svg_6" stroke-miterlimit="10" stroke-linejoin="round" stroke-linecap="round" stroke="#000000" fill="none" y2="164.91498" x2="297.56" y1="103.04498" x1="359.15" class="st0"/>
  <path id="svg_7" stroke-miterlimit="10" stroke-linejoin="round" stroke-linecap="round" stroke="#000000" fill="none" d="m296.06006,163.41498" class="st0"/>
  <line id="svg_8" stroke-miterlimit="10" stroke-linejoin="round" stroke-linecap="round" stroke="#000000" fill="none" y2="235.03498" x2="326.78" y1="234.81498" x1="416.14" class="st0"/>
  <path id="svg_9" stroke-miterlimit="10" stroke-linejoin="round" stroke-linecap="round" stroke="#000000" fill="none" d="m326.78003,237.03497" class="st0"/>
  <line id="svg_10" stroke-miterlimit="10" stroke-linejoin="round" stroke-linecap="round" stroke="#000000" fill="none" y2="305.32498" x2="297.91" y1="369.04498" x1="361.95" class="st0"/>
  <path id="svg_11" stroke-miterlimit="10" stroke-linejoin="round" stroke-linecap="round" stroke="#000000" fill="none" d="m296.41003,306.82495" class="st0"/>
  <line id="svg_12" stroke-miterlimit="10" stroke-linejoin="round" stroke-linecap="round" stroke="#000000" fill="none" y2="334.54498" x2="227.8" y1="424.86498" x1="227.99" class="st0"/>
  <path id="svg_13" stroke-miterlimit="10" stroke-linejoin="round" stroke-linecap="round" stroke="#000000" fill="none" d="m225.79999,334.54498" class="st0"/>
  <line id="svg_14" stroke-miterlimit="10" stroke-linejoin="round" stroke-linecap="round" stroke="#000000" fill="none" y2="305.59498" x2="157.47" y1="366.33498" x1="96.99" class="st0"/>
  <g id="svg_15">
   <path id="svg_16" d="m228.28998,44.70499c-0.67999,0 -1.28998,-0.14999 -1.84003,-0.45001c-0.54999,-0.29999 -1.01996,-0.72 -1.40997,-1.25998c-0.39001,-0.54001 -0.69,-1.16 -0.90002,-1.86002c-0.20996,-0.69998 -0.31995,-1.44998 -0.31995,-2.25c0,-0.81 0.08997,-1.56 0.29999,-2.26999c0.20001,-0.70999 0.48999,-1.33002 0.88,-1.86002c0.38,-0.53998 0.84998,-0.95999 1.38995,-1.26999c0.54004,-0.31 1.16003,-0.45999 1.83002,-0.47c0.66998,0 1.28003,0.14999 1.83002,0.45001c0.53998,0.29999 1.01001,0.72 1.40997,1.25c0.39001,0.53 0.69,1.14999 0.91003,1.85001c0.20996,0.69998 0.32001,1.45999 0.32996,2.25998c0,0.80002 -0.09998,1.55002 -0.29999,2.26001c-0.20001,0.70999 -0.5,1.32999 -0.88,1.87c-0.38995,0.54001 -0.84998,0.95999 -1.38995,1.26999c-0.57001,0.32001 -1.16998,0.47 -1.84003,0.48001zm-0.00995,-0.89999c0.67999,0 1.28003,-0.20999 1.79999,-0.62c0.51001,-0.41 0.91003,-0.98001 1.20001,-1.73001c0.28003,-0.73999 0.41998,-1.62 0.41998,-2.62c-0.01001,-1 -0.15997,-1.87 -0.45001,-2.61002c-0.28998,-0.73999 -0.69995,-1.31 -1.21997,-1.70999c-0.52002,-0.39999 -1.12,-0.60001 -1.79999,-0.60001c-0.67999,0 -1.28003,0.21002 -1.79999,0.62c-0.52002,0.41 -0.92004,0.98001 -1.20001,1.73001c-0.28003,0.73999 -0.41998,1.62 -0.41998,2.62c0.00995,1 0.14996,1.87 0.44995,2.61002c0.29004,0.73999 0.70001,1.31 1.22003,1.70999s1.11993,0.60999 1.79999,0.60001z"/>
   <path id="svg_17" d="m298.70996,57.20499l0.31006,-0.76001l3.1499,-1.20999c1.02002,-0.38998 1.88,-0.76001 2.58008,-1.09c0.69995,-0.34 1.26001,-0.69 1.68994,-1.04999c0.42004,-0.36002 0.72998,-0.78 0.92004,-1.24002c0.27002,-0.67999 0.25,-1.31 -0.06006,-1.88998c-0.30994,-0.58002 -0.88,-1.04001 -1.70996,-1.38c-0.45996,-0.19 -0.93005,-0.30002 -1.42004,-0.33002c-0.47998,-0.03998 -0.90991,0.03 -1.28992,0.19l-0.10999,-0.78998c1.00989,-0.35001 2.08997,-0.29001 3.25989,0.17999c0.66003,0.26999 1.20007,0.63 1.61011,1.07999c0.40991,0.45001 0.66992,0.95001 0.77991,1.51001c0.10999,0.56 0.04004,1.14999 -0.20996,1.76001c-0.18005,0.44 -0.43994,0.84 -0.79004,1.22c-0.34998,0.37997 -0.87,0.75 -1.54993,1.12997c-0.68005,0.38 -1.59009,0.78003 -2.73999,1.22l-2.97009,1.11002l5.55005,2.25l-0.31995,0.79999l-6.68005,-2.70999z"/>
   <path id="svg_18" d="m362.33997,97.43497l1.70996,-1.82001l-4.25,-3.97998l0.55005,-0.58002l8.67004,-2.70999l0.76001,0.70999l-8.63,2.66l3.48999,3.26999l1.8999,-2.03l0.65002,0.61002l-1.90002,2.03l1.41003,1.32001l-0.58997,0.63l-1.41003,-1.32001l-1.70996,1.82001l-0.65002,-0.61002z"/>
   <path id="svg_19" d="m408.20996,165.04498c-0.31006,-0.75 -0.41003,-1.48999 -0.31995,-2.20001c0.08997,-0.72 0.38,-1.38 0.88,-1.97c0.5,-0.59 1.20996,-1.06998 2.12988,-1.44998c0.88,-0.36002 1.74011,-0.53 2.61011,-0.52002c0.87,0.01001 1.69995,0.19 2.51001,0.52002c0.80994,0.32999 1.54993,0.81 2.22998,1.42999c0.67993,0.62 1.27991,1.35999 1.77991,2.22l-0.60999,0.63c-0.59998,-1.14999 -1.30994,-2.02002 -2.13,-2.62c-0.81995,-0.60001 -1.66992,-0.97 -2.56995,-1.12c-0.89001,-0.14999 -1.75,-0.12 -2.57996,0.09c0.6499,0.10001 1.23999,0.35001 1.7699,0.76999c0.53003,0.42001 0.93005,0.95001 1.20007,1.61002c0.27002,0.66 0.37,1.31998 0.31995,1.97c-0.05994,0.64999 -0.27002,1.23999 -0.64001,1.75998c-0.37,0.52002 -0.88,0.91 -1.52991,1.18002c-0.66003,0.26999 -1.33008,0.34998 -1.98999,0.25c-0.67004,-0.10001 -1.27002,-0.37003 -1.81006,-0.81003c-0.52991,-0.44 -0.94995,-1.01999 -1.25,-1.73999zm0.8501,-0.35001c0.21997,0.54999 0.53003,0.98999 0.92004,1.32001c0.39001,0.32999 0.82996,0.54001 1.30994,0.63c0.47998,0.07999 0.96997,0.03 1.46997,-0.18002c0.48999,-0.19998 0.88,-0.5 1.16003,-0.90997c0.29004,-0.41 0.45996,-0.87003 0.51001,-1.39001c0.05005,-0.51999 -0.03003,-1.04001 -0.23999,-1.57001c-0.21997,-0.53 -0.52002,-0.95999 -0.92004,-1.28998c-0.3999,-0.33002 -0.83997,-0.54001 -1.32996,-0.64001c-0.48999,-0.09 -0.97998,-0.04001 -1.46997,0.16c-0.5,0.19998 -0.89001,0.5 -1.18005,0.89999c-0.29004,0.39999 -0.45996,0.85001 -0.5,1.37c-0.04004,0.53 0.04993,1.06 0.27002,1.60001z"/>
   <path id="svg_20" d="m422.27002,234.255c-0.01001,-0.77997 0.13,-1.46002 0.42004,-2.03998c0.28992,-0.58002 0.68994,-1.04004 1.18994,-1.36005c0.5,-0.32996 1.07007,-0.48999 1.69006,-0.5c0.67993,-0.00995 1.25,0.17004 1.70996,0.53003c0.45996,0.35999 0.81995,0.88 1.08997,1.54999c0.17004,-0.47998 0.46008,-0.89996 0.89001,-1.25c0.42004,-0.34998 0.95996,-0.53998 1.59998,-0.53998c0.58008,-0.01001 1.10999,0.13 1.57007,0.41998c0.45996,0.28998 0.82996,0.70001 1.09998,1.22003c0.27002,0.51996 0.41003,1.12 0.42004,1.79999c0.00989,0.69 -0.11011,1.29999 -0.37,1.82996c-0.25,0.53003 -0.61011,0.95001 -1.06006,1.26001c-0.44995,0.31 -0.96997,0.46002 -1.55005,0.47003c-0.63989,0.01001 -1.17993,-0.16003 -1.60999,-0.48999c-0.43994,-0.34003 -0.75,-0.75 -0.92993,-1.23004c-0.25,0.64001 -0.59009,1.16003 -1.04004,1.54004c-0.44995,0.38 -1.01001,0.57996 -1.68994,0.58997c-0.62,0.01001 -1.19006,-0.14001 -1.70007,-0.45001s-0.91992,-0.75 -1.22998,-1.31995c-0.33008,-0.56006 -0.48999,-1.24005 -0.5,-2.03003zm0.90002,-0.02002c0.01001,0.51001 0.10999,0.97998 0.29004,1.41998c0.17993,0.42999 0.45996,0.78003 0.81995,1.03003c0.35999,0.26001 0.80005,0.38 1.32007,0.38c0.5199,-0.01001 0.94995,-0.14001 1.30994,-0.40002c0.34998,-0.26001 0.62,-0.60999 0.79004,-1.03998c0.17993,-0.42999 0.26001,-0.91998 0.25,-1.46002c-0.01001,-0.83002 -0.22998,-1.51001 -0.65002,-2.04999c-0.42004,-0.53003 -1.02002,-0.78998 -1.80005,-0.78003c-0.52002,0.01001 -0.95996,0.14001 -1.30994,0.41003c-0.34998,0.26001 -0.60999,0.60999 -0.78003,1.04999c-0.17004,0.44 -0.25,0.91998 -0.23999,1.44zm5.66992,-0.07001c0.01001,0.75 0.19995,1.34998 0.56995,1.82001c0.37012,0.46997 0.86011,0.70001 1.49011,0.69c0.62,-0.01001 1.13989,-0.25 1.54993,-0.72003c0.41003,-0.46997 0.60999,-1.08997 0.59998,-1.84998c-0.01001,-0.76001 -0.22998,-1.37 -0.65991,-1.83002c-0.43005,-0.45996 -0.95007,-0.69 -1.58008,-0.67999c-0.62,0.01001 -1.10999,0.26001 -1.45996,0.73999c-0.34998,0.48004 -0.52002,1.09003 -0.51001,1.83002z"/>
   <path id="svg_21" d="m411.16003,302.92499l9.69995,3.46997l-0.05994,-3.48999l0.73999,0.01001l0.10999,4.63l-0.03003,0.08002l-10.77002,-3.85004l0.31006,-0.84998z"/>
   <path id="svg_22" d="m408.03003,310.39496c0.26001,-0.63 0.63,-1.14001 1.12,-1.53003c0.48999,-0.38995 1.05005,-0.65997 1.69995,-0.81995c0.64001,-0.15002 1.33008,-0.19 2.06006,-0.12s1.45996,0.26996 2.20996,0.56995c0.75,0.31 1.41003,0.69 1.97998,1.14001c0.57007,0.46002 1.04004,0.96002 1.39001,1.53003c0.3501,0.56 0.56006,1.14996 0.64001,1.76996c0.07007,0.62 -0.02002,1.24005 -0.27002,1.87c-0.25,0.62006 -0.62,1.13 -1.10999,1.52002s-1.04993,0.66003 -1.69995,0.82001c-0.64001,0.15997 -1.33008,0.20001 -2.06006,0.13c-0.72998,-0.07001 -1.46997,-0.26001 -2.20996,-0.57001c-0.73999,-0.29999 -1.40002,-0.67999 -1.96997,-1.14001c-0.57007,-0.45996 -1.04004,-0.96997 -1.39001,-1.52997c-0.34998,-0.56 -0.57007,-1.16003 -0.64001,-1.77002c-0.09998,-0.63 -0.01001,-1.25 0.25,-1.87zm0.82996,0.34003c-0.26001,0.63 -0.30005,1.26001 -0.12,1.90002s0.56006,1.21997 1.14001,1.76996c0.57996,0.55005 1.32996,1.01001 2.26001,1.39001c0.92993,0.38 1.78992,0.58002 2.57996,0.59003c0.80005,0.00995 1.47998,-0.14001 2.05005,-0.47003c0.56995,-0.33002 0.98999,-0.79999 1.25,-1.44c0.26001,-0.63 0.29993,-1.26001 0.12,-1.89996c-0.18005,-0.63 -0.56006,-1.22003 -1.14001,-1.77002c-0.57996,-0.54999 -1.32996,-1.01001 -2.26001,-1.39001c-0.93005,-0.38 -1.79004,-0.58002 -2.57996,-0.58997c-0.79004,-0.01001 -1.4801,0.13995 -2.05005,0.46997c-0.57996,0.33002 -1,0.81 -1.25,1.44z"/>
   <path id="svg_23" d="m370.38,369.44501l7.53003,7.03003l1.32996,-3.23004l0.68005,0.29999l-1.72998,4.29004l-0.05005,0.06l-8.35999,-7.81l0.59998,-0.64001z"/>
   <path id="svg_24" d="m367.77002,372.22498l0.56995,0.58002l-0.13,3.37c-0.03992,1.08997 -0.04993,2.02997 -0.0199,2.81s0.13,1.42999 0.29993,1.96002c0.17004,0.52997 0.43005,0.97998 0.78003,1.32996c0.51001,0.52002 1.09998,0.75 1.76001,0.70001s1.30994,-0.40002 1.93994,-1.02002c0.3501,-0.34998 0.64001,-0.73999 0.86011,-1.16998c0.21997,-0.42999 0.33997,-0.84998 0.33997,-1.26001l0.77002,0.21002c-0.07007,1.06 -0.56006,2.03998 -1.45007,2.91998c-0.51001,0.5 -1.04993,0.85004 -1.62,1.04999c-0.56995,0.20001 -1.14001,0.24005 -1.69995,0.12c-0.56006,-0.12 -1.07007,-0.41998 -1.53003,-0.88995c-0.32996,-0.33002 -0.59998,-0.73999 -0.80994,-1.21002c-0.21008,-0.47998 -0.3501,-1.09998 -0.43005,-1.87c-0.07996,-0.77002 -0.08997,-1.77002 -0.03003,-3l0.15002,-3.16998l-4.26001,4.20996l-0.60999,-0.60999l5.12,-5.06z"/>
   <path id="svg_25" d="m307.95996,413.89496l4.21997,9.40002l2.46997,-2.46002l0.51001,0.53998l-3.26001,3.29004l-0.06995,0.02997l-4.68005,-10.44l0.81006,-0.35999z"/>
   <path id="svg_26" d="m299.77002,417.32495l0.92004,2.32001l5.40991,-2.16003l0.30005,0.74005l-1.22998,9l-0.96008,0.38995l1.25,-8.94l-4.43994,1.78003l1.03003,2.58002l-0.83008,0.32996l-1.02991,-2.58997l-1.80005,0.71997l-0.31995,-0.79999l1.79993,-0.71997l-0.91992,-2.32001l0.81995,-0.33002z"/>
   <path id="svg_27" d="m232.91998,430.47498l0.20001,10.29999l3.23999,-1.28998l0.25,0.70001l-4.28998,1.75l-0.08002,0l-0.22003,-11.44l0.90002,-0.02002z"/>
   <path id="svg_28" d="m224.94,430.20496c0.81,0.02002 1.52997,0.21002 2.15002,0.58002c0.62,0.37 1.10999,0.89996 1.44995,1.58997c0.34003,0.69 0.5,1.54004 0.48004,2.53003c-0.02002,0.94 -0.21002,1.81 -0.57001,2.59998c-0.35999,0.79004 -0.85004,1.48999 -1.48004,2.09003c-0.62994,0.59998 -1.35999,1.08997 -2.19995,1.46997c-0.84003,0.38 -1.76001,0.63 -2.75,0.75l-0.33002,-0.81c1.28998,-0.08997 2.38,-0.39001 3.25,-0.90997c0.88,-0.51001 1.56,-1.15002 2.04999,-1.91003c0.48999,-0.75995 0.81,-1.56 0.94,-2.40997c-0.34998,0.56 -0.82001,1 -1.40997,1.32001c-0.59003,0.32001 -1.25,0.47998 -1.96002,0.45996c-0.71997,-0.01996 -1.35999,-0.17999 -1.92999,-0.5c-0.57001,-0.31 -1.03003,-0.73999 -1.34998,-1.28998c-0.33002,-0.53998 -0.49005,-1.16998 -0.47003,-1.87c0.02002,-0.71997 0.20001,-1.35999 0.56,-1.91998c0.35999,-0.57001 0.84998,-1.01001 1.46002,-1.33002c0.63,-0.29999 1.32996,-0.44995 2.10999,-0.44zm-0.02002,0.92004c-0.59003,-0.01001 -1.12,0.09003 -1.58002,0.32001c-0.45996,0.22998 -0.82996,0.53998 -1.09998,0.95996s-0.41003,0.88 -0.41998,1.42004c-0.01001,0.52997 0.10999,1 0.37,1.42999s0.62,0.76001 1.07001,1.02002s0.95996,0.38995 1.53998,0.39996c0.57001,0.01001 1.08997,-0.09998 1.54999,-0.33002c0.47003,-0.23999 0.84003,-0.56 1.12,-0.96997c0.28003,-0.40997 0.41998,-0.88 0.44,-1.40997c0.01001,-0.54004 -0.10999,-1.02002 -0.34998,-1.44c-0.25,-0.42004 -0.60004,-0.76001 -1.04999,-1c-0.47998,-0.26007 -1,-0.39008 -1.59003,-0.40002z"/>
   <path id="svg_29" d="m156.82001,416.34497l-3.85999,9.54999l3.48999,0.08002l-0.03998,0.73999l-4.63,-0.07001l-0.07001,-0.02997l4.27997,-10.61005l0.83002,0.34003z"/>
   <path id="svg_30" d="m149.94,413.13495c0.71002,0.32001 1.27002,0.73999 1.66998,1.25c0.40002,0.51001 0.64001,1.07001 0.72003,1.65997c0.07996,0.59003 -0.01001,1.17004 -0.27002,1.74005c-0.27997,0.62 -0.69,1.06 -1.21002,1.31995c-0.52997,0.26001 -1.14996,0.37006 -1.87,0.32001c0.36005,0.36005 0.62,0.80005 0.75,1.34003c0.14001,0.52997 0.08002,1.08997 -0.19,1.67999c-0.23999,0.53003 -0.58997,0.95001 -1.06,1.23999c-0.45996,0.29004 -0.98999,0.45001 -1.57001,0.47003c-0.58997,0.01996 -1.19,-0.11005 -1.81,-0.39001c-0.63,-0.28003 -1.13,-0.66003 -1.5,-1.12c-0.37,-0.46002 -0.59998,-0.96002 -0.69,-1.5c-0.07996,-0.54004 0,-1.08002 0.24005,-1.60999c0.25995,-0.58002 0.63995,-1 1.13995,-1.25c0.49005,-0.25 0.99005,-0.35004 1.5,-0.32001c-0.47998,-0.5 -0.78998,-1.03003 -0.94995,-1.60004c-0.16003,-0.57001 -0.10004,-1.16998 0.19,-1.78998c0.25995,-0.57001 0.62994,-1.02002 1.12994,-1.34998c0.5,-0.33002 1.07001,-0.52002 1.72003,-0.55005c0.65997,-0.00995 1.33997,0.13007 2.06,0.46002zm-2.72998,5.98004c-0.67999,-0.31 -1.31,-0.40002 -1.89001,-0.26001c-0.58002,0.13 -1,0.47998 -1.26001,1.04999c-0.25995,0.57001 -0.25995,1.14001 -0.00995,1.71002c0.25,0.57001 0.72998,1.02002 1.41998,1.33002c0.69,0.31 1.33002,0.38 1.94,0.19c0.59998,-0.19 1.02997,-0.57001 1.28998,-1.13c0.26001,-0.57001 0.23999,-1.11005 -0.03998,-1.64001c-0.29004,-0.53003 -0.77002,-0.94 -1.45001,-1.25zm2.35999,-5.16998c-0.46997,-0.21002 -0.92999,-0.33002 -1.40002,-0.34003c-0.46997,-0.01996 -0.89996,0.08002 -1.28998,0.30005c-0.39001,0.20996 -0.69,0.56 -0.90002,1.03998c-0.20996,0.46997 -0.27997,0.91998 -0.19995,1.34998s0.27997,0.82001 0.59998,1.16003c0.32001,0.34998 0.72003,0.63 1.21002,0.84998c0.76001,0.34003 1.46997,0.44 2.13,0.29004c0.65997,-0.15002 1.14996,-0.58002 1.46997,-1.29004c0.21002,-0.47998 0.28003,-0.92999 0.19,-1.35999c-0.08997,-0.42999 -0.28998,-0.82001 -0.62,-1.15997c-0.31,-0.34003 -0.71002,-0.62006 -1.19,-0.84003z"/>
   <path id="svg_31" d="m97.46002,378.315l-0.57001,0.58002l-3.37,-0.07001c-1.09003,-0.02002 -2.03003,-0.01001 -2.81,0.03998c-0.78003,0.04999 -1.42999,0.16003 -1.96002,0.34003c-0.52997,0.17999 -0.96997,0.44 -1.32001,0.79999c-0.50995,0.52002 -0.72998,1.12 -0.65997,1.77002c0.07001,0.65997 0.41998,1.29999 1.06,1.91998c0.34998,0.34998 0.75,0.63 1.17999,0.83997s0.85999,0.32001 1.26001,0.31l-0.19,0.77002c-1.06,-0.04999 -2.04999,-0.52002 -2.95001,-1.39996c-0.51001,-0.5 -0.87,-1.03003 -1.08997,-1.60004c-0.21002,-0.57001 -0.26001,-1.14001 -0.15002,-1.70001s0.40002,-1.07996 0.85999,-1.54999c0.33002,-0.33997 0.73004,-0.60999 1.20001,-0.83002c0.47003,-0.21997 1.09003,-0.37 1.85999,-0.45996c0.77002,-0.09003 1.77002,-0.12 3,-0.09003l3.17004,0.09003l-4.29004,-4.17004l0.60004,-0.62l5.16998,5.03003z"/>
   <path id="svg_32" d="m88.15997,368.565c0.46002,0.5 0.77002,1.04999 0.90997,1.65997c0.15002,0.61005 0.16003,1.24005 0.03003,1.89001c-0.13,0.65002 -0.39001,1.28998 -0.76001,1.91998c-0.38,0.63 -0.85999,1.22003 -1.44,1.76001c-0.58997,0.54999 -1.21002,0.98999 -1.87,1.31c-0.65997,0.33002 -1.31,0.53003 -1.96997,0.61005s-1.28003,0.01996 -1.88,-0.17004c-0.59003,-0.19 -1.12,-0.53998 -1.58002,-1.03998c-0.46002,-0.48999 -0.76001,-1.03998 -0.91003,-1.65002c-0.14996,-0.60999 -0.15997,-1.22998 -0.02997,-1.88c0.13,-0.64996 0.38,-1.28998 0.75,-1.91998c0.38,-0.63 0.85999,-1.21997 1.45001,-1.77002c0.58997,-0.53998 1.20996,-0.97998 1.87,-1.29999c0.65997,-0.33002 1.32001,-0.52997 1.97998,-0.60999c0.66003,-0.08002 1.29004,-0.03003 1.88,0.16998c0.59003,0.19 1.11005,0.52997 1.57001,1.02002zm-0.65997,0.60999c-0.46002,-0.5 -1.02002,-0.79999 -1.66998,-0.90997c-0.65002,-0.10004 -1.34003,-0.01001 -2.08002,0.27997c-0.73999,0.28998 -1.47998,0.78003 -2.21002,1.46002c-0.72998,0.67999 -1.27997,1.38 -1.62,2.09998c-0.34998,0.71002 -0.48999,1.40002 -0.44,2.06c0.06,0.65002 0.31,1.22998 0.78003,1.72998c0.45996,0.5 1.02002,0.80005 1.66998,0.91003c0.65002,0.09998 1.34003,0.01001 2.08002,-0.28003c0.73999,-0.28998 1.47998,-0.77997 2.20996,-1.45996c0.74005,-0.67999 1.28003,-1.38 1.62006,-2.10004c0.34998,-0.71997 0.48999,-1.39996 0.44,-2.06c-0.05005,-0.64996 -0.31006,-1.22998 -0.78003,-1.72998z"/>
   <path id="svg_33" d="m53,315.77496l-0.75,0.32001l-3.08002,-1.37c-1,-0.45001 -1.87,-0.79999 -2.59998,-1.06c-0.72998,-0.26001 -1.38,-0.41003 -1.94,-0.45001c-0.56,-0.03998 -1.07001,0.03003 -1.53003,0.22998c-0.66998,0.28003 -1.10999,0.74005 -1.29999,1.38c-0.19,0.63 -0.12,1.36005 0.23004,2.17999c0.18994,0.46002 0.44995,0.87 0.76996,1.24005c0.32001,0.37 0.66003,0.62994 1.04004,0.77997l-0.48004,0.64001c-0.95996,-0.46002 -1.67999,-1.27002 -2.16998,-2.42999c-0.28003,-0.66003 -0.40002,-1.29004 -0.38,-1.90002c0.03003,-0.60999 0.20001,-1.14996 0.52002,-1.62s0.78998,-0.84003 1.39996,-1.09003c0.42999,-0.17999 0.91003,-0.27997 1.42004,-0.29999c0.51996,-0.01996 1.14996,0.08002 1.89996,0.29999c0.75,0.21002 1.67999,0.57001 2.79999,1.08002l2.88,1.32001l-2.32996,-5.51001l0.79999,-0.33997l2.79999,6.59998z"/>
   <path id="svg_34" d="m49.46002,307.255l-0.77002,0.28003l-3.01001,-1.52002c-0.97998,-0.48999 -1.82996,-0.89001 -2.54999,-1.17999c-0.71997,-0.29004 -1.35999,-0.47003 -1.90997,-0.54004s-1.07001,-0.01996 -1.54004,0.16003c-0.69,0.25 -1.13995,0.69 -1.35999,1.31c-0.21997,0.62 -0.17999,1.35999 0.13,2.19c0.16998,0.46997 0.41003,0.89001 0.71002,1.27002c0.29999,0.37994 0.63,0.65997 1,0.82996l-0.51001,0.60999c-0.94,-0.50995 -1.62,-1.34998 -2.04999,-2.53998c-0.25,-0.66998 -0.34003,-1.31 -0.29004,-1.91998s0.26001,-1.14001 0.60004,-1.59003s0.82996,-0.79999 1.45001,-1.02997c0.44,-0.16003 0.91998,-0.23999 1.44,-0.23004s1.13995,0.14001 1.87994,0.39001c0.74005,0.25 1.65002,0.65002 2.74005,1.21002l2.81995,1.45001l-2.06,-5.62l0.81,-0.30005l2.47003,6.77002z"/>
   <path id="svg_35" d="m36.65002,246.34497l-0.82001,0.02002l-2.37,-2.40002c-0.77002,-0.77997 -1.45001,-1.41998 -2.03998,-1.92999c-0.59003,-0.51001 -1.14001,-0.88 -1.64001,-1.13c-0.5,-0.23999 -1,-0.35999 -1.51001,-0.34003c-0.72998,0.02002 -1.29999,0.29004 -1.71002,0.81s-0.59998,1.23004 -0.57996,2.12006c0.00995,0.5 0.09998,0.96997 0.25995,1.42999c0.16003,0.45996 0.39001,0.82996 0.69,1.10999l-0.67999,0.41998c-0.71997,-0.77997 -1.09998,-1.79999 -1.13995,-3.06c-0.02002,-0.70996 0.08997,-1.34998 0.33997,-1.90997c0.25,-0.56 0.60999,-1 1.08002,-1.32001c0.46997,-0.32001 1.03998,-0.48999 1.70001,-0.51001c0.46997,-0.01001 0.94995,0.07001 1.42999,0.23999c0.48999,0.16998 1.03998,0.5 1.65997,0.97003c0.62,0.46997 1.35999,1.14996 2.21002,2.02997l2.20996,2.28003l-0.15997,-5.98004l0.85999,-0.01996l0.21002,7.16998z"/>
   <path id="svg_36" d="m36.78003,232.98499c-0.02002,0.81 -0.21002,1.53003 -0.58002,2.15002c-0.37,0.62 -0.89996,1.10999 -1.58997,1.44995c-0.69,0.34003 -1.54004,0.5 -2.53003,0.48004c-0.94,-0.02002 -1.81,-0.21002 -2.59998,-0.57001c-0.79004,-0.35999 -1.48999,-0.85004 -2.09003,-1.47003c-0.59998,-0.63 -1.09998,-1.35999 -1.46997,-2.19995c-0.38,-0.84003 -0.63,-1.76001 -0.75,-2.75l0.81,-0.33002c0.08997,1.28998 0.39996,2.38 0.90997,3.25c0.51001,0.88 1.15002,1.56 1.91003,2.04999c0.76001,0.48999 1.56,0.81 2.40997,0.94c-0.56,-0.34998 -1,-0.82001 -1.32001,-1.40997c-0.32001,-0.59003 -0.47998,-1.25 -0.45996,-1.96002c0.01996,-0.71002 0.17999,-1.35999 0.5,-1.92999c0.31,-0.57001 0.73999,-1.03003 1.28998,-1.35004c0.53998,-0.32996 1.16998,-0.48999 1.87,-0.46997c0.72003,0.02002 1.35999,0.20001 1.91998,0.56c0.57001,0.35999 1.01001,0.84998 1.34003,1.46002c0.29999,0.62 0.44995,1.31995 0.42999,2.09998zm-0.91003,-0.02002c0.01001,-0.59003 -0.08997,-1.12 -0.32001,-1.58002c-0.22998,-0.45996 -0.53998,-0.82996 -0.95001,-1.09998c-0.40997,-0.27002 -0.88,-0.41003 -1.41998,-0.41998c-0.53003,-0.01001 -1,0.10999 -1.42999,0.37c-0.41998,0.26001 -0.76001,0.62 -1.02002,1.07001c-0.26001,0.44995 -0.39001,0.95996 -0.39996,1.53998c-0.01001,0.57001 0.09998,1.09003 0.32996,1.54999c0.23004,0.46002 0.56,0.84003 0.97003,1.10999c0.40997,0.28003 0.88,0.42004 1.40997,0.44c0.54004,0.01001 1.02002,-0.10999 1.44,-0.35999c0.41998,-0.25 0.76001,-0.59998 1,-1.04999c0.25,-0.46002 0.38,-0.97998 0.39001,-1.57001z"/>
   <path id="svg_37" d="m48.17999,171.08499l-0.76001,-0.29001l-1.26001,-3.13c-0.40997,-1.01999 -0.78998,-1.87 -1.13,-2.56998c-0.34998,-0.70001 -0.70996,-1.25 -1.07996,-1.67001c-0.37,-0.42001 -0.79004,-0.72 -1.26001,-0.89999c-0.67999,-0.26001 -1.31,-0.23001 -1.89001,0.09s-1.02997,0.89999 -1.34998,1.73001c-0.17999,0.45999 -0.28003,0.93997 -0.31,1.41998c-0.03003,0.48001 0.03998,0.91 0.20996,1.29001l-0.78998,0.12c-0.37,-1 -0.33002,-2.09 0.13,-3.26001c0.26001,-0.66998 0.60999,-1.20999 1.04999,-1.63c0.44,-0.41998 0.94,-0.67999 1.5,-0.79999c0.56,-0.10999 1.15002,-0.04999 1.76001,0.19c0.44,0.17001 0.84998,0.42999 1.22998,0.78s0.77002,0.86002 1.16003,1.53c0.38995,0.67001 0.81,1.58002 1.25995,2.72l1.16003,2.95001l2.15997,-5.58002l0.81,0.31l-2.59998,6.70001z"/>
   <path id="svg_38" d="m53.31,159.15497c-0.32001,0.70999 -0.72998,1.26999 -1.23999,1.67999c-0.51001,0.41 -1.06,0.64999 -1.65002,0.74002s-1.16998,0 -1.73999,-0.25c-0.62,-0.28 -1.07001,-0.68002 -1.33002,-1.20001c-0.25995,-0.51999 -0.38,-1.14999 -0.32996,-1.87c-0.36005,0.37 -0.80005,0.62 -1.33002,0.75998c-0.53003,0.14001 -1.09003,0.08002 -1.67999,-0.17999c-0.54004,-0.23999 -0.95001,-0.59 -1.25,-1.04999c-0.29999,-0.45999 -0.46002,-0.98001 -0.47998,-1.57001c-0.03003,-0.59 0.09998,-1.19 0.37994,-1.81c0.28003,-0.63 0.65002,-1.13 1.11005,-1.51001c0.45996,-0.38 0.94995,-0.60999 1.5,-0.69998c0.53998,-0.09 1.07996,-0.01001 1.60999,0.22c0.58002,0.25998 1,0.63998 1.25,1.13c0.25,0.48999 0.35999,0.98999 0.33002,1.5c0.48999,-0.48001 1.02997,-0.80002 1.58997,-0.96002c0.57001,-0.16 1.16003,-0.10001 1.79004,0.17001c0.56995,0.25 1.01996,0.63 1.35999,1.12c0.33002,0.48999 0.51996,1.06 0.56,1.70999c0.01001,0.66 -0.13,1.35001 -0.45001,2.07001zm-6.01001,-2.69c0.29999,-0.67999 0.39001,-1.31 0.25,-1.88998c-0.14001,-0.58002 -0.48999,-1 -1.06,-1.25c-0.57001,-0.25 -1.14001,-0.25 -1.71002,0c-0.57001,0.25998 -1.00995,0.72998 -1.32001,1.42999c-0.31,0.69 -0.35999,1.34 -0.16998,1.94c0.19,0.60001 0.57001,1.03 1.14001,1.28c0.57001,0.25 1.12,0.23999 1.64001,-0.05002c0.52002,-0.29999 0.92999,-0.77997 1.22998,-1.45999zm5.19,2.32001c0.21002,-0.47 0.32001,-0.94 0.33002,-1.41c0.01001,-0.47 -0.09003,-0.89999 -0.31,-1.28c-0.22003,-0.38998 -0.56,-0.67999 -1.04004,-0.89999c-0.46997,-0.20999 -0.91998,-0.26999 -1.34998,-0.19c-0.42999,0.09 -0.82001,0.29001 -1.16003,0.61002c-0.33997,0.31998 -0.62994,0.72998 -0.83997,1.22c-0.34003,0.75998 -0.42999,1.47 -0.27002,2.12997c0.16003,0.66 0.59003,1.15002 1.29999,1.46002c0.48004,0.20999 0.93005,0.26999 1.36005,0.17999c0.42999,-0.09 0.81,-0.29999 1.14996,-0.63c0.34003,-0.31 0.62006,-0.70999 0.83002,-1.19z"/>
   <path id="svg_39" d="m87.23999,107.39499c-0.44,0.48001 -0.92999,0.88 -1.47998,1.20999c-0.55005,0.33002 -1.07001,0.54001 -1.54004,0.62l-0.34998,-0.87c0.46997,-0.07999 0.95001,-0.25998 1.44,-0.53998c0.48999,-0.28003 0.90997,-0.61002 1.25,-0.98001c0.63,-0.67999 0.95001,-1.38 0.97998,-2.10001c0.02002,-0.72 -0.26001,-1.35001 -0.84998,-1.88998c-0.58002,-0.54001 -1.23999,-0.74002 -1.96002,-0.62003c-0.71997,0.12003 -1.40997,0.55002 -2.07001,1.26001c-0.28998,0.32001 -0.56,0.67999 -0.79999,1.09l-0.73999,-0.22l-0.17999,-5.70999l-3.73999,4.06l-0.63,-0.57999l4.59998,-5.01001l0.59003,0.54001l0.13995,5.53998c0.5,-0.62997 1.07001,-1.12 1.70001,-1.47c0.62,-0.34998 1.26001,-0.50998 1.91003,-0.47s1.26996,0.32001 1.84998,0.86002c0.52002,0.48001 0.85999,1.01999 1.02002,1.63c0.15997,0.60001 0.14001,1.22 -0.04999,1.85999s-0.57001,1.22 -1.09003,1.79001z"/>
   <path id="svg_40" d="m94.39001,99.98499c-0.47998,0.48001 -1.03003,0.79999 -1.63,0.95999c-0.59998,0.17001 -1.22998,0.19 -1.88,0.08002c-0.65002,-0.11002 -1.29999,-0.35001 -1.94,-0.70999c-0.64001,-0.36002 -1.23999,-0.82001 -1.79999,-1.39001c-0.56,-0.57001 -1.02002,-1.17999 -1.37,-1.82999c-0.35004,-0.65002 -0.57001,-1.30002 -0.66998,-1.95001c-0.10004,-0.64999 -0.06,-1.28 0.12,-1.88c0.17999,-0.60001 0.50995,-1.13998 0.98999,-1.60999c0.47998,-0.47 1.01996,-0.79001 1.62,-0.95001c0.59998,-0.17001 1.22998,-0.19 1.88,-0.07999c0.64996,0.10999 1.29999,0.34 1.94,0.69998c0.64001,0.36002 1.25,0.82001 1.81,1.39999c0.56,0.57001 1.01001,1.18002 1.35999,1.83002c0.34998,0.64999 0.57001,1.29999 0.66998,1.95999c0.10004,0.66 0.06,1.28 -0.10999,1.88c-0.19,0.57999 -0.51001,1.12 -0.98999,1.59zm-0.63,-0.64001c0.48999,-0.48001 0.77002,-1.04001 0.85999,-1.70001c0.09003,-0.64999 -0.02997,-1.34 -0.33997,-2.06998c-0.31,-0.73001 -0.82001,-1.45001 -1.53003,-2.17001s-1.41998,-1.23999 -2.14001,-1.56c-0.72998,-0.33002 -1.40997,-0.45001 -2.06995,-0.38c-0.65002,0.07001 -1.22003,0.35001 -1.71002,0.83002c-0.48999,0.47998 -0.77002,1.03998 -0.85999,1.68997c-0.08002,0.65002 0.02997,1.34003 0.33997,2.07001s0.82001,1.45001 1.53003,2.17001c0.70001,0.70999 1.41998,1.23999 2.13995,1.56s1.41003,0.44998 2.07001,0.38c0.65002,-0.07001 1.22003,-0.34 1.71002,-0.82001z"/>
   <path id="svg_41" d="m149.06,62.24496c-0.59003,0.26999 -1.20001,0.45001 -1.84003,0.54001c-0.63995,0.09 -1.18994,0.07999 -1.65997,-0.03l0.01001,-0.94c0.46002,0.10001 0.97998,0.12 1.52997,0.06c0.56,-0.07001 1.07001,-0.20999 1.54004,-0.42001c0.83997,-0.38998 1.41998,-0.90997 1.70996,-1.56c0.30005,-0.64999 0.28003,-1.34 -0.04999,-2.06998c-0.33002,-0.72 -0.84998,-1.17001 -1.56,-1.33002c-0.70996,-0.16 -1.51001,-0.04001 -2.39996,0.36002c-0.39001,0.17999 -0.78003,0.40997 -1.16003,0.69l-0.58997,-0.49002l2.04999,-5.32999l-5.02002,2.29999l-0.35999,-0.79001l6.17999,-2.82999l0.33002,0.73001l-2.02002,5.16c0.71002,-0.38 1.41998,-0.62003 2.13,-0.70001c0.71002,-0.08002 1.35999,0.01999 1.95001,0.31c0.57996,0.29001 1.03998,0.79001 1.37,1.51001c0.28998,0.64999 0.39996,1.28 0.31,1.89999c-0.09003,0.62 -0.35004,1.17999 -0.77002,1.69c-0.40997,0.5 -0.97998,0.92001 -1.67999,1.23999z"/>
   <path id="svg_42" d="m154.47998,59.55499l-0.29999,-0.76001l1.42999,-3.06c0.46002,-0.98999 0.83002,-1.85001 1.09998,-2.57999c0.27002,-0.73001 0.42999,-1.37003 0.48999,-1.93002c0.05005,-0.56 -0.00995,-1.06998 -0.19995,-1.53c-0.27002,-0.67999 -0.72003,-1.12 -1.35004,-1.31998s-1.35999,-0.14001 -2.17999,0.19c-0.45996,0.17999 -0.88,0.42999 -1.25,0.73999c-0.37,0.31 -0.64001,0.64999 -0.79999,1.03l-0.63,-0.48999c0.47998,-0.95001 1.29999,-1.66 2.47003,-2.13c0.65997,-0.27002 1.29999,-0.38 1.89996,-0.34c0.60999,0.03998 1.14001,0.22 1.60999,0.54999c0.47003,0.32999 0.82001,0.79999 1.07001,1.42001c0.17999,0.43997 0.27002,0.90997 0.27002,1.42999c0.01001,0.51999 -0.09998,1.14999 -0.33002,1.88998c-0.22998,0.74002 -0.59998,1.67001 -1.13,2.78l-1.37,2.86002l5.54999,-2.23001l0.32001,0.80002l-6.66998,2.67999z"/>
  </g>
  <circle id="svg_43" stroke-miterlimit="10" stroke="#000000" fill="none" r="212.5" cy="234.91498" cx="229" class="st1"/>
  <circle id="svg_44" stroke-miterlimit="10" stroke="#000000" fill="none" r="228" cy="234.41498" cx="229.5" class="st1"/>
  <circle id="svg_45" stroke-miterlimit="10" stroke-width="2" stroke="#000000" fill="none" r="131" cy="235.41498" cx="228.5" class="st2"/>
  <circle id="svg_46" stroke-miterlimit="10" stroke="#000000" fill="none" r="126" cy="235.41498" cx="228.5" class="st1"/>
  <path id="svg_47" opacity="0.7" d="m224.17999,57.13498c-46.91998,0.98001 -89.38,20.07001 -120.69,50.54999c0,0 30.66998,30.55002 30.66998,30.55002c23.39001,-22.78 55.35004,-37.17001 90.34003,-38.14001l-0.21002,0.01001l-0.08997,-42.97" class="st3"/>
  <path id="svg_48" opacity="0.5" d="m229.90002,369.08496c35.45001,-0.48999 67.58997,-14.70001 91.33997,-37.56c0,0 31.70007,31.53998 31.70007,31.53998c-31.76001,31.14001 -75.10004,50.5 -122.97003,51.02002l-0.10004,-45" class="st4"/>
  <path id="svg_49" opacity="0.5" d="m225.87,369.09497l0.09998,45c-47.79999,-0.53003 -91.08997,-19.84998 -122.83997,-50.91998c0,0 31.72998,-31.86005 31.72998,-31.86005c23.77002,22.83002 55.85004,37.09003 91.10999,37.78003" class="st4"/>
  <path id="svg_50" opacity="0.7" d="m49.5,237.63495c0.53003,47.65002 19.73999,90.82001 50.64001,122.53003c0,0 31.70996,-31.85004 31.70996,-31.85004c-23.06,-23.57001 -37.56,-55.51001 -38.32996,-90.77997l-44.02002,0.07996" class="st3"/>
  <path id="svg_51" opacity="0.7" d="m130.17999,142.27496c-22.39001,23.70999 -36.26001,56.17999 -36.69,91.27997l-0.01001,-0.06995l-44,0.12994l0,0.48004c0.54999,-47.29001 19.5,-90.76999 50.01001,-122.40002c0,0.00003 30.69,30.58002 30.69,30.58002z" class="st3"/>
  <path id="svg_52" opacity="0.15" d="m230.34998,100.11499c35.39001,0.60999 67.44006,14.88998 91.12,37.78c0,0 30.54004,-30.67999 30.54004,-30.67999c-31.63,-30.56 -74.51001,-49.54001 -121.83002,-50.11002l0.01001,0l0.08997,43.01001" class="st5"/>
  <rect id="svg_53" height="19" width="19" y="68.91498" x="63"/>
  <rect id="svg_54" height="19" width="19" y="380.91498" x="375"/>
  <path id="svg_55" d="m393.94995,87.91498l-18.89001,0c-0.03003,0 -0.04993,-0.01999 -0.04993,-0.04999l0,-18.89001c0,-0.03 0.0199,-0.04999 0.04993,-0.04999l18.89001,0c0.03003,0 0.05005,0.01999 0.05005,0.04999l0,18.89001c0,0.03 -0.02002,0.04999 -0.05005,0.04999z"/>
  <path id="svg_56" d="m241.90002,454.45496l-13.35999,13.35999c-0.02002,0.02002 -0.05005,0.02002 -0.08002,0l-13.35999,-13.35999c-0.02002,-0.02002 -0.02002,-0.04999 0,-0.08002l13.35999,-13.35999c0.02002,-0.02002 0.04999,-0.02002 0.08002,0l13.35999,13.35999c0.01996,0.02002 0.01996,0.06006 0,0.08002z"/>
  <path id="svg_57" d="m241.90002,13.45499l-13.35999,13.36002c-0.02002,0.01999 -0.05005,0.01999 -0.08002,0l-13.35999,-13.36002c-0.02002,-0.01999 -0.02002,-0.04999 0,-0.07999l13.35999,-13.36002c0.02002,-0.01999 0.04999,-0.01999 0.08002,0l13.35999,13.36002c0.01996,0.01999 0.01996,0.05997 0,0.07999z"/>
  <path id="svg_58" d="m81.95001,399.91498l-18.89001,0c-0.02997,0 -0.04999,-0.02002 -0.04999,-0.04999l0,-18.89001c0,-0.02997 0.02002,-0.04999 0.04999,-0.04999l18.89001,0c0.02997,0 0.04999,0.02002 0.04999,0.04999l0,18.89001c0,0.02997 -0.02002,0.04999 -0.04999,0.04999z"/>
  <rect id="svg_59" height="19" width="19" transform="matrix(0.7071 0.7071 -0.7071 0.7071 728.719 -675.284)" y="832.60957" x="436.30959"/>
  <rect id="svg_60" height="19" width="19" transform="matrix(0.7071 0.7071 -0.7071 0.7071 600.139 -364.864)" y="832.60957" x="-2.69041"/>
  <circle id="svg_61" stroke-miterlimit="10" stroke-linejoin="round" stroke-linecap="round" stroke-width="6" stroke="#000000" fill="none" r="95.5" cy="234.59498" cx="228.99" class="st6"/>
  <path id="svg_62" stroke-dasharray="0,2" stroke-miterlimit="10" stroke-width="11" stroke="#000000" fill="none" d="m139.14001,414.23499c-15.66003,-7.90002 -30.14001,-17.79999 -43.10999,-29.35999" class="st7"/>
  <path id="svg_63" stroke-dasharray="0,2" stroke-miterlimit="10" stroke-width="11" stroke="#000000" fill="none" d="m215.09003,435.10498c-17.38,-1.21002 -34.15002,-4.64001 -50.02997,-10.01001" class="st7"/>
  <path id="svg_64" stroke-dasharray="0,2" stroke-miterlimit="10" stroke-width="11" stroke="#000000" fill="none" d="m292.58002,425.375c-15.81,5.27002 -32.5,8.62 -49.78998,9.77002" class="st7"/>
  <path id="svg_65" stroke-dasharray="0,2" stroke-miterlimit="10" stroke-width="11" stroke="#000000" fill="none" d="m360.07996,386.94501c-13.12,11.34003 -27.72998,21 -43.5,28.65002" class="st7"/>
  <path id="svg_66" stroke-dasharray="0,2" stroke-miterlimit="10" stroke-width="11" stroke="#000000" fill="none" d="m408.81006,324.065c-7.93994,16.03998 -17.96997,30.87 -29.72998,44.13" class="st7"/>
  <path id="svg_67" stroke-dasharray="0,2" stroke-miterlimit="10" stroke-width="11" stroke="#000000" fill="none" d="m429.02002,249.05499c-1.23999,18.34998 -4.94995,36.02997 -10.81006,52.69" class="st7"/>
  <path id="svg_68" stroke-dasharray="0,2" stroke-miterlimit="10" stroke-width="11" stroke="#000000" fill="none" d="m418.60999,170.07498c5.63,16.32999 9.19995,33.62 10.42004,51.56003" class="st7"/>
  <path id="svg_69" stroke-dasharray="0,2" stroke-miterlimit="10" stroke-width="11" stroke="#000000" fill="none" d="m376.57996,99.73499c13.59998,14.76999 25,31.58002 33.69995,49.92999" class="st7"/>
  <path id="svg_70" stroke-dasharray="0,2" stroke-miterlimit="10" stroke-width="11" stroke="#000000" fill="none" d="m313.20996,53.50497c15.92004,7.37 30.71997,16.76001 44.05005,27.86002" class="st7"/>
  <path id="svg_71" stroke-dasharray="0,2" stroke-miterlimit="10" stroke-width="11" stroke="#000000" fill="none" d="m238,35.28497c20.34998,0.88 39.90997,4.79001 58.23999,11.30002" class="st7"/>
  <path id="svg_72" stroke-dasharray="0,2" stroke-miterlimit="10" stroke-width="11" stroke="#000000" fill="none" d="m162.23999,46.58499c17.87,-6.34 36.90002,-10.22 56.69,-11.22" class="st7"/>
  <path id="svg_73" stroke-dasharray="0,2" stroke-miterlimit="10" stroke-width="11" stroke="#000000" fill="none" d="m95.34998,86.43497c13.14001,-11.82001 27.85999,-21.92999 43.79999,-29.98001" class="st7"/>
  <path id="svg_74" stroke-dasharray="0,2" stroke-miterlimit="10" stroke-width="11" stroke="#000000" fill="none" d="m49.91998,146.10498c7.35999,-14.76999 16.5,-28.5 27.13,-40.91" class="st7"/>
  <path id="svg_75" stroke-dasharray="0,2" stroke-miterlimit="10" stroke-width="11" stroke="#000000" fill="none" d="m29.51001,220.815c1.26001,-17.58002 4.78998,-34.53 10.29999,-50.57001" class="st7"/>
  <path id="svg_76" stroke-dasharray="0,2" stroke-miterlimit="10" stroke-width="11" stroke="#000000" fill="none" d="m38.95001,297.90497c-4.81,-14.62 -7.97003,-29.98999 -9.28003,-45.89001" class="st7"/>
  <path id="svg_77" stroke-dasharray="0,2" stroke-miterlimit="10" stroke-width="11" stroke="#000000" fill="none" d="m77.83002,366.41498c-11.60999,-13.40002 -21.46997,-28.34998 -29.22998,-44.51001" class="st7"/>
  <path id="svg_78" opacity="0.3" d="m406.46997,232.815c-0.53003,-34.73001 -10.97998,-67.06 -28.65002,-94.28l0,0l-36.26001,23.95999l0,0.01001c12.97998,20.39999 20.60999,44.53998 20.92004,70.44l43.98999,-0.10999" class="st8"/>
  <path id="svg_79" opacity="0.15" d="m375.48999,135.09497l-36.21997,23.92999l0,0c-4.40002,-6.47 -9.34998,-12.53 -14.79004,-18.13c0,0 30.55005,-30.69 30.55005,-30.69c7.54993,7.65002 14.40991,15.97 20.48999,24.88" class="st5"/>
  <line id="svg_80" stroke-miterlimit="10" stroke-linejoin="round" stroke-linecap="round" stroke="#000000" fill="none" y2="305.32498" x2="403.18" y1="281.95498" x1="345.62" class="st0"/>
  <path id="svg_81" opacity="0.3" d="m362.46997,236.83496c-0.26001,16.16998 -3.38,31.65002 -8.87,45.95001c0,0 41.12,16.70001 41.12,16.70001c7.46997,-19.47003 11.62,-40.58002 11.77002,-62.65002l0,0l-44.02002,0.10999" class="st8"/>
  <path id="svg_82" stroke-miterlimit="10" stroke-linejoin="round" stroke-linecap="round" stroke="#000000" fill="none" d="m402.18005,307.32495" class="st0"/>
  <path id="svg_83" opacity="0.5" d="m355.93994,360.065l-31.68994,-31.53003c11.6499,-11.92999 21.08997,-26.01996 27.67993,-41.60999c0,0 41.14001,16.70001 41.14001,16.70001c-8.73999,21.16998 -21.41992,40.27997 -37.13,56.44z" class="st4"/>
 </g>
</svg>