<?xml version="1.0" encoding="utf-8"?>
<!-- Generator: Adobe Illustrator 27.0.0, SVG Export Plug-In . SVG Version: 6.00 Build 0)  -->
<svg version="1.1" id="Layer_1" xmlns="http://www.w3.org/2000/svg" xmlns:xlink="http://www.w3.org/1999/xlink" x="0px" y="0px"
	 viewBox="0 0 426 428" style="enable-background:new 0 0 426 428;" xml:space="preserve">
<style type="text/css">
	.st0{opacity:0.29;fill:none;stroke:#000000;stroke-linecap:round;stroke-linejoin:round;stroke-miterlimit:10;}
	.st1{fill:#B3B3B3;}
</style>
<line class="st0" x1="81.49" y1="83.19" x2="140.93" y2="142.41"/>
<line class="st0" x1="342.84" y1="80.22" x2="281.26" y2="142.09"/>
<line class="st0" x1="345.65" y1="346.22" x2="281.6" y2="282.5"/>
<line class="st0" x1="80.68" y1="343.51" x2="141.16" y2="282.77"/>
<g>
	<path d="M195.33,55.36L194.5,47l1.96-0.19l3.94,4.79l-0.5-5.12l1.92-0.19l0.82,8.36l-1.96,0.19l-3.96-4.86l0.51,5.19L195.33,55.36z
		"/>
	<path d="M208.47,54.58c-0.65,0.02-1.25-0.07-1.8-0.27c-0.55-0.2-1.04-0.5-1.45-0.88c-0.42-0.38-0.75-0.84-0.99-1.36
		c-0.24-0.52-0.37-1.1-0.39-1.72c-0.02-0.62,0.07-1.2,0.27-1.74c0.2-0.54,0.5-1.01,0.89-1.42c0.39-0.41,0.85-0.73,1.39-0.97
		c0.54-0.24,1.13-0.37,1.78-0.39c0.64-0.02,1.24,0.07,1.79,0.28c0.55,0.21,1.04,0.5,1.46,0.89c0.42,0.39,0.75,0.84,0.99,1.36
		c0.24,0.52,0.37,1.09,0.39,1.7c0.02,0.62-0.07,1.2-0.27,1.74s-0.5,1.01-0.89,1.42c-0.39,0.41-0.85,0.73-1.39,0.97
		C209.71,54.43,209.12,54.56,208.47,54.58z M208.41,52.71c0.46-0.02,0.87-0.13,1.22-0.35s0.63-0.52,0.82-0.9
		c0.2-0.38,0.28-0.83,0.27-1.34c-0.02-0.51-0.14-0.95-0.36-1.32c-0.22-0.37-0.51-0.65-0.88-0.84c-0.37-0.2-0.78-0.29-1.24-0.27
		c-0.46,0.02-0.86,0.13-1.22,0.35s-0.63,0.52-0.82,0.9c-0.2,0.38-0.28,0.83-0.27,1.34c0.02,0.51,0.14,0.95,0.36,1.31
		c0.22,0.37,0.51,0.65,0.88,0.84C207.54,52.63,207.95,52.72,208.41,52.71z"/>
	<path d="M214.29,54.28l0.18-8.4l3.41,0.07c0.94,0.02,1.69,0.26,2.24,0.73c0.55,0.46,0.82,1.1,0.8,1.9
		c-0.01,0.62-0.2,1.12-0.55,1.51s-0.79,0.65-1.3,0.79l2.18,3.55l-2.36-0.05l-1.8-3.13l-0.74-0.02l-0.07,3.09L214.29,54.28z
		 M216.38,49.64l1.18,0.03c0.41,0.01,0.74-0.07,0.98-0.22c0.24-0.16,0.36-0.42,0.37-0.77s-0.1-0.63-0.32-0.8
		c-0.22-0.17-0.53-0.27-0.95-0.28l-1.22-0.03L216.38,49.64z"/>
	<path d="M223.92,54.62l0.45-6.57l-2.23-0.15l0.12-1.81l6.47,0.45l-0.13,1.81l-2.23-0.15l-0.45,6.57L223.92,54.62z"/>
	<path d="M229.27,55.01l1-8.34l1.98,0.24L231.88,50l3.29,0.39l0.37-3.09l1.98,0.24l-1,8.34l-1.98-0.24l0.41-3.44l-3.29-0.39
		l-0.41,3.44L229.27,55.01z"/>
	<path d="M318.77,93.74l5.67-6.19l1.45,1.33l-0.93,6.13l3.48-3.8l1.42,1.31l-5.67,6.19l-1.45-1.33l0.97-6.19l-3.52,3.85
		L318.77,93.74z"/>
	<path d="M325.53,100.03l5.99-5.89l4.14,4.21l-1.23,1.21l-2.74-2.79l-1.11,1.09l2.3,2.34l-1.14,1.12l-2.3-2.34l-1.26,1.24l2.78,2.82
		l-1.25,1.22L325.53,100.03z"/>
	<path d="M371.87,192.86l8.35-0.95l0.67,5.87l-1.72,0.19l-0.44-3.89l-1.55,0.18l0.37,3.26l-1.58,0.18l-0.37-3.26l-1.76,0.2
		l0.45,3.94l-1.73,0.2L371.87,192.86z"/>
	<path d="M372.63,199.37l8.58,2.59l0.15,2.31l-8.18,3.7l-0.14-2.24l1.66-0.7l-0.19-3.01l-1.74-0.47L372.63,199.37z M376.19,202.36
		l0.13,2.1l2.83-1.24L376.19,202.36z"/>
	<path d="M373.04,211.84c-0.01-0.64,0.08-1.25,0.25-1.86c0.18-0.6,0.44-1.11,0.79-1.54l1.5,0.92c-0.18,0.18-0.34,0.4-0.48,0.68
		c-0.13,0.27-0.23,0.57-0.3,0.88c-0.07,0.31-0.1,0.61-0.1,0.9c0.01,0.41,0.08,0.74,0.22,1c0.14,0.26,0.35,0.38,0.61,0.38
		c0.22,0,0.4-0.1,0.54-0.29c0.14-0.19,0.28-0.54,0.42-1.05l0.19-0.72c0.22-0.87,0.54-1.5,0.95-1.88c0.41-0.38,0.91-0.58,1.5-0.59
		c0.5-0.01,0.95,0.13,1.35,0.4c0.4,0.27,0.71,0.65,0.94,1.13c0.23,0.48,0.35,1.03,0.36,1.64c0.01,0.63-0.08,1.22-0.25,1.77
		c-0.18,0.55-0.42,0.99-0.74,1.33l-1.45-0.95c0.24-0.23,0.43-0.54,0.57-0.92c0.14-0.38,0.21-0.78,0.21-1.18
		c0-0.4-0.09-0.71-0.24-0.95c-0.16-0.24-0.36-0.36-0.62-0.35c-0.21,0-0.37,0.1-0.49,0.3c-0.12,0.19-0.25,0.54-0.39,1.04l-0.21,0.74
		c-0.24,0.86-0.55,1.49-0.92,1.88c-0.38,0.39-0.87,0.59-1.47,0.6c-0.53,0.01-1-0.12-1.41-0.39c-0.41-0.27-0.73-0.65-0.97-1.14
		C373.17,213.11,373.05,212.52,373.04,211.84z"/>
	<path d="M373.19,217.96l6.58,0.2l0.07-2.24l1.82,0.06l-0.2,6.48l-1.82-0.06l0.07-2.24l-6.58-0.2L373.19,217.96z"/>
	<path d="M54.71,226.72l-8.23,3.05l-0.12-2.05l5.33-1.77l-5.51-1.24l-0.12-1.99l5.32-1.89l-5.5-1.13l-0.12-2.01l8.54,2.05l0.12,1.96
		l-5.35,1.86l5.54,1.22L54.71,226.72z"/>
	<path d="M54.21,216.17l-8.4-0.02l0.01-5.9l1.73,0l-0.01,3.91l1.56,0l0-3.28l1.6,0l-0.01,3.28l1.77,0l0.01-3.96l1.75,0L54.21,216.17
		z"/>
	<path d="M54.59,205.7c-0.03,0.64-0.16,1.25-0.37,1.84s-0.51,1.08-0.89,1.48l-1.44-1.01c0.2-0.17,0.37-0.38,0.52-0.65
		c0.15-0.26,0.27-0.55,0.36-0.86c0.09-0.31,0.14-0.6,0.16-0.9c0.02-0.41-0.03-0.74-0.16-1.01c-0.13-0.27-0.32-0.41-0.58-0.42
		c-0.22-0.01-0.4,0.07-0.56,0.25c-0.15,0.18-0.31,0.52-0.48,1.02l-0.24,0.71c-0.28,0.86-0.63,1.46-1.07,1.82
		c-0.43,0.36-0.95,0.52-1.53,0.49c-0.5-0.02-0.94-0.19-1.32-0.48c-0.38-0.3-0.67-0.69-0.87-1.18s-0.29-1.05-0.26-1.66
		c0.03-0.63,0.15-1.21,0.37-1.75c0.21-0.54,0.49-0.96,0.82-1.28l1.39,1.04c-0.25,0.22-0.46,0.51-0.63,0.89
		c-0.17,0.37-0.26,0.76-0.28,1.17c-0.02,0.39,0.04,0.72,0.18,0.96c0.14,0.25,0.34,0.38,0.59,0.39c0.21,0.01,0.38-0.08,0.51-0.26
		c0.13-0.19,0.28-0.53,0.45-1.02l0.25-0.72c0.29-0.85,0.64-1.45,1.04-1.82c0.4-0.36,0.9-0.53,1.5-0.5c0.53,0.03,0.99,0.19,1.39,0.48
		c0.39,0.29,0.69,0.69,0.89,1.2C54.54,204.42,54.63,205.02,54.59,205.7z"/>
	<path d="M54.83,199.6l-6.55-0.62l-0.21,2.23l-1.81-0.17l0.61-6.45l1.81,0.17l-0.21,2.23l6.55,0.62L54.83,199.6z"/>
	<path d="M93.87,108.52l-6.18-5.69l1.33-1.45l6.13,0.94l-3.79-3.49l1.31-1.42l6.18,5.69l-1.33,1.45l-6.19-0.99l3.84,3.53
		L93.87,108.52z"/>
	<path d="M101.37,100.55l-7.64-4.33l1.49-1.42l4.79,2.94l-2.61-5.01l1.44-1.37l4.87,2.85l-2.68-4.93l1.46-1.38l3.94,7.85l-1.42,1.35
		l-4.88-2.89l2.63,5.02L101.37,100.55z"/>
</g>
<g>
	<path d="M171.02,43.8l-1.86-7.53l-2.41,0.6l-0.15-0.63l5.5-1.36l0.16,0.63l-2.41,0.6l1.86,7.53L171.02,43.8z"/>
	<path d="M175.63,42.7l-1.7-8.23l2.66-0.55c0.56-0.12,1.06-0.12,1.52-0.02s0.84,0.3,1.15,0.6c0.31,0.3,0.51,0.7,0.62,1.19
		c0.16,0.76,0.03,1.38-0.38,1.88c-0.41,0.5-1.06,0.84-1.96,1.03l-1.96,0.41l0.73,3.55L175.63,42.7z M175.45,38.38l2.04-0.42
		c0.65-0.13,1.13-0.38,1.43-0.74c0.3-0.36,0.39-0.81,0.28-1.35c-0.11-0.53-0.38-0.91-0.81-1.15c-0.43-0.24-0.96-0.3-1.6-0.16
		l-2.06,0.42L175.45,38.38z"/>
	<path d="M181.73,41.44l1.99-8.83l0.59-0.1l4.83,7.73l-0.77,0.12l-1.32-2.12l-4.05,0.66l-0.53,2.42L181.73,41.44z M183.15,38.22
		l3.54-0.57l-2.53-4.06L183.15,38.22z"/>
	<path d="M190.45,40.05l-0.91-8.35l0.68-0.08l4.13,5.23l2.8-5.99l0.64-0.07l0.91,8.35l-0.69,0.08l-0.77-7.03l-2.57,5.34l-0.63,0.07
		l-3.74-4.75l0.78,7.12L190.45,40.05z"/>
	<path d="M204.82,38.96c-0.62,0.03-1.19-0.05-1.73-0.25c-0.54-0.2-1.02-0.48-1.43-0.85c-0.41-0.38-0.74-0.82-0.99-1.34
		c-0.25-0.52-0.39-1.09-0.42-1.71c-0.03-0.62,0.05-1.21,0.24-1.75c0.19-0.54,0.48-1.02,0.85-1.44c0.37-0.41,0.82-0.75,1.34-0.99
		c0.52-0.25,1.08-0.38,1.7-0.42c0.61-0.03,1.19,0.05,1.72,0.25c0.54,0.2,1.02,0.49,1.43,0.87c0.42,0.38,0.75,0.83,1,1.35
		c0.25,0.52,0.39,1.08,0.42,1.69c0.03,0.62-0.05,1.2-0.25,1.74c-0.19,0.54-0.48,1.02-0.85,1.44c-0.38,0.42-0.82,0.75-1.34,1
		C206,38.79,205.44,38.93,204.82,38.96z M204.79,38.29c0.67-0.03,1.27-0.22,1.81-0.55c0.53-0.33,0.95-0.79,1.25-1.36
		c0.3-0.57,0.43-1.23,0.39-1.97c-0.04-0.74-0.23-1.38-0.59-1.92c-0.35-0.54-0.81-0.95-1.38-1.23c-0.57-0.28-1.18-0.4-1.85-0.37
		c-0.67,0.03-1.27,0.22-1.81,0.55c-0.53,0.34-0.95,0.79-1.25,1.36c-0.3,0.57-0.43,1.23-0.39,1.97c0.04,0.74,0.23,1.38,0.59,1.92
		c0.35,0.54,0.81,0.95,1.38,1.23C203.5,38.2,204.12,38.32,204.79,38.29z"/>
	<path d="M212.94,38.56l-0.01-3.74l-3-4.65l0.84,0l2.53,3.97l2.49-3.98l0.82,0l-2.98,4.66l0.01,3.74L212.94,38.56z"/>
	<path d="M217.93,38.58l0.36-8.39l0.6,0.03l4.71,7.26l0.3-7.05l0.7,0.03l-0.36,8.39l-0.6-0.02l-4.71-7.34l-0.3,7.12L217.93,38.58z"
		/>
	<path d="M228.24,39.17l0.67-7.72l-2.48-0.21l0.06-0.65l5.64,0.49l-0.05,0.65l-2.47-0.21l-0.67,7.72L228.24,39.17z"/>
	<path d="M231.96,39.48l4.42-7.9l0.59,0.08l2.44,8.78l-0.77-0.1l-0.66-2.41l-4.07-0.52l-1.2,2.17L231.96,39.48z M234.23,36.8
		l3.56,0.45l-1.27-4.61L234.23,36.8z"/>
	<path d="M240.72,40.65l1.46-8.27l0.59,0.11l3.71,7.82l1.22-6.95l0.69,0.12l-1.46,8.27l-0.59-0.1l-3.7-7.89l-1.24,7.02L240.72,40.65
		z"/>
	<path d="M248.25,41.99l5.15-7.45l0.58,0.13l1.59,8.97l-0.76-0.17l-0.43-2.46l-4-0.9l-1.4,2.05L248.25,41.99z M250.77,39.54
		l3.5,0.79l-0.83-4.71L250.77,39.54z"/>
	<path d="M320.21,74.88l5.19-6.61l3.44,2.7l-0.4,0.51l-2.89-2.27l-4.79,6.1L320.21,74.88z"/>
	<path d="M324.84,78.55l5.43-6.41l2.07,1.75c0.43,0.37,0.75,0.76,0.96,1.19c0.21,0.42,0.28,0.85,0.24,1.28
		c-0.04,0.43-0.23,0.83-0.55,1.22c-0.5,0.59-1.07,0.88-1.71,0.86c-0.64-0.01-1.32-0.32-2.02-0.91l-1.53-1.29L325.37,79L324.84,78.55
		z M328.13,75.74l1.59,1.35c0.51,0.43,1,0.65,1.46,0.67s0.88-0.19,1.24-0.61c0.35-0.41,0.49-0.86,0.41-1.35
		c-0.08-0.49-0.36-0.94-0.86-1.36l-1.6-1.36L328.13,75.74z"/>
	<path d="M330.32,83.26l5.68-6.19l3.64,3.35l-0.44,0.48l-3.13-2.87l-2.01,2.19l2.77,2.55l-0.44,0.48l-2.78-2.55l-2.35,2.56l3.15,2.9
		l-0.44,0.48L330.32,83.26z"/>
	<path d="M335.46,88.05l5.91-5.97l3.11,3.07l-0.46,0.46l-2.61-2.58l-5.45,5.51L335.46,88.05z"/>
	<path d="M342.09,95.12c-0.42-0.45-0.72-0.95-0.92-1.49c-0.2-0.54-0.28-1.09-0.26-1.65c0.03-0.56,0.16-1.1,0.4-1.62
		c0.24-0.52,0.59-0.99,1.04-1.41c0.46-0.42,0.96-0.74,1.5-0.93c0.54-0.2,1.09-0.29,1.65-0.27c0.56,0.02,1.1,0.15,1.62,0.39
		c0.52,0.24,0.99,0.59,1.41,1.04c0.42,0.45,0.72,0.94,0.91,1.48s0.28,1.09,0.25,1.65s-0.16,1.1-0.4,1.63
		c-0.24,0.52-0.58,0.99-1.03,1.41c-0.46,0.42-0.96,0.73-1.5,0.93c-0.54,0.2-1.09,0.29-1.65,0.26c-0.56-0.02-1.1-0.15-1.62-0.39
		C342.98,95.92,342.51,95.57,342.09,95.12z M342.59,94.67c0.46,0.49,0.98,0.84,1.58,1.03c0.6,0.19,1.21,0.22,1.84,0.09
		c0.63-0.14,1.22-0.46,1.77-0.96c0.54-0.5,0.91-1.07,1.1-1.68c0.19-0.62,0.21-1.23,0.06-1.85c-0.15-0.61-0.45-1.17-0.9-1.66
		c-0.46-0.49-0.98-0.84-1.58-1.03c-0.6-0.2-1.21-0.22-1.84-0.09c-0.63,0.14-1.22,0.46-1.77,0.96c-0.54,0.5-0.91,1.07-1.1,1.68
		c-0.19,0.62-0.21,1.23-0.06,1.84C341.83,93.62,342.13,94.17,342.59,94.67z"/>
	<path d="M345.91,99.09l0.45-0.38l4.54-0.37l1.03-4.23l0.45-0.38l3.4,4.05l-0.5,0.42l-2.84-3.38l-0.99,4.12l-4.51,0.37l2.99,3.57
		l-0.5,0.42L345.91,99.09z"/>
	<path d="M385.64,181.64l8.81,1.8l0.1,0.59l-7.74,4.69l-0.13-0.79l6.74-4.02l-7.65-1.49L385.64,181.64z"/>
	<path d="M386.98,190.06l8.34-1.03l0.61,4.91l-0.64,0.08l-0.52-4.22l-2.95,0.37l0.46,3.74l-0.64,0.08l-0.46-3.74l-3.46,0.43
		l0.53,4.25L387.6,195L386.98,190.06z"/>
	<path d="M387.8,197.01l8.37-0.69l0.21,2.5c0.06,0.75-0.06,1.38-0.38,1.89c-0.32,0.51-0.82,0.79-1.51,0.84
		c-0.28,0.02-0.55-0.03-0.82-0.15c-0.27-0.12-0.51-0.29-0.72-0.49c-0.21-0.2-0.36-0.41-0.44-0.62c-0.09,0.48-0.3,0.89-0.64,1.25
		c-0.34,0.36-0.8,0.56-1.37,0.61c-0.42,0.03-0.81-0.04-1.17-0.23c-0.36-0.18-0.65-0.47-0.88-0.84c-0.23-0.38-0.37-0.84-0.42-1.37
		L387.8,197.01z M388.5,197.65l0.15,1.83c0.06,0.71,0.24,1.23,0.54,1.55c0.3,0.32,0.73,0.46,1.3,0.41c0.56-0.05,0.97-0.26,1.22-0.64
		c0.26-0.38,0.35-0.95,0.29-1.71l-0.14-1.72L388.5,197.65z M392.51,197.31l0.14,1.66c0.05,0.61,0.23,1.08,0.54,1.42
		c0.31,0.34,0.72,0.49,1.22,0.45c0.48-0.04,0.83-0.24,1.05-0.62c0.22-0.37,0.3-0.88,0.25-1.53l-0.14-1.65L392.51,197.31z"/>
	<path d="M388.32,203.25l8.53,3.05l0.02,0.6l-8.25,3.86l-0.03-0.78l2.26-1.05l-0.16-4.1l-2.34-0.82L388.32,203.25z M391.34,205.05
		l0.14,3.58l4.34-2.02L391.34,205.05z"/>
	<path d="M388.62,212.06l8.4,0.06l0,0.6l-7.09,4.96l7.05,0.05l0,0.69l-8.4-0.06l0-0.6l7.17-4.96l-7.13-0.05L388.62,212.06z"/>
	<path d="M388.39,222.39l7.74,0.39l0.13-2.48l0.65,0.03l-0.29,5.66l-0.65-0.03l0.12-2.48l-7.74-0.39L388.39,222.39z"/>
	<path d="M388.12,227.12l8.37,0.75l-0.44,4.92l-0.64-0.06l0.38-4.23l-2.96-0.26l-0.34,3.75l-0.65-0.06l0.34-3.75l-3.47-0.31
		l-0.38,4.27l-0.64-0.06L388.12,227.12z"/>
	<path d="M387.52,233.45l0.58,0.08l3.35,3.1l3.8-2.11l0.58,0.08l-0.68,5.25l-0.64-0.08l0.57-4.38l-3.7,2.06l-3.33-3.07l-0.6,4.62
		l-0.64-0.08L387.52,233.45z"/>
	<path d="M40.8,243.23l-8.3,1.27l-0.94-6.14l8.3-1.27l0.11,0.69l-7.66,1.18l0.73,4.77l7.66-1.17L40.8,243.23z"/>
	<path d="M39.35,230.99c0.06,0.61,0.01,1.19-0.16,1.74c-0.17,0.55-0.43,1.04-0.78,1.47c-0.35,0.43-0.79,0.78-1.29,1.06
		c-0.51,0.27-1.07,0.44-1.69,0.5c-0.62,0.06-1.21,0.01-1.76-0.15c-0.55-0.17-1.04-0.43-1.48-0.78c-0.43-0.35-0.79-0.78-1.06-1.29
		c-0.27-0.51-0.44-1.07-0.5-1.68c-0.06-0.61-0.01-1.19,0.16-1.74c0.17-0.55,0.43-1.04,0.79-1.47c0.36-0.43,0.79-0.79,1.3-1.06
		c0.5-0.27,1.06-0.44,1.67-0.5c0.62-0.06,1.2-0.01,1.75,0.16c0.55,0.17,1.04,0.43,1.48,0.78c0.43,0.36,0.79,0.78,1.06,1.29
		C39.12,229.82,39.29,230.38,39.35,230.99z M38.68,231.05c-0.07-0.67-0.28-1.26-0.64-1.78c-0.36-0.52-0.83-0.91-1.42-1.18
		c-0.59-0.27-1.25-0.37-1.99-0.29c-0.74,0.07-1.37,0.3-1.89,0.68c-0.52,0.38-0.91,0.86-1.16,1.44c-0.25,0.58-0.34,1.2-0.28,1.87
		c0.07,0.67,0.28,1.26,0.64,1.78c0.36,0.52,0.83,0.91,1.42,1.18c0.58,0.27,1.25,0.37,1.99,0.29c0.74-0.07,1.37-0.3,1.89-0.68
		c0.52-0.38,0.91-0.86,1.16-1.44C38.66,232.35,38.75,231.72,38.68,231.05z"/>
	<path d="M38.55,222.9l-3.74,0.19l-4.5,3.23l-0.04-0.84l3.84-2.72l-4.1-2.29l-0.04-0.81l4.8,2.74l3.74-0.19L38.55,222.9z"/>
	<path d="M38.32,217.92l-8.4,0.06l0-0.6l7.02-5.07l-7.06,0.05l0-0.7l8.4-0.06l0,0.6l-7.09,5.07l7.13-0.05L38.32,217.92z"/>
	<path d="M38.33,209.29l-8.39-0.32l0.19-4.94l0.65,0.02l-0.16,4.24l2.97,0.11l0.14-3.77l0.65,0.02l-0.14,3.77l3.48,0.13l0.16-4.28
		l0.65,0.02L38.33,209.29z"/>
	<path d="M38.63,202.29l-8.37-0.69l0.05-0.6l7.45-4.42L30.72,196l0.06-0.69l8.37,0.69l-0.05,0.6l-7.52,4.41l7.1,0.59L38.63,202.29z"
		/>
	<path d="M39.63,192.02l-7.69-0.97l-0.31,2.46l-0.64-0.08l0.71-5.62l0.64,0.08l-0.31,2.46l7.69,0.97L39.63,192.02z"/>
	<path d="M40.26,187.35l-8.29-1.38l0.81-4.88l0.64,0.11l-0.7,4.19l2.94,0.49l0.62-3.72l0.64,0.11l-0.62,3.72l3.43,0.57l0.7-4.23
		l0.64,0.11L40.26,187.35z"/>
	<path d="M41.33,181.07l-0.58-0.12l-3.11-3.34l-3.95,1.82l-0.58-0.12l1.07-5.18l0.63,0.13l-0.89,4.33l3.85-1.78l3.09,3.31l0.94-4.56
		l0.63,0.13L41.33,181.07z"/>
	<path d="M76.05,105.05l-6.47-5.36l0.44-0.53l6.61,0.89l-2.16-6.25l0.41-0.5l6.47,5.36l-0.44,0.54l-5.44-4.51l1.87,5.62l-0.41,0.49
		l-5.99-0.8l5.51,4.57L76.05,105.05z"/>
	<path d="M82.21,97.69l-3.88-8.18l0.41-0.44l8.57,3.1l-0.53,0.57l-2.34-0.86l-2.78,3.02l1.08,2.23L82.21,97.69z M81.34,94.27
		l2.43-2.64L79.27,90L81.34,94.27z"/>
	<path d="M81.1,84.8c-0.11,0.11-0.24,0.17-0.4,0.17c-0.16,0-0.29-0.05-0.4-0.16c-0.11-0.11-0.17-0.24-0.17-0.4
		c0-0.16,0.05-0.29,0.16-0.4c0.11-0.11,0.24-0.17,0.4-0.17c0.16,0,0.29,0.05,0.4,0.16s0.17,0.24,0.17,0.4
		C81.27,84.56,81.21,84.69,81.1,84.8z M82.21,83.67c-0.11,0.11-0.24,0.17-0.4,0.17c-0.16,0-0.29-0.05-0.4-0.16
		c-0.11-0.11-0.17-0.24-0.17-0.4c0-0.16,0.05-0.29,0.16-0.4c0.11-0.11,0.24-0.17,0.4-0.17c0.16,0,0.29,0.05,0.4,0.16
		c0.11,0.11,0.17,0.24,0.17,0.4C82.38,83.43,82.32,83.56,82.21,83.67z M88.28,91.22l-6-5.88l0.49-0.5l6,5.88L88.28,91.22z"/>
	<path d="M89.95,89.49l-0.41-0.42l-0.68-4.51l-4.29-0.73l-0.41-0.42l3.81-3.67l0.45,0.47l-3.18,3.07l4.18,0.7l0.68,4.48l3.35-3.23
		l0.45,0.47L89.95,89.49z"/>
	<path d="M96.48,83.34l-5.17-5.78l-1.85,1.66l-0.43-0.48l4.22-3.78l0.43,0.48l-1.85,1.66L97,82.88L96.48,83.34z"/>
	<path d="M100.03,80.22l-5.35-6.47l2.09-1.73c0.44-0.36,0.88-0.61,1.34-0.73c0.45-0.12,0.89-0.13,1.3-0.01
		c0.41,0.12,0.78,0.38,1.1,0.76c0.49,0.6,0.68,1.21,0.55,1.84c-0.12,0.63-0.54,1.24-1.25,1.83l-1.54,1.28l2.31,2.79L100.03,80.22z
		 M97.84,76.48l1.61-1.33c0.51-0.43,0.82-0.87,0.92-1.32c0.1-0.46-0.03-0.9-0.39-1.33c-0.34-0.42-0.76-0.63-1.25-0.64
		c-0.49-0.01-0.99,0.19-1.49,0.6l-1.62,1.34L97.84,76.48z"/>
	<path d="M108.78,73.49c-0.49,0.37-1.02,0.62-1.58,0.76c-0.56,0.14-1.11,0.17-1.67,0.09c-0.55-0.08-1.08-0.27-1.57-0.56
		c-0.49-0.29-0.93-0.69-1.3-1.19c-0.37-0.5-0.63-1.03-0.77-1.59c-0.14-0.56-0.17-1.11-0.1-1.67c0.08-0.55,0.26-1.08,0.56-1.57
		c0.29-0.49,0.69-0.92,1.18-1.29c0.49-0.37,1.01-0.62,1.57-0.75c0.56-0.14,1.11-0.16,1.67-0.08c0.56,0.08,1.08,0.27,1.58,0.56
		c0.49,0.29,0.93,0.68,1.29,1.17c0.37,0.5,0.63,1.02,0.77,1.58s0.17,1.12,0.09,1.67c-0.08,0.55-0.27,1.08-0.56,1.57
		C109.66,72.69,109.27,73.12,108.78,73.49z M108.37,72.95c0.54-0.4,0.93-0.89,1.19-1.47c0.26-0.58,0.35-1.19,0.28-1.82
		c-0.07-0.64-0.33-1.26-0.78-1.85c-0.45-0.6-0.97-1.02-1.56-1.27s-1.2-0.33-1.83-0.25c-0.62,0.08-1.21,0.32-1.75,0.73
		c-0.54,0.4-0.93,0.89-1.19,1.47c-0.26,0.58-0.35,1.18-0.28,1.82c0.07,0.64,0.33,1.26,0.78,1.85c0.45,0.6,0.97,1.02,1.56,1.27
		c0.59,0.25,1.2,0.33,1.83,0.25C107.25,73.59,107.84,73.35,108.37,72.95z"/>
	<path d="M113.11,70.11l-0.33-0.49l0.1-4.56l-4.1-1.46l-0.33-0.49l4.38-2.96l0.36,0.54l-3.66,2.47l4,1.41l-0.1,4.53l3.86-2.61
		l0.36,0.54L113.11,70.11z"/>
</g>
<g>
	<path d="M213.74,21.08c-0.52,0-0.98-0.12-1.4-0.35c-0.42-0.23-0.77-0.55-1.07-0.96c-0.3-0.41-0.52-0.89-0.68-1.42
		s-0.23-1.11-0.23-1.72c0-0.61,0.08-1.19,0.24-1.73c0.16-0.54,0.38-1.01,0.68-1.42c0.3-0.41,0.65-0.73,1.07-0.96
		c0.42-0.23,0.88-0.35,1.4-0.35c0.51,0,0.98,0.12,1.39,0.35c0.41,0.23,0.77,0.55,1.07,0.96c0.3,0.41,0.52,0.88,0.68,1.42
		c0.16,0.54,0.24,1.11,0.24,1.73c0,0.61-0.08,1.18-0.24,1.72c-0.16,0.54-0.39,1.01-0.68,1.42c-0.3,0.41-0.65,0.73-1.07,0.96
		S214.25,21.08,213.74,21.08z M213.74,20.39c0.52,0,0.98-0.15,1.37-0.46c0.39-0.31,0.7-0.75,0.92-1.31c0.22-0.57,0.33-1.23,0.33-2
		s-0.11-1.43-0.33-2s-0.53-1-0.92-1.31s-0.85-0.46-1.37-0.46c-0.52,0-0.98,0.15-1.37,0.46c-0.4,0.31-0.7,0.75-0.92,1.31
		c-0.22,0.57-0.33,1.23-0.33,2c0,0.77,0.11,1.43,0.33,2c0.22,0.57,0.53,1,0.92,1.31C212.76,20.24,213.22,20.39,213.74,20.39z"/>
	<path d="M346.88,74.09l1.3-1.39l-3.23-3.05l0.42-0.44l6.62-2.04l0.58,0.54l-6.59,2.01l2.66,2.5l1.46-1.55l0.5,0.47l-1.46,1.55
		l1.07,1.01l-0.45,0.48l-1.07-1.01l-1.31,1.39L346.88,74.09z"/>
	<path d="M350.85,78.24c-0.34-0.35-0.63-0.74-0.86-1.17c-0.23-0.43-0.37-0.83-0.41-1.21l0.67-0.23c0.05,0.36,0.17,0.73,0.36,1.11
		c0.19,0.38,0.43,0.71,0.7,0.99c0.51,0.52,1.06,0.8,1.63,0.84c0.57,0.04,1.09-0.17,1.55-0.63c0.3-0.29,0.48-0.62,0.54-0.97
		c0.07-0.36,0.03-0.72-0.11-1.08c-0.14-0.37-0.36-0.71-0.67-1.02c-0.39-0.39-0.88-0.71-1.49-0.96l-0.01-0.42l3.17-2.51l3.17,3.18
		l-0.47,0.46l-2.77-2.81l-2.34,1.85c0.54,0.25,1,0.56,1.36,0.92c0.37,0.38,0.64,0.8,0.8,1.25c0.16,0.46,0.19,0.91,0.09,1.37
		c-0.1,0.46-0.34,0.88-0.73,1.27c-0.4,0.4-0.85,0.65-1.33,0.75c-0.48,0.11-0.97,0.07-1.46-0.1
		C351.73,78.98,351.27,78.68,350.85,78.24z"/>
	<path d="M406.41,203.72l0.6-0.29c0.1,0.72,0.29,1.35,0.57,1.89c0.28,0.54,0.62,0.99,1.03,1.35c0.4,0.36,0.85,0.64,1.33,0.84
		c0.48,0.2,0.98,0.32,1.48,0.36c-0.44-0.23-0.8-0.56-1.07-0.98c-0.27-0.42-0.42-0.9-0.44-1.43s0.07-1.01,0.29-1.46
		c0.21-0.44,0.52-0.8,0.92-1.07s0.87-0.42,1.4-0.44c0.52-0.02,0.99,0.09,1.42,0.33c0.42,0.24,0.77,0.58,1.03,1.03
		c0.26,0.44,0.4,0.95,0.43,1.53c0.02,0.61-0.09,1.15-0.33,1.63s-0.62,0.87-1.12,1.15c-0.5,0.29-1.12,0.45-1.86,0.48
		c-0.73,0.03-1.41-0.07-2.03-0.3c-0.63-0.23-1.19-0.57-1.68-1.01c-0.49-0.44-0.91-0.97-1.24-1.59
		C406.78,205.13,406.55,204.46,406.41,203.72z M410.61,205.58c0.02,0.42,0.12,0.8,0.31,1.13c0.19,0.33,0.45,0.59,0.77,0.77
		c0.32,0.19,0.67,0.27,1.06,0.26c0.4-0.02,0.75-0.13,1.04-0.33s0.53-0.48,0.69-0.82c0.16-0.34,0.23-0.74,0.21-1.17
		c-0.02-0.44-0.12-0.82-0.31-1.15c-0.19-0.33-0.44-0.59-0.75-0.77s-0.67-0.26-1.07-0.24c-0.39,0.02-0.73,0.13-1.03,0.34
		c-0.3,0.21-0.54,0.49-0.7,0.84C410.67,204.77,410.59,205.16,410.61,205.58z"/>
	<path d="M406.65,213.73c0-0.52,0.12-0.98,0.35-1.4c0.23-0.42,0.55-0.77,0.96-1.07c0.41-0.29,0.88-0.52,1.42-0.68
		c0.54-0.16,1.11-0.24,1.72-0.24c0.61,0,1.19,0.08,1.73,0.23c0.54,0.16,1.01,0.38,1.42,0.68c0.41,0.29,0.73,0.65,0.96,1.07
		c0.23,0.42,0.35,0.88,0.35,1.4c0,0.51-0.12,0.98-0.35,1.39c-0.23,0.41-0.55,0.77-0.96,1.07c-0.41,0.3-0.88,0.53-1.42,0.68
		c-0.54,0.16-1.11,0.24-1.73,0.24c-0.61,0-1.18-0.08-1.72-0.24c-0.54-0.16-1.01-0.39-1.42-0.68c-0.41-0.3-0.73-0.65-0.96-1.07
		C406.77,214.71,406.65,214.25,406.65,213.73z M407.33,213.73c0,0.52,0.16,0.98,0.46,1.37c0.31,0.39,0.75,0.7,1.31,0.92
		c0.57,0.22,1.23,0.33,2,0.33c0.76,0,1.43-0.11,2-0.33c0.56-0.22,1-0.53,1.31-0.92s0.46-0.85,0.46-1.37s-0.16-0.98-0.46-1.37
		c-0.31-0.39-0.75-0.7-1.31-0.92c-0.57-0.22-1.23-0.33-2-0.33s-1.43,0.11-2,0.33c-0.56,0.22-1,0.53-1.31,0.92
		C407.49,212.75,407.33,213.21,407.33,213.73z"/>
	<path d="M20.93,222.1l-0.62,0.02l-1.81-1.83c-0.59-0.59-1.1-1.09-1.55-1.47c-0.45-0.39-0.87-0.67-1.25-0.86
		c-0.38-0.18-0.77-0.27-1.15-0.26c-0.56,0.01-0.99,0.22-1.3,0.62c-0.31,0.4-0.46,0.94-0.44,1.62c0.01,0.38,0.08,0.74,0.2,1.09
		c0.12,0.35,0.3,0.63,0.52,0.84l-0.52,0.32c-0.55-0.6-0.84-1.37-0.87-2.33c-0.01-0.54,0.07-1.03,0.26-1.45
		c0.19-0.42,0.46-0.76,0.82-1s0.79-0.38,1.29-0.39c0.36-0.01,0.72,0.05,1.1,0.18c0.37,0.13,0.79,0.38,1.26,0.74
		c0.47,0.36,1.03,0.87,1.69,1.54l1.68,1.74l-0.13-4.56l0.66-0.02L20.93,222.1z"/>
	<path d="M20.78,214.8l-7.86-3.95l-0.03,4.42l-0.66,0l0.04-5.21l0.61,0l7.91,3.95L20.78,214.8z"/>
	<path d="M21.16,205.53c-0.02,0.52-0.15,0.98-0.4,1.39c-0.25,0.41-0.58,0.75-1,1.03c-0.42,0.28-0.9,0.49-1.45,0.62
		c-0.54,0.14-1.12,0.2-1.73,0.17c-0.61-0.02-1.19-0.12-1.72-0.3c-0.53-0.18-0.99-0.42-1.39-0.73c-0.4-0.31-0.71-0.68-0.92-1.1
		c-0.22-0.43-0.32-0.9-0.3-1.41c0.02-0.51,0.15-0.97,0.4-1.38c0.25-0.41,0.58-0.75,1-1.03c0.42-0.28,0.9-0.49,1.44-0.63
		c0.54-0.14,1.12-0.2,1.73-0.17c0.61,0.02,1.18,0.12,1.71,0.3c0.53,0.18,1,0.42,1.4,0.73c0.4,0.31,0.71,0.68,0.92,1.1
		C21.07,204.55,21.17,205.01,21.16,205.53z M20.47,205.5c0.02-0.52-0.12-0.98-0.41-1.39c-0.29-0.41-0.72-0.73-1.28-0.97
		c-0.56-0.24-1.22-0.37-1.98-0.4c-0.76-0.03-1.43,0.06-2,0.26c-0.57,0.2-1.02,0.49-1.34,0.87c-0.32,0.38-0.5,0.83-0.51,1.36
		c-0.02,0.52,0.12,0.98,0.41,1.39c0.29,0.41,0.72,0.73,1.28,0.97c0.56,0.24,1.22,0.37,1.98,0.4c0.76,0.03,1.43-0.06,2.01-0.26
		c0.57-0.2,1.02-0.49,1.34-0.87C20.28,206.47,20.45,206.02,20.47,205.5z"/>
	<path d="M72.42,82.78c-0.34,0.36-0.72,0.66-1.14,0.91s-0.82,0.4-1.18,0.46l-0.26-0.66c0.36-0.06,0.72-0.2,1.1-0.41
		c0.37-0.21,0.69-0.46,0.96-0.74c0.48-0.52,0.73-1.05,0.76-1.6c0.02-0.55-0.19-1.03-0.64-1.45c-0.44-0.41-0.94-0.57-1.49-0.48
		c-0.55,0.09-1.08,0.41-1.59,0.95c-0.22,0.24-0.43,0.52-0.62,0.83l-0.56-0.17l-0.11-4.36l-2.87,3.08l-0.48-0.45l3.54-3.79l0.45,0.42
		l0.08,4.23c0.39-0.48,0.82-0.85,1.3-1.11c0.48-0.27,0.97-0.38,1.46-0.35c0.5,0.03,0.96,0.25,1.4,0.66
		c0.39,0.37,0.65,0.78,0.77,1.25s0.1,0.93-0.05,1.42C73.1,81.89,72.83,82.35,72.42,82.78z"/>
	<path d="M76.8,77.96l-5.59-5.53l-1.08,2.43l-0.51-0.25l1.42-3.24l0.04-0.04l6.2,6.14L76.8,77.96z"/>
	<path d="M80.69,74.4c-0.36,0.34-0.75,0.62-1.19,0.84c-0.44,0.22-0.84,0.35-1.21,0.39l-0.22-0.67c0.36-0.04,0.73-0.15,1.12-0.34
		c0.39-0.19,0.72-0.42,1-0.68c0.53-0.5,0.82-1.04,0.87-1.61c0.05-0.57-0.15-1.09-0.6-1.56c-0.29-0.3-0.61-0.49-0.96-0.56
		c-0.36-0.07-0.72-0.04-1.08,0.09c-0.37,0.13-0.71,0.35-1.03,0.65c-0.4,0.38-0.73,0.87-0.99,1.48l-0.42,0l-2.45-3.21l3.24-3.11
		l0.45,0.48l-2.86,2.72l1.8,2.38c0.26-0.54,0.58-0.99,0.95-1.34c0.39-0.37,0.81-0.63,1.27-0.78c0.46-0.15,0.92-0.17,1.37-0.06
		c0.46,0.11,0.88,0.36,1.25,0.76c0.39,0.41,0.63,0.86,0.73,1.34c0.1,0.49,0.06,0.97-0.12,1.46C81.44,73.53,81.13,73.98,80.69,74.4z"
		/>
</g>
<g>
	<path d="M63.52,318.21l7.14-5.08l2.64,3.71l-0.55,0.39l-2.22-3.12l-6.59,4.69L63.52,318.21z"/>
	<path d="M66.69,322.67l9.09-2.58l0.38,0.5l-4.67,8.28l-0.5-0.64l1.29-2.26l-2.62-3.38l-2.48,0.72L66.69,322.67z M70.35,322.36
		l2.29,2.96l2.46-4.35L70.35,322.36z"/>
	<path d="M72.59,330.16l6.68-5.68l1.83,2.16c0.38,0.45,0.64,0.91,0.78,1.38s0.15,0.92,0.02,1.36c-0.12,0.43-0.38,0.82-0.78,1.16
		c-0.61,0.52-1.25,0.72-1.91,0.6c-0.66-0.12-1.3-0.55-1.93-1.28l-1.35-1.59l-2.88,2.45L72.59,330.16z M76.45,327.83l1.41,1.66
		c0.45,0.53,0.92,0.84,1.39,0.94c0.48,0.09,0.94-0.05,1.38-0.42c0.43-0.36,0.65-0.8,0.65-1.32c0.01-0.51-0.21-1.03-0.65-1.54
		l-1.42-1.67L76.45,327.83z"/>
	<path d="M77.76,336.21l6.37-6.02l0.49,0.52l-1.75,6.73l6.75-1.44l0.46,0.49l-6.37,6.02l-0.5-0.53l5.36-5.07l-6.06,1.23l-0.46-0.48
		l1.59-6.1l-5.43,5.13L77.76,336.21z"/>
	<path d="M85.73,344.47l6.02-6.37l4.71,4.45l-6.02,6.37l-0.53-0.5l5.55-5.88l-3.66-3.46l-5.55,5.88L85.73,344.47z"/>
	<path d="M92.52,350.79l5.69-6.67l0.55,0.47l-2.41,2.83l3.83,3.27l2.41-2.83l0.55,0.47L97.46,355l-0.55-0.47l2.83-3.32l-3.83-3.27
		l-2.84,3.32L92.52,350.79z"/>
	<path d="M99.07,356.3l0.38-0.48l4.56-1.37l0.12-4.54l0.38-0.48l4.36,3.39l-0.42,0.53l-3.64-2.83l-0.11,4.42l-4.52,1.37l3.83,2.98
		l-0.42,0.53L99.07,356.3z"/>
	<path d="M195.77,395.97c-0.64-0.06-1.22-0.23-1.75-0.52c-0.53-0.28-0.98-0.65-1.35-1.1s-0.64-0.96-0.82-1.54
		c-0.17-0.58-0.23-1.18-0.17-1.83c0.06-0.65,0.23-1.24,0.52-1.77c0.28-0.53,0.65-0.98,1.1-1.35c0.45-0.37,0.96-0.64,1.53-0.82
		s1.18-0.23,1.82-0.17c0.64,0.06,1.22,0.24,1.74,0.52c0.53,0.29,0.97,0.66,1.34,1.11s0.64,0.97,0.82,1.54
		c0.18,0.57,0.24,1.18,0.17,1.81c-0.06,0.64-0.24,1.23-0.52,1.76c-0.29,0.53-0.65,0.98-1.1,1.35s-0.96,0.65-1.53,0.82
		C197.01,395.97,196.4,396.03,195.77,395.97z M195.84,395.27c0.7,0.07,1.35-0.03,1.95-0.29c0.6-0.26,1.1-0.67,1.49-1.21
		c0.39-0.54,0.63-1.2,0.7-1.98c0.08-0.77-0.03-1.46-0.31-2.07c-0.28-0.61-0.69-1.1-1.23-1.48c-0.54-0.38-1.16-0.6-1.86-0.66
		c-0.7-0.07-1.35,0.03-1.95,0.29c-0.6,0.26-1.1,0.67-1.49,1.21c-0.4,0.54-0.63,1.2-0.7,1.98s0.03,1.46,0.31,2.07
		c0.28,0.61,0.69,1.1,1.23,1.48C194.52,394.98,195.14,395.2,195.84,395.27z"/>
	<path d="M201.88,396.29l0.03-0.61l2.93-3.75l-2.52-3.78l0.03-0.61l5.51,0.26l-0.03,0.68l-4.6-0.22l2.46,3.67l-2.91,3.72l4.85,0.23
		l-0.03,0.67L201.88,396.29z"/>
	<path d="M211.48,396.62l0.07-8.09l-2.59-0.02l0-0.68l5.91,0.05l-0.01,0.68l-2.59-0.02l-0.07,8.09L211.48,396.62z"/>
	<path d="M216.73,396.61l-0.28-8.76l2.83-0.09c0.59-0.02,1.12,0.06,1.57,0.25c0.45,0.19,0.81,0.46,1.08,0.83
		c0.26,0.37,0.41,0.81,0.42,1.33c0.03,0.8-0.21,1.43-0.72,1.87c-0.51,0.44-1.24,0.68-2.2,0.71l-2.09,0.07l0.12,3.78L216.73,396.61z
		 M217.31,392.14l2.18-0.07c0.7-0.02,1.23-0.19,1.6-0.51c0.37-0.31,0.55-0.76,0.53-1.34c-0.02-0.56-0.23-1.01-0.62-1.33
		c-0.4-0.32-0.94-0.47-1.61-0.45l-2.19,0.07L217.31,392.14z"/>
	<path d="M224.53,396.29l-0.55-8.75l0.73-0.04l0.55,8.75L224.53,396.29z"/>
	<path d="M226.91,396.17l2.68-9.06l0.62-0.06l4.49,8.38l-0.81,0.08l-1.22-2.3l-4.26,0.41l-0.72,2.48L226.91,396.17z M228.61,392.91
		l3.73-0.35l-2.36-4.4L228.61,392.91z"/>
	<path d="M324.81,358.9l-0.38-0.48l-0.26-4.75l-4.38-1.19L319.4,352l4.32-3.43l0.42,0.53l-3.61,2.87l4.27,1.15l0.26,4.72l3.8-3.02
		l0.42,0.53L324.81,358.9z"/>
	<path d="M334.12,351.46c-0.48,0.42-1.01,0.73-1.58,0.92c-0.57,0.19-1.14,0.27-1.72,0.23s-1.14-0.19-1.68-0.46
		c-0.54-0.27-1.02-0.64-1.45-1.13c-0.43-0.49-0.74-1.02-0.94-1.59c-0.19-0.57-0.27-1.14-0.23-1.72c0.04-0.58,0.19-1.14,0.45-1.68
		c0.26-0.54,0.64-1.02,1.12-1.44c0.48-0.42,1-0.73,1.57-0.91s1.15-0.26,1.73-0.22s1.15,0.19,1.69,0.46
		c0.54,0.26,1.02,0.63,1.44,1.11c0.43,0.49,0.74,1.01,0.93,1.58c0.19,0.57,0.27,1.15,0.23,1.73c-0.04,0.58-0.19,1.14-0.45,1.68
		S334.6,351.04,334.12,351.46z M333.65,350.94c0.53-0.46,0.9-1,1.12-1.62s0.27-1.26,0.14-1.92c-0.13-0.66-0.45-1.28-0.96-1.87
		c-0.51-0.58-1.09-0.98-1.72-1.19c-0.64-0.21-1.28-0.25-1.92-0.11c-0.64,0.14-1.23,0.44-1.76,0.9c-0.53,0.46-0.9,1-1.12,1.62
		c-0.22,0.62-0.27,1.26-0.14,1.92c0.13,0.66,0.45,1.28,0.96,1.87c0.51,0.58,1.09,0.98,1.72,1.19c0.64,0.21,1.28,0.25,1.92,0.11
		C332.54,351.7,333.13,351.4,333.65,350.94z"/>
	<path d="M339.01,346.78l-6.11-6.28l2.03-1.97c0.42-0.41,0.87-0.7,1.33-0.87c0.46-0.17,0.91-0.21,1.35-0.12
		c0.44,0.09,0.84,0.33,1.21,0.7c0.56,0.58,0.8,1.2,0.73,1.87c-0.08,0.67-0.46,1.33-1.15,2.01l-1.5,1.46l2.64,2.71L339.01,346.78z
		 M336.42,343.08l1.56-1.52c0.5-0.49,0.78-0.97,0.84-1.45c0.06-0.48-0.11-0.93-0.51-1.35c-0.39-0.4-0.85-0.59-1.36-0.56
		c-0.51,0.03-1.01,0.28-1.5,0.75l-1.57,1.53L336.42,343.08z"/>
	<path d="M347.52,338.42c-0.44,0.47-0.93,0.83-1.47,1.08s-1.11,0.38-1.69,0.4s-1.15-0.07-1.72-0.28c-0.56-0.21-1.08-0.53-1.55-0.97
		c-0.48-0.44-0.84-0.94-1.09-1.48c-0.25-0.55-0.39-1.11-0.41-1.69c-0.02-0.58,0.07-1.15,0.28-1.71c0.21-0.56,0.53-1.08,0.97-1.55
		c0.43-0.47,0.92-0.82,1.47-1.07c0.55-0.25,1.11-0.38,1.7-0.39c0.59-0.02,1.16,0.08,1.73,0.28c0.56,0.21,1.08,0.53,1.55,0.96
		c0.47,0.44,0.83,0.93,1.08,1.48c0.25,0.55,0.38,1.11,0.41,1.7s-0.07,1.16-0.27,1.72C348.28,337.44,347.96,337.95,347.52,338.42z
		 M347.01,337.95c0.48-0.51,0.79-1.09,0.95-1.73c0.15-0.64,0.13-1.28-0.06-1.92c-0.19-0.64-0.58-1.23-1.14-1.76
		c-0.57-0.53-1.18-0.87-1.84-1.01c-0.66-0.15-1.3-0.12-1.92,0.08s-1.18,0.56-1.65,1.07s-0.79,1.09-0.95,1.73
		c-0.15,0.64-0.13,1.28,0.06,1.93c0.19,0.64,0.57,1.23,1.14,1.76c0.57,0.53,1.18,0.87,1.84,1.01c0.66,0.15,1.3,0.12,1.92-0.08
		C345.98,338.82,346.53,338.46,347.01,337.95z"/>
	<path d="M351.94,333.24l-6.73-5.62l0.47-0.56l4.02,3.35l-1.28-6.63l0.55-0.66l0.97,4.93l6.11,0.26l-0.61,0.73l-5.36-0.26l0.44,2.31
		l1.89,1.58L351.94,333.24z"/>
	<path d="M359.91,323.59c-0.39,0.51-0.84,0.92-1.35,1.23c-0.52,0.3-1.06,0.5-1.64,0.58c-0.58,0.08-1.16,0.05-1.74-0.1
		c-0.58-0.15-1.13-0.42-1.65-0.81c-0.52-0.39-0.93-0.84-1.24-1.36c-0.31-0.52-0.5-1.06-0.59-1.64c-0.08-0.58-0.05-1.16,0.1-1.74
		c0.15-0.58,0.42-1.13,0.8-1.64c0.38-0.51,0.83-0.92,1.35-1.22c0.52-0.3,1.07-0.49,1.65-0.57c0.58-0.08,1.16-0.05,1.75,0.1
		c0.58,0.15,1.13,0.41,1.64,0.79c0.52,0.39,0.93,0.84,1.23,1.36c0.31,0.52,0.5,1.07,0.58,1.64c0.08,0.58,0.05,1.16-0.09,1.74
		C360.56,322.53,360.3,323.08,359.91,323.59z M359.35,323.17c0.42-0.56,0.67-1.17,0.76-1.82c0.09-0.65,0-1.29-0.26-1.91
		c-0.26-0.62-0.7-1.16-1.32-1.63c-0.62-0.47-1.27-0.74-1.93-0.81c-0.67-0.08-1.3,0.02-1.91,0.29c-0.6,0.27-1.11,0.68-1.53,1.24
		s-0.67,1.17-0.76,1.82c-0.09,0.65,0,1.29,0.26,1.91c0.26,0.62,0.7,1.16,1.32,1.63c0.62,0.46,1.26,0.74,1.93,0.81
		c0.67,0.08,1.3-0.02,1.9-0.29C358.42,324.14,358.93,323.73,359.35,323.17z"/>
	<path d="M363.36,318.54l-0.51-0.34l-1.67-4.45l-4.54,0.18l-0.51-0.34l3.09-4.57l0.56,0.38l-2.58,3.82l4.42-0.19l1.67,4.42
		l2.72-4.02l0.56,0.38L363.36,318.54z"/>
</g>
<g>
	<path d="M65.25,346.69l0.45-0.41l2.52,0.19c0.82,0.06,1.52,0.09,2.1,0.09c0.58-0.01,1.08-0.06,1.48-0.17
		c0.4-0.11,0.74-0.29,1.02-0.55c0.4-0.37,0.59-0.8,0.57-1.3c-0.03-0.5-0.26-0.99-0.72-1.48c-0.25-0.27-0.54-0.5-0.85-0.68
		c-0.32-0.18-0.63-0.27-0.93-0.29l0.18-0.57c0.79,0.08,1.51,0.47,2.15,1.17c0.36,0.39,0.61,0.81,0.75,1.24
		c0.13,0.44,0.15,0.86,0.04,1.28c-0.11,0.42-0.34,0.79-0.71,1.13c-0.26,0.24-0.57,0.43-0.93,0.57c-0.36,0.14-0.83,0.23-1.41,0.27
		c-0.58,0.04-1.33,0.02-2.25-0.05l-2.37-0.2l3.04,3.3l-0.48,0.44L65.25,346.69z"/>
	<path d="M69.96,351.76l0.44-0.43l2.53,0.1c0.82,0.03,1.52,0.04,2.1,0.01c0.58-0.03,1.07-0.1,1.47-0.22c0.4-0.12,0.73-0.32,1-0.58
		c0.39-0.38,0.56-0.83,0.52-1.32c-0.04-0.5-0.3-0.98-0.77-1.46c-0.26-0.26-0.55-0.48-0.88-0.65c-0.32-0.17-0.64-0.25-0.94-0.25
		l0.16-0.58c0.8,0.06,1.53,0.42,2.19,1.09c0.38,0.38,0.64,0.79,0.79,1.22c0.15,0.43,0.18,0.85,0.08,1.27
		c-0.09,0.42-0.32,0.8-0.67,1.15c-0.25,0.25-0.55,0.45-0.91,0.6c-0.36,0.15-0.82,0.26-1.4,0.32c-0.58,0.06-1.33,0.07-2.25,0.02
		l-2.38-0.12l3.15,3.19l-0.46,0.46L69.96,351.76z"/>
	<path d="M76.47,358.45c-0.35-0.33-0.65-0.71-0.89-1.12s-0.39-0.81-0.45-1.17l0.65-0.25c0.06,0.35,0.19,0.71,0.39,1.08
		c0.2,0.37,0.45,0.69,0.72,0.95c0.52,0.5,1.07,0.75,1.63,0.77c0.56,0.02,1.06-0.21,1.5-0.67c0.28-0.3,0.45-0.62,0.5-0.97
		c0.05-0.35,0-0.71-0.14-1.06c-0.15-0.35-0.38-0.68-0.7-0.98c-0.39-0.37-0.89-0.67-1.5-0.89l-0.02-0.42l3.03-2.57l3.23,3.02
		l-0.45,0.47l-2.82-2.66l-2.24,1.9c0.54,0.23,1,0.51,1.37,0.86c0.38,0.36,0.66,0.76,0.83,1.2c0.17,0.44,0.22,0.89,0.14,1.35
		c-0.08,0.45-0.31,0.88-0.68,1.27c-0.38,0.41-0.81,0.67-1.28,0.79c-0.47,0.12-0.95,0.11-1.44-0.04
		C77.36,359.14,76.9,358.86,76.47,358.45z"/>
	<path d="M204.22,413.05l0.42-7.72l-2.49,0.79l-0.15-0.54l3.3-1.07l0.06,0l-0.47,8.57L204.22,413.05z"/>
	<path d="M210.03,413.46c-0.58-0.01-1.09-0.14-1.52-0.38c-0.43-0.24-0.76-0.55-0.99-0.93s-0.34-0.81-0.33-1.28
		c0.01-0.51,0.16-0.93,0.45-1.27c0.29-0.33,0.69-0.59,1.2-0.77c-0.36-0.14-0.66-0.37-0.91-0.7c-0.25-0.33-0.37-0.73-0.36-1.21
		c0.01-0.44,0.13-0.83,0.36-1.17c0.23-0.34,0.55-0.6,0.95-0.79c0.4-0.19,0.85-0.27,1.36-0.26c0.52,0.01,0.97,0.12,1.36,0.33
		c0.39,0.21,0.7,0.49,0.91,0.84c0.22,0.35,0.32,0.74,0.31,1.18c-0.01,0.48-0.15,0.88-0.42,1.19c-0.27,0.32-0.58,0.54-0.95,0.66
		c0.48,0.2,0.85,0.48,1.13,0.83c0.28,0.35,0.41,0.78,0.39,1.29c-0.01,0.47-0.14,0.89-0.38,1.26c-0.25,0.37-0.59,0.67-1.02,0.88
		C211.13,413.37,210.62,413.47,210.03,413.46z M210.04,412.79c0.38,0.01,0.74-0.05,1.07-0.17c0.33-0.13,0.6-0.32,0.8-0.58
		c0.2-0.26,0.31-0.59,0.32-0.98c0.01-0.39-0.08-0.72-0.26-0.99s-0.44-0.48-0.76-0.63c-0.32-0.15-0.68-0.22-1.09-0.23
		c-0.62-0.01-1.14,0.13-1.55,0.42c-0.41,0.3-0.62,0.74-0.64,1.32c-0.01,0.39,0.08,0.72,0.27,0.99c0.19,0.27,0.44,0.48,0.77,0.62
		C209.29,412.7,209.65,412.78,210.04,412.79z M210.16,408.53c0.56,0.01,1.02-0.11,1.38-0.37c0.36-0.26,0.55-0.62,0.56-1.09
		c0.01-0.47-0.15-0.86-0.5-1.19c-0.34-0.32-0.8-0.49-1.37-0.51c-0.57-0.01-1.03,0.13-1.39,0.44c-0.36,0.3-0.55,0.69-0.56,1.16
		s0.16,0.84,0.51,1.12C209.15,408.37,209.6,408.52,210.16,408.53z"/>
	<path d="M217.81,413.5c-0.51,0.01-0.97-0.1-1.38-0.32c-0.41-0.22-0.77-0.53-1.06-0.93c-0.29-0.4-0.52-0.86-0.68-1.39
		c-0.16-0.53-0.25-1.09-0.25-1.69c-0.01-0.6,0.06-1.17,0.21-1.7s0.36-1,0.65-1.4c0.28-0.41,0.63-0.73,1.04-0.96
		c0.41-0.23,0.86-0.35,1.37-0.36c0.5-0.01,0.96,0.1,1.37,0.32s0.77,0.53,1.06,0.93c0.3,0.4,0.53,0.86,0.69,1.38
		c0.16,0.53,0.25,1.09,0.26,1.69c0.01,0.6-0.06,1.17-0.21,1.7c-0.15,0.53-0.37,1-0.65,1.41c-0.29,0.41-0.63,0.73-1.04,0.96
		C218.77,413.38,218.32,413.5,217.81,413.5z M217.8,412.83c0.51-0.01,0.96-0.17,1.34-0.47c0.38-0.31,0.68-0.74,0.89-1.3
		c0.21-0.56,0.31-1.21,0.3-1.97s-0.13-1.4-0.35-1.96c-0.22-0.55-0.53-0.98-0.92-1.28c-0.39-0.3-0.84-0.44-1.36-0.44
		c-0.51,0.01-0.96,0.17-1.34,0.47c-0.38,0.31-0.68,0.74-0.89,1.3c-0.21,0.56-0.31,1.22-0.3,1.97c0.01,0.75,0.13,1.41,0.35,1.96
		c0.22,0.55,0.53,0.98,0.92,1.28C216.84,412.69,217.29,412.84,217.8,412.83z"/>
	<path d="M351.92,359.5l-5.25-5.67l-1.17,2.34l-0.49-0.27l1.53-3.12l0.04-0.04l5.82,6.3L351.92,359.5z"/>
	<path d="M355.8,356.06c-0.34,0.34-0.73,0.62-1.16,0.85s-0.82,0.36-1.18,0.4l-0.23-0.66c0.35-0.04,0.72-0.16,1.1-0.35
		c0.38-0.19,0.7-0.42,0.98-0.69c0.5-0.49,0.77-1,0.81-1.54c0.04-0.54-0.14-1.02-0.56-1.45c-0.42-0.43-0.9-0.61-1.44-0.54
		c-0.54,0.07-1.08,0.35-1.6,0.87c-0.23,0.23-0.45,0.49-0.64,0.78l-0.54-0.19l0.09-4.29l-2.96,2.9l-0.45-0.46l3.64-3.57l0.42,0.43
		l-0.11,4.16c0.4-0.45,0.85-0.8,1.33-1.04c0.48-0.24,0.97-0.33,1.45-0.28c0.49,0.05,0.94,0.29,1.35,0.71
		c0.37,0.38,0.61,0.8,0.7,1.26c0.09,0.46,0.06,0.92-0.11,1.39C356.5,355.21,356.21,355.65,355.8,356.06z"/>
	<path d="M360.68,351.12c-0.33,0.35-0.71,0.64-1.13,0.88c-0.42,0.24-0.81,0.39-1.17,0.44l-0.25-0.65c0.35-0.06,0.71-0.19,1.08-0.39
		s0.69-0.44,0.95-0.72c0.5-0.52,0.75-1.06,0.77-1.62c0.02-0.56-0.2-1.06-0.66-1.5c-0.29-0.28-0.62-0.45-0.97-0.5
		c-0.35-0.05-0.71-0.01-1.06,0.14c-0.35,0.15-0.68,0.38-0.98,0.69c-0.37,0.39-0.67,0.89-0.9,1.5l-0.42,0.02l-2.56-3.04l3.03-3.21
		l0.47,0.45l-2.67,2.81l1.89,2.25c0.23-0.54,0.52-1,0.87-1.36c0.36-0.38,0.76-0.65,1.21-0.82c0.44-0.17,0.89-0.21,1.35-0.13
		s0.88,0.31,1.27,0.68c0.4,0.38,0.66,0.81,0.78,1.28c0.12,0.47,0.1,0.95-0.05,1.44S361.1,350.69,360.68,351.12z"/>
</g>
<g>
	<path d="M92.34,326.84c-0.43-0.46-0.78-0.97-1.05-1.53c-0.27-0.56-0.41-1.11-0.44-1.65l1.72-0.35c-0.02,0.26,0.02,0.53,0.1,0.82
		c0.08,0.29,0.2,0.57,0.36,0.84c0.16,0.27,0.33,0.52,0.53,0.73c0.28,0.29,0.55,0.49,0.83,0.58s0.51,0.05,0.7-0.13
		c0.16-0.15,0.23-0.34,0.21-0.57s-0.15-0.58-0.39-1.04l-0.34-0.66c-0.42-0.79-0.6-1.46-0.55-2.01c0.05-0.56,0.29-1.04,0.71-1.44
		c0.37-0.35,0.79-0.55,1.26-0.62c0.47-0.07,0.96-0.01,1.45,0.18c0.49,0.19,0.94,0.51,1.36,0.95c0.43,0.46,0.76,0.94,0.99,1.46
		c0.23,0.52,0.35,1.01,0.34,1.47l-1.71,0.29c0.02-0.33-0.04-0.68-0.19-1.06c-0.15-0.38-0.36-0.71-0.63-1
		c-0.27-0.28-0.54-0.46-0.81-0.53c-0.27-0.07-0.5-0.02-0.69,0.16c-0.15,0.14-0.21,0.32-0.16,0.54c0.04,0.22,0.18,0.56,0.41,1.02
		l0.34,0.67c0.4,0.79,0.59,1.46,0.57,1.99c-0.02,0.54-0.25,1.01-0.69,1.43c-0.39,0.37-0.82,0.59-1.3,0.67
		c-0.48,0.08-0.97,0.02-1.47-0.18C93.29,327.67,92.81,327.33,92.34,326.84z"/>
	<path d="M97.15,331.53l3.92-7.84l1.48,1.39l-2.67,4.94l4.84-2.9l1.43,1.35l-2.59,5.01l4.76-2.97l1.44,1.36l-7.58,4.4l-1.41-1.33
		l2.63-5.02l-4.85,2.93L97.15,331.53z"/>
	<path d="M193.81,378.22c-0.62-0.08-1.22-0.25-1.78-0.5c-0.56-0.26-1.03-0.59-1.39-1l1.1-1.36c0.15,0.21,0.35,0.4,0.6,0.56
		c0.25,0.17,0.52,0.31,0.82,0.42c0.29,0.11,0.58,0.19,0.87,0.22c0.4,0.05,0.73,0.02,1.01-0.08c0.27-0.11,0.42-0.29,0.46-0.55
		c0.03-0.21-0.04-0.41-0.21-0.57c-0.16-0.17-0.49-0.35-0.97-0.55l-0.68-0.29c-0.82-0.34-1.39-0.74-1.71-1.2s-0.44-0.98-0.37-1.56
		c0.06-0.5,0.25-0.93,0.57-1.28c0.32-0.36,0.73-0.62,1.23-0.78c0.5-0.17,1.05-0.21,1.65-0.14c0.62,0.08,1.18,0.24,1.7,0.49
		c0.51,0.25,0.91,0.56,1.2,0.91l-1.13,1.31c-0.19-0.27-0.47-0.5-0.82-0.69c-0.36-0.19-0.73-0.32-1.13-0.36
		c-0.39-0.05-0.71-0.01-0.96,0.11c-0.25,0.12-0.4,0.31-0.43,0.56c-0.03,0.21,0.05,0.38,0.22,0.52c0.17,0.14,0.49,0.32,0.97,0.53
		l0.69,0.3c0.81,0.36,1.38,0.75,1.71,1.17s0.46,0.94,0.38,1.54c-0.07,0.53-0.26,0.98-0.57,1.35c-0.32,0.37-0.73,0.64-1.25,0.8
		S194.48,378.31,193.81,378.22z"/>
	<path d="M202.62,379.08c-0.64-0.04-1.22-0.2-1.73-0.46c-0.52-0.26-0.96-0.6-1.33-1.02c-0.37-0.42-0.64-0.91-0.83-1.45
		c-0.18-0.55-0.25-1.13-0.21-1.75c0.04-0.62,0.19-1.19,0.45-1.71c0.26-0.51,0.6-0.96,1.02-1.32c0.43-0.37,0.91-0.64,1.46-0.82
		c0.55-0.18,1.14-0.25,1.78-0.21c0.63,0.04,1.21,0.2,1.73,0.46c0.52,0.26,0.97,0.61,1.34,1.03c0.37,0.43,0.64,0.91,0.83,1.46
		c0.18,0.54,0.25,1.12,0.21,1.73c-0.04,0.62-0.19,1.18-0.45,1.7c-0.26,0.52-0.6,0.96-1.02,1.32c-0.43,0.37-0.91,0.64-1.47,0.83
		C203.85,379.06,203.25,379.13,202.62,379.08z M202.75,377.21c0.45,0.03,0.86-0.04,1.23-0.22c0.37-0.18,0.67-0.45,0.9-0.81
		c0.23-0.36,0.37-0.79,0.4-1.3c0.04-0.51-0.04-0.96-0.21-1.35c-0.18-0.39-0.44-0.7-0.78-0.93c-0.34-0.23-0.73-0.37-1.19-0.4
		c-0.45-0.03-0.86,0.04-1.23,0.22c-0.37,0.18-0.67,0.45-0.9,0.81c-0.23,0.36-0.36,0.79-0.4,1.3c-0.04,0.51,0.04,0.96,0.21,1.35
		c0.18,0.39,0.44,0.7,0.78,0.93C201.91,377.05,202.3,377.18,202.75,377.21z"/>
	<path d="M212.27,379.49c-0.78-0.01-1.43-0.17-1.95-0.49c-0.52-0.32-0.91-0.75-1.17-1.3c-0.26-0.55-0.39-1.18-0.38-1.89l0.07-4.94
		l1.96,0.03l-0.07,5.02c-0.01,0.58,0.13,1,0.4,1.28c0.28,0.28,0.66,0.42,1.16,0.43c0.49,0.01,0.88-0.13,1.16-0.4
		c0.28-0.27,0.43-0.7,0.44-1.27l0.07-5.01l1.97,0.03l-0.07,4.95c-0.01,0.7-0.15,1.33-0.43,1.87c-0.28,0.54-0.68,0.97-1.21,1.27
		C213.69,379.35,213.04,379.5,212.27,379.49z"/>
	<path d="M219.42,379.26l-0.22-6.58l-2.21,0.07l-0.06-1.82l6.39-0.22l0.06,1.82l-2.21,0.08l0.23,6.58L219.42,379.26z"/>
	<path d="M225.06,379.04l-0.69-8.37l1.96-0.16l0.26,3.1l3.26-0.27l-0.26-3.1l1.96-0.16l0.69,8.37l-1.96,0.16l-0.29-3.46l-3.25,0.27
		l0.28,3.46L225.06,379.04z"/>
	<path d="M329.89,334.45c-0.46,0.43-0.97,0.77-1.53,1.04c-0.56,0.26-1.11,0.41-1.66,0.43l-0.34-1.72c0.26,0.02,0.53-0.01,0.82-0.09
		c0.29-0.08,0.57-0.2,0.85-0.35c0.27-0.16,0.52-0.33,0.73-0.53c0.29-0.27,0.49-0.55,0.58-0.82c0.09-0.28,0.05-0.51-0.13-0.7
		c-0.15-0.16-0.34-0.23-0.57-0.21s-0.58,0.15-1.04,0.38l-0.66,0.33c-0.79,0.41-1.46,0.59-2.02,0.54c-0.56-0.05-1.03-0.29-1.43-0.72
		c-0.34-0.37-0.55-0.79-0.61-1.27c-0.07-0.47,0-0.96,0.19-1.44c0.2-0.49,0.51-0.94,0.96-1.35c0.46-0.42,0.95-0.75,1.47-0.98
		c0.52-0.23,1.01-0.34,1.47-0.33l0.28,1.71c-0.33-0.02-0.68,0.04-1.06,0.19c-0.38,0.15-0.71,0.36-1,0.63
		c-0.29,0.27-0.46,0.54-0.53,0.81c-0.07,0.27-0.02,0.5,0.16,0.69c0.14,0.15,0.32,0.21,0.54,0.17c0.22-0.04,0.56-0.18,1.02-0.4
		l0.68-0.33c0.79-0.39,1.46-0.58,2-0.55c0.54,0.02,1.01,0.25,1.42,0.7c0.36,0.39,0.58,0.83,0.66,1.3c0.08,0.48,0.02,0.97-0.19,1.47
		C330.74,333.51,330.39,333.99,329.89,334.45z"/>
	<path d="M333.31,330.96l-5.99-5.89l4.08-4.15l1.23,1.21l-2.7,2.75l1.11,1.09l2.27-2.31l1.14,1.12l-2.27,2.31l1.26,1.24l2.74-2.79
		l1.25,1.22L333.31,330.96z"/>
</g>
<path class="st1" d="M293.69,124.59c-21.15-18.98-49.11-30.53-79.76-30.53c-32.21,0-61.44,12.75-82.92,33.47
	c0,0-22.17-22.09-22.17-22.09c27.15-26.41,64.22-42.67,105.09-42.67c39.27,0,75.03,15.01,101.86,39.62
	C315.79,102.39,293.69,124.59,293.69,124.59z"/>
<path class="st1" d="M126.06,132.59c-19.61,21.28-31.59,49.71-31.59,80.94c0,30.84,11.68,58.94,30.86,80.14c0,0-22.1,22.2-22.1,22.2
	c-24.86-26.88-40.05-62.83-40.05-102.33c0-39.84,15.46-76.08,40.7-103.03C103.88,110.49,126.06,132.59,126.06,132.59z"/>
<path class="st1" d="M130.73,299.26c21.51,20.88,50.85,33.73,83.2,33.73c31.41,0,59.98-12.12,81.3-31.93
	c0,0,22.19,22.08,22.19,22.08c-27,25.51-63.42,41.14-103.5,41.14c-40.96,0-78.1-16.33-105.27-42.85
	C108.66,321.43,130.73,299.26,130.73,299.26z"/>
<path class="st1" d="M300.27,296.09c20.52-21.45,33.12-50.53,33.12-82.56c0-32.78-13.2-62.47-34.58-84.06
	c0,0,22.07-22.17,22.07-22.17c27.07,27.25,43.79,64.79,43.79,106.23c0,40.64-16.08,77.52-42.22,104.63
	C322.46,318.16,300.27,296.09,300.27,296.09z"/>
<path d="M350.85,211.95l-94.82-18.65l53.87-80.22l-80.23,53.86L211.03,59.78l-18.65,107.17l-80.22-53.86l53.82,80.22l-94.82,18.65
	l94.82,18.64l-53.82,80.23L192.38,257l18.65,94.81L229.67,257l80.23,53.82l-53.87-80.23L350.85,211.95z M211.14,244.02
	c-17.77,0-32.18-14.41-32.18-32.19c0-17.77,14.41-32.18,32.18-32.18c17.78,0,32.19,14.41,32.19,32.18
	C243.33,229.61,228.92,244.02,211.14,244.02z"/>
</svg>
